<svg width="80" height="79" viewBox="0 0 80 79" fill="none" xmlns="http://www.w3.org/2000/svg">
<path d="M40.1257 10.2347C26.3663 10.2347 14.5976 19.6503 11.6163 32.9441C10.5788 37.5737 10.6898 42.2003 11.9038 46.7909C12.0116 47.1987 11.9601 47.355 11.5398 47.4753C8.76632 48.2612 5.99757 49.0675 3.23507 49.8847C2.86007 49.9956 2.73038 49.8941 2.64132 49.5347C-0.0821151 38.6534 1.36163 28.3769 7.33663 18.8597C12.3007 10.955 19.3288 5.59406 28.1944 2.67843C31.6241 1.55031 35.1585 0.961245 38.7757 0.86437C47.8304 0.622183 56.0179 3.17375 63.2382 8.62531C70.7163 14.2706 75.546 21.7066 77.6757 30.8425C79.1507 37.1644 78.9851 43.4753 77.2944 49.7441C77.1851 50.1503 77.0694 50.2612 76.6366 50.1269C73.8991 49.2831 71.1554 48.4597 68.4069 47.6534C68.0007 47.5347 67.9304 47.3878 68.0398 46.9862C71.4695 34.43 66.1866 21.155 55.0804 14.4284C51.1663 12.0581 46.9273 10.6753 42.3554 10.3237C41.5585 10.2644 40.7616 10.2425 40.1257 10.2347ZM26.2741 9.23937C26.2835 8.12843 25.4319 7.21125 24.3726 7.1925C23.2288 7.17375 22.3023 8.02531 22.2851 9.11281C22.2663 10.2003 23.2101 11.1878 24.2569 11.1831C25.346 11.1784 26.2663 10.2941 26.2741 9.23937ZM31.2069 8.16906C31.5273 9.06437 31.0569 9.64875 30.1616 9.52218C30.0538 9.50812 29.9507 9.47218 29.8476 9.43781C29.6757 9.38 29.621 9.49875 29.5679 9.61593C29.4913 9.78625 29.6101 9.85343 29.7335 9.89093C30.3116 10.0737 30.8538 9.96437 31.3382 9.62531C31.7569 9.33312 31.8851 8.88625 31.7632 8.41593C31.5632 7.64406 31.3038 6.88781 31.0741 6.12375C30.9976 5.86906 30.7788 5.82531 30.6913 6.01125C30.5585 6.29406 30.3991 6.18781 30.2132 6.1675C29.2554 6.05812 28.5632 6.88937 28.8382 7.80812C29.1507 8.85968 30.2819 9.05187 31.2069 8.16906ZM70.2569 28.2675C70.5413 27.8769 70.8226 27.5066 71.0882 27.1253C71.2601 26.8816 71.3804 26.7019 71.6882 27.0206C72.0163 27.3612 72.4444 27.3191 72.8413 27.0878C73.2554 26.8456 73.3991 26.4628 73.2694 26.0175C73.146 25.5847 72.9507 25.1737 72.7991 24.7472C72.7257 24.5425 72.6257 24.5112 72.4304 24.5956C71.4476 25.0128 70.4585 25.4175 69.4726 25.8269C69.3163 25.8925 69.2429 25.9831 69.3007 26.1628C69.3694 26.3737 69.5038 26.3191 69.6429 26.2628C69.9444 26.1394 70.2444 26.0144 70.5476 25.8925C70.7101 25.8269 70.8773 25.7034 71.0194 25.9331C71.1398 26.1253 71.1304 26.2909 70.9866 26.4753C70.7163 26.8159 70.4741 27.1769 70.2054 27.5191C70.0116 27.7644 69.9679 27.9894 70.2569 28.2675ZM8.7757 31.3612C9.09601 31.0316 8.93038 30.805 8.66007 30.6331C8.28507 30.3941 8.22101 30.0972 8.40851 29.7128C8.45538 29.6159 8.48507 29.5081 8.50851 29.4034C8.63663 28.8331 8.78195 28.3003 9.56632 28.4237C9.79757 28.4597 9.89288 28.2362 9.88351 28.0628C9.87101 27.8019 9.63507 27.9206 9.50382 27.9316C8.38663 28.0284 7.26788 28.1425 6.1507 28.2472C5.99601 28.2612 5.87413 28.2972 5.8132 28.4628C5.74601 28.6487 5.82257 28.7722 5.95538 28.8894C6.89757 29.7112 7.83351 30.5362 8.7757 31.3612ZM8.08663 43.0847C8.11788 42.8894 7.98663 42.7816 7.81632 42.7581C7.15695 42.6675 7.08507 42.2331 7.06788 41.6691C7.0507 41.08 6.90851 40.5097 7.70382 40.3159C7.93507 40.2597 7.9132 40.0112 7.84288 39.8566C7.74757 39.6503 7.59288 39.8222 7.48351 39.8769C6.46007 40.3878 5.43976 40.8987 4.4257 41.4269C4.13351 41.5784 4.14132 41.9284 4.44289 42.0409C5.5632 42.4644 6.69132 42.8597 7.81632 43.2675C7.98507 43.3269 8.10851 43.33 8.08663 43.0847ZM71.5648 32.2925C71.5726 32.3706 71.5851 32.4081 71.5757 32.4362C71.3351 33.23 71.4882 33.7722 72.0444 34.0941C72.5694 34.3987 73.2648 34.3034 73.6944 33.8722C74.1601 33.405 74.1819 32.8159 73.7507 32.1472C73.6835 32.0425 73.6116 31.9909 73.696 31.8284C73.8679 31.4972 73.6757 31.4237 73.3694 31.4831C72.3757 31.6769 71.3804 31.8644 70.3835 32.0519C70.2163 32.0847 70.0491 32.1175 70.1101 32.355C70.1632 32.555 70.3023 32.5222 70.4523 32.4925C70.8241 32.4191 71.1929 32.3597 71.5648 32.2925ZM11.5023 24.3487C11.5116 24.0175 11.321 23.6862 10.9413 23.4737C10.5726 23.2659 10.2038 23.2816 9.87413 23.5487C9.59132 23.7753 9.33663 24.0331 9.0632 24.2706C8.86632 24.4425 8.64601 24.4784 8.41163 24.3362C8.18038 24.1956 8.11632 23.98 8.14913 23.7284C8.19132 23.4034 8.33507 23.1362 8.64288 22.9972C8.8507 22.9034 8.84913 22.7769 8.76632 22.605C8.63663 22.3409 8.48195 22.5362 8.37101 22.6034C8.03038 22.8097 7.82882 23.1253 7.72882 23.5112C7.59913 24.0175 7.6882 24.4503 8.14132 24.7566C8.58976 25.0612 9.00695 25.005 9.47101 24.5894C9.67413 24.4066 9.85538 24.2034 10.0616 24.0284C10.2507 23.8675 10.4741 23.7909 10.7148 23.93C10.9632 24.0722 11.0569 24.2941 11.0304 24.5722C10.9944 24.9222 10.8241 25.1972 10.5101 25.3503C10.2929 25.4566 10.1616 25.5909 10.2944 25.8066C10.4601 26.0706 10.6507 25.8612 10.7944 25.7566C11.2351 25.4409 11.4523 24.9941 11.5023 24.3487ZM58.1585 12.1112C57.2101 12.1425 56.5679 11.3441 56.7538 10.3659C56.8757 9.72218 57.4601 9.17843 58.1366 9.07687C58.6523 9.00031 59.2351 9.30343 59.4554 9.82843C59.5601 10.0753 59.6851 10.2394 59.9163 10.105C60.1554 9.9675 59.9601 9.7425 59.8804 9.58781C59.4913 8.82062 58.471 8.42218 57.6444 8.69562C56.696 9.00968 56.0835 10.0191 56.246 11.005C56.3882 11.8706 57.2632 12.6081 58.1366 12.5628C58.3179 12.5534 58.6366 12.6519 58.6398 12.3222C58.646 11.9566 58.3523 12.1128 58.1585 12.1112ZM8.1882 35.655C8.21788 35.4331 8.16476 35.1456 8.0132 34.8894C7.9132 34.7175 7.84132 34.4097 7.56945 34.5362C7.26788 34.6769 7.48507 34.8878 7.58663 35.0784C7.9257 35.7159 7.7507 36.4737 7.18507 36.8753C6.54757 37.3253 5.65851 37.2394 5.09132 36.6722C4.55851 36.1394 4.52257 35.4972 5.02726 34.8753C5.16945 34.6987 5.21163 34.5784 5.04913 34.4175C4.8507 34.2222 4.75382 34.4347 4.66476 34.5378C4.54757 34.6722 4.44913 34.8316 4.37882 34.9972C4.08195 35.6909 4.2507 36.5425 4.77882 37.0675C5.35538 37.6441 6.27413 37.8159 7.05226 37.4941C7.7632 37.2003 8.18507 36.5456 8.1882 35.655ZM6.99757 31.9503C7.01007 31.3472 6.74757 30.9675 6.2382 30.8503C5.66788 30.7206 5.27726 30.9253 5.03663 31.5128C4.94132 31.7441 4.88664 31.9956 4.83351 32.2441C4.66632 33.0159 4.66788 33.0253 5.41632 33.1847C6.28507 33.3706 7.15382 33.5456 8.02413 33.7222C8.1757 33.7534 8.34132 33.8441 8.4132 33.5894C8.49601 33.2956 8.27101 33.3128 8.11007 33.2628C8.04132 33.2409 7.96632 33.2441 7.89601 33.2269C7.56632 33.1394 7.15851 33.1378 6.92882 32.9347C6.70226 32.7347 7.01163 32.3644 6.99132 32.0597C6.9882 32.0237 6.99601 31.9878 6.99757 31.9503ZM11.5616 20.3784C11.2476 20.3612 11.0007 20.4956 10.7882 20.7128C10.3944 21.1144 10.2991 21.7472 10.5601 22.2175C10.8554 22.7456 11.5351 23.0581 12.0851 22.9128C12.6398 22.7675 13.071 22.2144 13.0741 21.6269C13.0741 21.4597 13.1398 21.2019 12.8991 21.1784C12.5929 21.1472 12.6694 21.4175 12.6523 21.6081C12.6069 22.155 12.2741 22.4816 11.8007 22.4769C11.5366 22.4737 11.4085 22.4081 11.5835 22.1347C11.7898 21.8159 11.9913 21.4925 12.1944 21.1722C12.5007 20.6831 12.4444 20.5409 11.8866 20.4128C11.7804 20.3847 11.6694 20.3894 11.5616 20.3784ZM19.9679 13.5831C19.8038 13.5378 19.5601 13.5597 19.4913 13.3362C19.4351 13.1472 19.6554 13.0784 19.7741 12.9831C20.0694 12.7441 20.3726 12.5128 20.6835 12.2956C20.8929 12.1503 20.9273 12.0378 20.7366 11.8331C20.3132 11.3784 19.7898 11.2628 19.271 11.5487C18.7382 11.8409 18.4835 12.4628 18.6601 13.03C18.8444 13.6191 19.4476 14.0737 19.996 14.0362C20.546 14.0003 21.171 13.4644 21.2319 12.9706C21.246 12.8503 21.2929 12.7081 21.1054 12.6691C20.9554 12.6394 20.8648 12.6972 20.8288 12.8503C20.7273 13.2941 20.4366 13.5253 19.9679 13.5831ZM70.621 29.7737C70.646 30.08 70.7382 30.4534 71.046 30.7159C71.1757 30.8269 71.3491 31.0659 71.5398 30.8456C71.7069 30.6503 71.4819 30.5409 71.3554 30.4159C70.9819 30.0347 70.9335 29.5956 71.2163 29.2441C71.296 29.1441 71.3898 29.0159 71.521 29.0581C71.5929 29.08 71.6398 29.2253 71.671 29.3222C71.7991 29.7191 71.9304 30.1159 72.0335 30.5191C72.1116 30.8222 72.2382 30.8925 72.5335 30.755C73.1101 30.4831 73.3757 29.9737 73.2132 29.38C73.0288 28.7034 72.471 28.3456 71.7616 28.4487C71.0866 28.5409 70.6179 29.0519 70.621 29.7737ZM43.4663 5.81437C43.2944 5.82687 43.1679 5.82687 43.0429 5.84562C42.4335 5.93468 42.1163 6.27218 42.1851 6.75187C42.246 7.17687 42.6788 7.45812 43.2226 7.41593C43.5054 7.39406 43.771 7.22375 44.0757 7.44718C44.2257 7.55656 44.2898 7.33468 44.3023 7.18312C44.3366 6.7675 44.3773 6.35343 44.4101 5.93781C44.4398 5.55968 44.3913 5.19562 44.0273 4.98937C43.5882 4.73937 43.1257 4.75031 42.6679 4.95812C42.5679 5.00343 42.4694 5.06906 42.5226 5.20656C42.5757 5.34406 42.6679 5.41437 42.8179 5.34093C43.0023 5.25187 43.196 5.21281 43.3976 5.23468C43.6632 5.26281 43.9538 5.33937 43.9398 5.65031C43.9226 6.00968 43.5929 5.755 43.4663 5.81437ZM69.0773 20.8534C69.0788 20.1191 68.4663 19.4581 67.771 19.4487C67.0554 19.4394 66.4038 20.0816 66.4116 20.7878C66.421 21.5284 67.0335 22.1519 67.7476 22.1441C68.4882 22.1362 69.0757 21.5659 69.0773 20.8534ZM49.9085 8.77062C50.6585 8.77375 51.2273 8.18781 51.2179 7.40968C51.2101 6.68156 50.5991 6.12062 49.8194 6.12843C49.1085 6.13468 48.5429 6.71906 48.5304 7.46281C48.5179 8.18156 49.1319 8.76593 49.9085 8.77062ZM73.2116 37.6019C74.0101 37.5956 74.5398 37.0581 74.5226 36.2691C74.5054 35.5019 73.9741 34.9519 73.2366 34.9441C72.4663 34.9347 71.9038 35.4941 71.9069 36.2691C71.9101 37.0878 72.4163 37.6066 73.2116 37.6019ZM60.6148 14.4097C61.346 14.4206 61.9476 13.8425 61.9507 13.1253C61.9569 12.3925 61.3476 11.7784 60.6038 11.7612C59.8882 11.7472 59.2866 12.3331 59.2726 13.0597C59.2585 13.7925 59.8616 14.3987 60.6148 14.4097ZM32.2616 7.24562C32.2944 7.51437 32.3679 7.76593 32.6226 7.88156C32.9898 8.04875 33.3632 8.02375 33.7132 7.81593C33.8851 7.71437 33.9898 7.45187 34.2726 7.6925C34.3632 7.76906 34.5694 7.64093 34.5038 7.39875C34.4038 7.03156 34.3366 6.65812 34.2507 6.28781C34.0241 5.32062 33.2882 5.02531 32.4632 5.57843C32.3288 5.66906 32.0741 5.75968 32.1991 5.97375C32.3538 6.24406 32.5288 6.02687 32.6898 5.92218C32.7804 5.86437 32.8788 5.81125 32.9835 5.78312C33.2788 5.70812 33.6319 5.67531 33.7148 6.02687C33.7976 6.38 33.4007 6.26906 33.2163 6.34093C32.7648 6.51437 32.3194 6.67218 32.2616 7.24562ZM54.1663 8.40656C54.1976 7.805 53.9194 7.48312 53.3944 7.355C53.1351 7.29093 52.7898 7.52531 52.6194 7.08937C52.5632 6.94718 52.3788 7.07218 52.3148 7.23468C52.0788 7.82375 51.8366 8.40968 51.5944 8.99562C51.5288 9.15656 51.4679 9.32062 51.6913 9.39875C51.9288 9.48156 51.9491 9.27062 52.0116 9.13C52.1679 8.78312 52.2929 8.41906 52.4819 8.0925C52.6882 7.73937 53.0273 7.60343 53.4163 7.79406C53.8241 7.9925 53.7757 8.32843 53.6241 8.67687C53.4648 9.04406 53.3194 9.41437 53.1569 9.77843C53.0898 9.93312 53.146 10.0097 53.2804 10.0753C53.4069 10.1362 53.496 10.105 53.5444 9.98625C53.7741 9.43312 54.0726 8.90968 54.1663 8.40656ZM35.6679 6.10812C35.6398 5.63468 35.8976 5.25656 36.3429 5.25031C36.8741 5.2425 36.9194 5.6425 36.9585 6.03625C36.9929 6.37843 37.0382 6.72062 37.0741 7.06125C37.0929 7.23625 37.1694 7.32531 37.3554 7.30343C37.5382 7.28312 37.5366 7.15968 37.521 7.02687C37.4648 6.5425 37.4351 6.05187 37.3444 5.57218C37.221 4.93 36.6069 4.64718 36.0038 4.93C35.7851 5.03156 35.6241 5.26125 35.3194 5.04562C35.1741 4.94093 35.0898 5.13625 35.1101 5.305C35.1866 5.95187 35.2648 6.59718 35.3382 7.24562C35.3569 7.41125 35.4054 7.52843 35.6038 7.50031C35.7804 7.47531 35.7804 7.35187 35.7679 7.21593C35.7335 6.87218 35.7054 6.53 35.6679 6.10812ZM64.4054 15.08C64.4148 14.7847 64.2741 14.5675 64.071 14.3644C63.821 14.1144 63.3163 14.1972 63.2523 13.68C63.2335 13.5347 63.0523 13.6659 62.9648 13.7581C62.5413 14.2066 62.1116 14.6487 61.696 15.1034C61.6023 15.205 61.3819 15.2972 61.5538 15.4972C61.7398 15.7144 61.8663 15.5394 61.9944 15.4128C62.2804 15.1362 62.5491 14.8347 62.8601 14.5909C63.1694 14.3472 63.5132 14.3847 63.7913 14.6753C64.096 14.9909 63.9335 15.2691 63.6913 15.53C63.4194 15.8222 63.146 16.1128 62.871 16.4019C62.7632 16.5144 62.6788 16.6097 62.8398 16.7581C63.0007 16.9066 63.0882 16.8144 63.196 16.7003C63.4445 16.4362 63.6991 16.1769 63.9491 15.9144C64.1804 15.68 64.4069 15.4409 64.4054 15.08ZM74.4085 43.3503C74.4101 42.8831 74.2601 42.5503 73.8163 42.4487C73.3866 42.3503 73.1944 42.6456 73.0444 42.98C73.0007 43.0784 72.9663 43.1831 72.9226 43.2831C72.8288 43.4987 72.7601 43.7831 72.4413 43.6581C72.1679 43.5519 72.2054 43.2769 72.2335 43.0425C72.2507 42.8925 72.3335 42.7691 72.4444 42.6722C72.5851 42.5503 72.5788 42.4222 72.4632 42.2972C72.3038 42.1253 72.1929 42.2847 72.1054 42.38C71.7491 42.7691 71.7241 43.2331 71.8679 43.705C71.9616 44.0097 72.2148 44.1737 72.5335 44.1769C73.0694 44.1831 73.2069 43.7691 73.3444 43.3659C73.3507 43.3487 73.3554 43.3316 73.3632 43.3144C73.4507 43.1222 73.5085 42.8269 73.7913 42.9394C74.0929 43.0581 74.0304 43.3503 73.9288 43.5956C73.896 43.6737 73.821 43.7394 73.7554 43.8019C73.6241 43.93 73.7163 44.0425 73.7866 44.1378C73.8991 44.2925 74.0069 44.1847 74.1023 44.0987C74.3382 43.8862 74.4023 43.6081 74.4085 43.3503ZM41.0335 5.08312C40.5101 5.71906 40.0929 6.21437 39.6913 6.72218C39.5569 6.89406 39.4007 7.15187 39.7851 7.18781C40.3054 7.23781 40.8319 7.21125 41.3569 7.21593C41.4679 7.21593 41.5898 7.19562 41.5944 7.055C41.6007 6.87062 41.4507 6.88156 41.3241 6.87687C41.0882 6.8675 40.8554 6.85812 40.6194 6.85187C40.5132 6.84875 40.3788 6.89093 40.321 6.78781C40.2413 6.64875 40.3819 6.55812 40.4554 6.4675C40.796 6.04562 41.1554 5.63937 41.4882 5.21125C41.6819 4.96125 41.7163 4.73312 41.2819 4.72843C40.8304 4.72531 40.3773 4.7175 39.9273 4.7175C39.7944 4.7175 39.6632 4.74562 39.6804 4.92531C39.6944 5.06593 39.8085 5.08468 39.9194 5.08625C40.2398 5.08468 40.5616 5.08312 41.0335 5.08312ZM73.2804 40.6847C73.2804 40.6784 73.2804 40.6753 73.2804 40.6706C73.0444 40.6706 72.8085 40.6519 72.5757 40.6737C72.0991 40.7206 71.8241 41.1831 71.9882 41.6253C72.0288 41.7347 72.0741 41.8206 72.2101 41.8191C72.3554 41.8175 72.3882 41.7456 72.3726 41.6112C72.3194 41.155 72.6148 41.1112 72.9585 41.13C73.1944 41.1425 73.4288 41.1769 73.6632 41.1644C74.0163 41.1441 74.2241 41.2331 74.1538 41.6441C74.1319 41.7659 74.1351 41.9144 74.321 41.9191C74.5038 41.9253 74.5085 41.7816 74.5132 41.655C74.5226 41.3816 74.5351 41.1269 74.9304 41.2253C75.0866 41.2659 75.2241 41.2347 75.2554 41.0409C75.2944 40.7941 75.1241 40.7816 74.9523 40.7784C74.7444 40.7722 74.546 40.7659 74.5788 40.4612C74.5913 40.3534 74.546 40.2409 74.4069 40.23C74.2616 40.2175 74.2179 40.3269 74.2148 40.4378C74.2116 40.7722 74.0007 40.7519 73.7679 40.7222C73.6069 40.7003 73.4429 40.6956 73.2804 40.6847ZM16.4601 14.4394C16.4679 15.0425 16.9601 15.6362 17.5616 15.7628C18.0944 15.8753 18.7663 15.5237 18.9929 14.9956C19.0585 14.8409 19.1882 14.6331 18.9585 14.5222C18.7163 14.4034 18.6866 14.6175 18.6101 14.7925C18.3476 15.3894 17.7007 15.5019 17.2273 15.0534C16.6679 14.5191 16.8194 13.8706 17.5835 13.5941C17.7554 13.5316 17.9101 13.4847 17.8632 13.2769C17.8054 13.0159 17.6038 13.1441 17.4663 13.1753C16.8898 13.305 16.4523 13.8659 16.4601 14.4394ZM15.2101 18.0441C14.5366 17.8112 14.0101 17.6394 13.4929 17.4441C13.2726 17.3597 13.1304 17.4362 13.0476 17.6159C12.9241 17.8894 13.196 17.8425 13.3163 17.8847C13.946 18.105 14.5819 18.3112 15.2148 18.5253C15.3819 18.5816 15.5163 18.5816 15.6476 18.4284C15.7819 18.2691 15.7413 18.1487 15.6538 17.9925C15.3491 17.4378 15.0663 16.8753 14.7569 16.3237C14.6851 16.1956 14.6944 15.8909 14.4319 16.0144C14.2023 16.1222 14.2773 16.3347 14.3866 16.5269C14.6413 16.9769 14.8851 17.4409 15.2101 18.0441ZM46.2226 4.94562C46.2476 4.78 46.3335 4.59718 46.0913 4.53937C45.8116 4.47218 45.7991 4.69562 45.7851 4.86906C45.7648 5.11281 45.6429 5.17687 45.4241 5.13781C45.3069 5.1175 45.2023 5.13937 45.1757 5.27843C45.1616 5.35187 45.1757 5.44406 45.2585 5.45656C45.8476 5.53937 45.5663 5.94093 45.5413 6.23312C45.5179 6.50343 45.4413 6.7675 45.4101 7.03625C45.346 7.58625 45.6648 7.905 46.2132 7.855C46.3523 7.8425 46.4679 7.81593 46.4929 7.65968C46.5226 7.4675 46.3819 7.46593 46.2523 7.45968C45.8663 7.43781 45.8288 7.18781 45.8788 6.88468C45.9257 6.60031 45.9944 6.3175 46.0319 6.03156C46.071 5.74875 46.1741 5.60187 46.4898 5.69093C46.6132 5.72531 46.7991 5.80187 46.8413 5.58312C46.8819 5.37375 46.7038 5.36281 46.5616 5.34406C46.321 5.30968 46.1194 5.25343 46.2226 4.94562ZM65.3179 16.3612C65.2179 16.4269 65.1038 16.4847 65.0116 16.5659C64.7132 16.8284 64.4023 17.0816 64.1319 17.3722C63.796 17.7331 63.9538 18.3034 64.4054 18.4862C64.5257 18.5362 64.6116 18.5175 64.6929 18.4253C64.7694 18.3394 64.7491 18.2659 64.6648 18.1972C64.2194 17.8347 64.5054 17.5847 64.7976 17.3331C64.9616 17.1909 65.1366 17.0597 65.2819 16.9003C65.496 16.6691 65.6741 16.6144 65.8819 16.9081C65.9538 17.0081 66.0476 17.1784 66.2288 17.03C66.4116 16.88 66.2726 16.7659 66.171 16.68C65.9132 16.4628 65.9116 16.2784 66.1929 16.0878C66.3148 16.0034 66.4194 15.9034 66.2788 15.7362C66.1116 15.5362 65.9976 15.6784 65.8788 15.7862C65.7382 15.9159 65.6069 16.0394 65.4273 15.8378C65.3507 15.7519 65.2788 15.6112 65.1226 15.7331C64.9507 15.8659 65.0444 15.9753 65.1444 16.0925C65.1929 16.1456 65.2241 16.2112 65.3179 16.3612ZM6.00695 39.0628C6.00695 39.0737 6.00695 39.0847 6.00695 39.0941C6.53195 39.0941 7.05538 39.0925 7.58038 39.0941C7.74288 39.0941 7.91476 39.13 7.92882 38.8784C7.94601 38.6034 7.76945 38.6034 7.57726 38.6034C6.54757 38.5956 5.51476 38.5862 4.48507 38.5753C4.30851 38.5737 4.16007 38.5816 4.15851 38.8191C4.15695 39.0675 4.3257 39.0597 4.48976 39.0597C4.99445 39.0644 5.50226 39.0628 6.00695 39.0628ZM71.4663 21.5956C71.3616 21.2691 71.1694 21.3706 70.9632 21.4894C70.0179 22.0284 69.0726 22.5659 68.1288 23.1081C68.0069 23.18 67.7788 23.2019 67.896 23.4487C68.0179 23.7066 68.1835 23.5894 68.3413 23.5003C69.3023 22.9534 70.2632 22.4066 71.2226 21.855C71.3257 21.7956 71.471 21.7675 71.4663 21.5956ZM27.0023 7.29406C26.7694 7.28468 26.6507 7.355 26.7726 7.64093C27.0194 8.22062 27.2429 8.81125 27.4851 9.39406C27.5413 9.52843 27.5726 9.72843 27.8194 9.61281C28.0616 9.50031 27.9257 9.34093 27.8773 9.205C27.7648 8.88156 27.6257 8.56906 27.5132 8.24406C27.3898 7.88625 27.4288 7.55031 27.7866 7.35031C27.9804 7.24093 28.1788 7.14093 27.9851 6.92375C27.796 6.70812 27.6507 6.98156 27.4866 7.05031C27.321 7.11437 27.3429 7.51593 27.0023 7.29406ZM12.9288 18.3112C12.8726 18.2597 12.8163 18.1925 12.7444 18.1472C12.621 18.0706 12.5476 18.1581 12.4804 18.2519C12.2851 18.5237 12.4163 18.9941 11.9351 19.1034C11.8351 19.1253 11.9241 19.2894 12.0179 19.3581C12.5726 19.7628 13.1273 20.1659 13.6788 20.5737C13.8116 20.6722 13.8976 20.6503 13.9913 20.5191C14.0898 20.3784 14.0366 20.2909 13.9194 20.2034C13.7007 20.0441 13.4804 19.8862 13.2663 19.7191C12.8398 19.3831 12.3976 19.0503 12.8773 18.4378C12.8991 18.4144 12.9038 18.3753 12.9288 18.3112ZM67.6913 18.4737C67.6694 18.4409 67.646 18.3909 67.6116 18.3519C67.3866 18.0909 66.9241 18.0566 66.9132 17.5847C66.9116 17.4987 66.7648 17.5316 66.6882 17.5925C66.1523 18.0206 65.6163 18.4503 65.0819 18.8784C64.9741 18.9644 64.9038 19.055 65.0148 19.1941C65.1148 19.3175 65.221 19.3222 65.3398 19.2284C65.5382 19.0737 65.7413 18.9222 65.9382 18.7628C66.3788 18.405 66.8194 18.0566 67.321 18.68C67.3929 18.7691 67.4773 18.7472 67.5601 18.6972C67.6351 18.6472 67.7148 18.6003 67.6913 18.4737ZM73.3882 38.4316C73.3882 38.4394 73.3882 38.4487 73.3882 38.455C73.0632 38.455 72.7366 38.455 72.4132 38.455C72.2616 38.455 72.1163 38.4644 72.121 38.6753C72.1273 38.8894 72.2819 38.8816 72.4273 38.8831C72.7882 38.8862 73.1507 38.8737 73.5101 38.8956C73.8851 38.9191 74.1757 39.0784 74.2116 39.5034C74.2257 39.6706 74.2148 39.8597 74.4554 39.8284C74.7429 39.7925 74.6601 39.5581 74.6148 39.405C74.5351 39.1362 74.2991 38.9112 74.5648 38.5956C74.6476 38.4972 74.4444 38.4284 74.3069 38.43C74.0023 38.4362 73.6944 38.4316 73.3882 38.4316ZM15.2819 15.0206C15.2304 15.1112 15.1866 15.1925 15.1413 15.2706C15.0679 15.3941 15.1491 15.4706 15.2273 15.5472C15.6898 15.9972 16.1554 16.4487 16.621 16.9003C16.7491 17.0237 16.8694 17.105 17.021 16.9191C17.171 16.7362 17.0069 16.6644 16.9132 16.5722C16.4788 16.1425 16.0413 15.7128 15.6038 15.2862C15.5288 15.2144 15.4413 15.1519 15.2819 15.0206ZM48.0148 5.85968C48.0366 5.68937 47.9679 5.62375 47.8413 5.605C47.721 5.58468 47.6148 5.61437 47.5835 5.73937C47.4179 6.44093 47.2569 7.14562 47.1023 7.84875C47.0804 7.94875 47.1569 8.01593 47.2538 8.04093C47.3648 8.06906 47.4757 8.06593 47.5116 7.92531C47.6835 7.22843 47.8538 6.52843 48.0148 5.85968ZM38.8741 6.00968C38.846 6.00968 38.8194 6.00968 38.7913 6.00968C38.7913 5.68625 38.7913 5.36281 38.7913 5.03937C38.7913 4.89093 38.7976 4.73625 38.5866 4.73312C38.3835 4.73 38.3569 4.87218 38.3616 5.02687C38.3835 5.67375 38.4085 6.32218 38.4366 6.96906C38.4429 7.1175 38.4616 7.27218 38.6741 7.24875C38.8679 7.22687 38.8773 7.08156 38.8773 6.92843C38.8726 6.62062 38.8741 6.31437 38.8741 6.00968ZM48.0257 4.37531C47.8476 4.41593 47.7319 4.52062 47.7554 4.71281C47.7757 4.87218 47.8851 4.97531 48.0523 4.9675C48.2366 4.95812 48.3648 4.85968 48.3538 4.66125C48.3429 4.46906 48.2148 4.38312 48.0257 4.37531ZM14.821 14.5128C14.7851 14.3394 14.6757 14.23 14.4866 14.2378C14.3241 14.2456 14.2116 14.3425 14.2101 14.5128C14.2069 14.7019 14.3054 14.8222 14.5038 14.8253C14.696 14.8269 14.7929 14.7128 14.821 14.5128ZM38.8101 3.7425C38.7882 3.59093 38.7054 3.48781 38.5288 3.49093C38.3335 3.49718 38.2226 3.60031 38.2351 3.79875C38.2476 4.00187 38.3804 4.08 38.5726 4.05968C38.7476 4.0425 38.8101 3.92218 38.8101 3.7425Z" stroke="#899195" stroke-width="0.9375" stroke-miterlimit="10"/>
<path d="M39.8932 78.1517C23.5213 78.1517 8.76348 67.6204 3.47598 52.1626C3.33067 51.7345 3.20723 51.297 3.0416 50.8751C2.94473 50.6329 3.03067 50.5564 3.2416 50.4939C6.13379 49.6642 9.02754 48.8376 11.915 47.9923C12.315 47.8751 12.2822 48.1517 12.3494 48.3532C14.0525 53.4642 16.9244 57.8032 21.0104 61.3142C26.1463 65.7298 32.1213 68.1157 38.8854 68.3423C47.3166 68.6251 54.5729 65.7454 60.5854 59.8314C63.8197 56.6517 66.1291 52.8611 67.5666 48.5548C67.6947 48.172 67.8275 48.0954 68.215 48.2157C70.9713 49.0626 73.7322 49.8861 76.4947 50.7048C76.8244 50.8032 76.9729 50.8782 76.8338 51.2861C73.3447 61.6501 66.7354 69.322 56.965 74.2267C51.6432 76.9017 45.9525 78.1517 39.8932 78.1517ZM54.3697 70.0314C54.8932 69.3736 54.9479 68.9142 54.5869 68.4251C54.2682 67.9907 53.7588 67.9001 53.0572 68.1751C52.6682 68.3267 52.2979 68.522 51.9104 68.6751C51.6307 68.7845 51.576 68.9064 51.7166 69.1954C52.1682 70.1236 52.59 71.0657 53.0088 72.0111C53.126 72.2736 53.2025 72.4282 53.5557 72.2704C53.9354 72.1001 53.8041 71.9126 53.69 71.6798C53.5713 71.4361 53.4525 71.1907 53.3447 70.9407C53.2932 70.8204 53.1463 70.6829 53.3135 70.5564C53.4619 70.4454 53.6275 70.3736 53.8119 70.5095C54.0885 70.7142 54.3947 70.8876 54.6432 71.122C55.0838 71.5407 55.4869 71.4907 55.9416 71.0861C55.4244 70.7361 54.9166 70.3954 54.3697 70.0314ZM21.526 66.9689C21.4916 66.5548 21.2229 66.2126 20.7916 66.1267C20.3807 66.0439 20.0963 65.9532 19.9932 65.4954C19.9494 65.3001 19.7197 65.1548 19.515 65.0767C19.24 64.972 18.9385 64.9767 18.8072 64.5939C18.7338 64.3798 18.4822 64.2954 18.2697 64.597C17.8947 65.1298 17.4838 65.6376 17.0713 66.1439C16.901 66.3517 16.8775 66.4829 17.1213 66.6611C17.3463 66.8251 17.4775 66.8345 17.6432 66.597C17.8729 66.272 18.1213 65.9564 18.3838 65.6595C18.626 65.3845 18.9213 65.3751 19.2041 65.6032C19.4885 65.8329 19.3791 66.0814 19.201 66.3157C18.9604 66.6329 18.7213 66.9517 18.4635 67.2564C18.3025 67.4454 18.2791 67.5767 18.5088 67.7345C18.701 67.8642 18.8385 68.0032 19.0307 67.722C19.2666 67.3798 19.5244 67.0486 19.8025 66.7407C20.0197 66.5001 20.2979 66.4423 20.5791 66.6626C20.8822 66.9001 20.7994 67.1611 20.6041 67.4173C20.3744 67.7204 20.1541 68.0314 19.9025 68.3157C19.6963 68.547 19.7291 68.6767 19.9682 68.872C20.2275 69.0814 20.3307 68.9579 20.4729 68.7626C20.6541 68.5126 20.8525 68.2782 21.04 68.0329C21.2697 67.7314 21.5244 67.4407 21.526 66.9689ZM39.115 75.0095C38.6666 73.7454 38.2307 72.5001 37.7791 71.2626C37.6572 70.9282 37.1307 70.8298 36.9682 71.1173C36.2994 72.2939 35.6572 73.4845 34.9619 74.7486C35.3557 74.6689 35.7682 75.0001 35.9338 74.5204C36.1229 73.9673 36.4885 73.8954 36.9791 73.9845C37.1932 74.0236 37.4119 74.0407 37.6275 74.047C37.8713 74.0548 38.0416 74.1251 38.0791 74.3986C38.1572 74.9704 38.5229 75.1204 39.115 75.0095ZM50.4479 72.3376C50.4557 71.7345 50.176 70.8407 49.8432 70.3907C49.4541 69.8673 48.9229 69.6829 48.3088 69.8564C47.7119 70.0267 47.3479 70.4861 47.3197 71.1376C47.29 71.8251 47.4604 72.4689 47.8119 73.0579C48.1947 73.7017 48.7525 73.9345 49.4197 73.7564C50.0744 73.5814 50.4385 73.0798 50.4479 72.3376ZM66.4104 62.2048C66.7479 62.2407 67.0979 61.9782 67.3354 61.5892C67.4729 61.3642 67.4104 61.2423 67.2229 61.0939C67.0025 60.9189 66.9572 61.0876 66.8713 61.2251C66.69 61.5079 66.4775 61.4954 66.2385 61.2923C66.0604 61.1392 65.8791 60.9829 65.6822 60.8579C65.4135 60.6876 65.4072 60.522 65.6213 60.3048C65.7713 60.1548 65.8713 60.0189 65.6213 59.8282C65.3791 59.6439 65.265 59.7548 65.1557 59.9439C64.9994 60.2079 64.826 60.2407 64.6104 60.0126C64.4354 59.8282 64.29 59.7736 64.0963 60.0251C63.9135 60.2626 63.8916 60.422 64.1697 60.5751C64.5057 60.7611 64.3994 60.9611 64.1885 61.1657C64.0072 61.3392 63.7729 61.4689 63.701 61.7329C63.6447 61.9423 63.6682 62.1251 63.3197 62.1845C62.9385 62.2501 62.9307 62.6064 63.2447 62.8939C63.6994 63.3095 64.1682 63.7126 64.6072 64.1423C64.8338 64.3642 64.9525 64.3189 65.165 64.1079C65.4119 63.8611 65.2697 63.7517 65.0979 63.6032C64.8791 63.4111 64.6635 63.2189 64.4525 63.0204C64.001 62.5907 63.9854 62.3236 64.3838 61.8642C64.4307 61.8095 64.501 61.7673 64.5275 61.7048C64.7979 61.122 65.1135 61.2501 65.4963 61.6064C65.7635 61.8642 66.0557 62.1204 66.4104 62.2048ZM59.7916 68.4673C60.0088 68.4392 60.1166 68.4345 60.2197 68.4111C60.8135 68.2782 61.2385 67.7736 61.2572 67.1814C61.2791 66.497 60.8432 65.8798 60.2166 65.697C59.6619 65.5376 59.015 65.7876 58.7119 66.2939C58.5994 66.4829 58.5916 66.7423 58.2244 66.6611C58.1229 66.6376 57.6525 66.8126 57.9619 67.2173C58.6307 68.0939 59.2854 68.9829 59.9307 69.8782C60.1057 70.122 60.2338 70.0376 60.4104 69.9001C60.5807 69.7704 60.7244 69.6782 60.5197 69.4423C60.2744 69.1595 60.0697 68.8439 59.7916 68.4673ZM33.8791 70.4236C33.1744 70.3923 32.6697 70.7064 32.5182 71.2657C32.365 71.8345 32.5822 72.2267 33.2557 72.6095C33.4604 72.7267 33.6775 72.8314 33.8525 72.9845C34.2025 73.2892 34.1057 73.6642 33.6604 73.8001C33.2854 73.9126 32.9604 73.7814 32.7354 73.5017C32.4338 73.122 32.2322 73.4657 32.0682 73.5954C31.8135 73.7939 32.101 73.947 32.2275 74.0454C32.7744 74.4736 33.3994 74.6095 34.0713 74.4079C34.5338 74.2689 34.7775 73.9204 34.8463 73.4486C34.9135 72.9861 34.7307 72.6314 34.3416 72.3876C34.0947 72.2345 33.8322 72.1064 33.5885 71.9517C33.3838 71.822 33.1947 71.6642 33.3072 71.3798C33.4119 71.1189 33.6385 71.0611 33.8885 71.0845C34.0869 71.1032 34.3041 71.1345 34.4354 71.2923C34.7557 71.6782 34.9932 71.3282 35.1338 71.1595C35.351 70.8986 34.9994 70.8204 34.8541 70.7126C34.5729 70.5032 34.226 70.4532 33.8791 70.4236ZM40.7494 75.0845C40.8025 75.0782 40.9869 75.0767 41.1619 75.0376C41.7588 74.9032 42.1416 74.4673 42.1697 73.9126C42.201 73.3236 41.9557 72.9986 41.3041 72.7657C41.1166 72.6986 40.926 72.6423 40.7369 72.5829C40.4447 72.4954 40.14 72.3798 40.2322 72.0064C40.3213 71.6439 40.6541 71.5892 40.976 71.6173C41.115 71.6298 41.2588 71.6907 41.3791 71.7626C41.7729 72.0017 41.8479 71.5876 41.9775 71.4267C42.1338 71.2329 41.851 71.1751 41.7291 71.122C41.126 70.8564 40.5244 70.9001 39.9572 71.2236C39.5604 71.4517 39.3994 71.8204 39.4354 72.2798C39.4697 72.7064 39.6979 72.9861 40.0838 73.1329C40.3697 73.2423 40.6697 73.3204 40.9588 73.4251C41.2104 73.5157 41.4275 73.6642 41.376 73.9751C41.326 74.2689 41.09 74.3751 40.8229 74.4157C40.5822 74.4548 40.3275 74.4298 40.1541 74.2657C39.7916 73.9236 39.6182 74.2689 39.4807 74.4657C39.2775 74.7611 39.6338 74.8017 39.7838 74.8954C40.0322 75.0611 40.3275 75.0923 40.7494 75.0845ZM13.7244 60.4736C13.8338 60.3939 13.9869 60.3173 14.0885 60.197C14.1979 60.0657 14.0354 59.9689 13.9729 59.8736C13.765 59.5548 13.5447 59.247 13.3275 58.9329C13.04 58.5189 13.5057 58.5204 13.6541 58.3626C13.8057 58.2001 13.9822 58.0782 14.1635 58.3814C14.3744 58.7392 14.6354 59.0673 14.8635 59.4173C14.9963 59.622 15.1025 59.6751 15.3322 59.5111C15.5525 59.3517 15.5604 59.247 15.4119 59.0423C15.0213 58.497 14.6463 57.9423 14.2697 57.3861C14.1635 57.2298 14.0775 57.1439 13.8838 57.2782C12.9479 57.9329 12.0104 58.5814 11.065 59.222C10.8182 59.3876 10.9525 59.5126 11.0619 59.6579C11.1729 59.8079 11.2275 60.0298 11.5104 59.8439C11.8791 59.6017 12.2666 59.0657 12.6135 59.1954C12.9807 59.3329 13.1822 59.9048 13.4572 60.2861C13.5213 60.3657 13.5572 60.4829 13.7244 60.4736ZM28.8104 72.3048C28.7588 71.6532 28.69 71.172 28.6932 70.6907C28.6963 70.2282 28.3291 70.1751 28.0729 70.1861C27.801 70.1986 27.9729 70.5095 27.9822 70.6782C28.0166 71.3111 28.0885 71.9407 28.1322 72.5736C28.1822 73.3079 27.8947 73.5595 27.1729 73.3736C26.9041 73.3048 26.9135 73.4892 26.8369 73.6064C26.7432 73.747 26.7604 73.8579 26.9229 73.9642C27.3588 74.2501 27.926 74.2595 28.2744 73.8798C29.1041 72.9767 29.8979 72.0392 30.7088 71.1157C30.2713 70.8079 29.9463 70.8126 29.6541 71.2704C29.4447 71.6017 29.1588 71.8845 28.8104 72.3048ZM22.6744 67.5939C21.9182 67.5939 21.2994 68.2267 21.3088 68.9892C21.3197 69.7548 22.0479 70.4642 22.8369 70.4579C23.0088 70.4564 23.3025 70.5376 23.3025 70.2626C23.3025 70.0236 23.1869 69.7907 22.8182 69.8376C22.4229 69.8892 22.1213 69.6845 21.9744 69.2986C21.9291 69.1782 21.8947 69.0345 22.0166 68.9486C22.1182 68.8751 22.2197 68.9782 22.3104 69.0314C22.7166 69.2704 23.1291 69.4986 23.5229 69.7548C23.7604 69.9095 23.8604 69.8314 23.9775 69.6111C24.4916 68.6329 23.8275 67.5939 22.6744 67.5939ZM57.1025 70.4345C57.4744 70.4267 57.9494 70.1611 58.2494 69.6345C58.3275 69.5001 58.5619 69.2814 58.2635 69.147C58.0604 69.0579 57.8307 69.0173 57.7025 69.3532C57.551 69.7423 57.215 69.9236 56.7791 69.8517C56.6682 69.8329 56.5541 69.7861 56.5197 69.6798C56.476 69.5407 56.6182 69.5064 56.7057 69.4532C57.1244 69.2017 57.5432 68.9439 57.9697 68.7079C58.1854 68.5892 58.1838 68.4767 58.0588 68.2814C57.6869 67.6986 57.0729 67.4611 56.4682 67.6907C55.7932 67.9501 55.365 68.6798 55.4994 69.3361C55.6447 70.0017 56.1807 70.4376 57.1025 70.4345ZM60.9275 65.022C60.915 65.7657 61.5463 66.422 62.2822 66.4329C63.0822 66.4454 63.8557 65.6954 63.8744 64.8876C63.8932 64.1126 63.2979 63.5017 62.5244 63.4986C61.6916 63.4939 60.9416 64.2079 60.9275 65.022ZM16.1479 62.3673C16.1494 61.5314 15.4369 60.7876 14.6213 60.772C13.8666 60.7579 13.2182 61.3814 13.2166 62.1236C13.215 62.9423 13.9541 63.7142 14.7525 63.7298C15.4994 63.7439 16.1463 63.1126 16.1479 62.3673ZM44.9088 74.622C45.4307 74.6345 45.7635 74.5329 45.8932 73.9532C46.0932 73.0548 46.3947 72.1782 46.6479 71.2923C46.8588 70.547 46.7104 70.3689 45.9807 70.4954C45.4104 70.5939 44.8432 70.7126 44.2697 70.7923C44.0088 70.8282 43.8807 70.8876 43.9416 71.1923C44.0041 71.5111 44.1822 71.4861 44.415 71.4361C44.7338 71.3689 45.0588 71.3314 45.376 71.2595C45.7822 71.1657 45.976 71.1767 45.7947 71.6986C45.4666 72.6501 45.2057 73.6236 44.9088 74.622ZM68.6354 59.4126C68.6338 58.9111 68.2979 58.5439 67.8947 58.5548C67.5197 58.5657 67.2822 58.8361 67.0229 59.0611C66.8822 59.1829 66.7244 59.4407 66.5354 59.2392C66.3275 59.0189 66.5369 58.8111 66.7213 58.6532C66.7744 58.6079 66.8541 58.5954 66.915 58.5564C67.1479 58.4079 67.0463 58.1673 66.9838 58.0204C66.8947 57.8064 66.6932 57.9626 66.5713 58.0376C66.1666 58.2892 65.9088 58.6564 65.84 59.1314C65.79 59.4626 65.9088 59.7361 66.2025 59.9204C66.5057 60.1126 66.7916 60.0595 67.0557 59.8439C67.2385 59.6954 67.4072 59.5314 67.5869 59.3767C67.6885 59.2876 67.8119 59.2282 67.9322 59.3142C68.0744 59.4142 68.0479 59.5673 67.9947 59.7095C67.9119 59.9298 67.7416 60.0657 67.5275 60.1314C67.1822 60.2361 67.3291 60.4923 67.3869 60.6595C67.4885 60.9532 67.6932 60.7486 67.8213 60.6704C68.3166 60.3704 68.5822 59.9142 68.6354 59.4126ZM26.5354 72.3751C26.7135 72.3767 26.7182 72.2189 26.7635 72.1126C27.2213 71.0314 27.6666 69.9439 28.1291 68.8642C28.2338 68.6236 28.1869 68.5173 27.9463 68.4204C27.7072 68.3236 27.5744 68.3001 27.4572 68.5923C27.0244 69.6642 26.5635 70.7236 26.1182 71.7907C25.99 72.1017 26.2119 72.4001 26.5354 72.3751ZM18.276 64.0329C18.215 63.8626 18.09 63.7454 17.9385 63.6954C17.6682 63.6079 17.4588 63.5407 17.3572 63.1954C17.2635 62.8829 16.9963 62.8173 16.7197 63.1407C16.3307 63.5907 15.89 63.9986 15.476 64.4282C15.3275 64.5829 15.0838 64.6861 15.376 64.9814C15.6697 65.2782 15.815 65.1361 16.0104 64.9173C16.1775 64.7282 16.3525 64.5454 16.5354 64.3689C16.9869 63.9298 17.2182 63.922 17.69 64.3267C17.7791 64.4032 17.84 64.5564 17.9838 64.4095C18.0947 64.2923 18.2385 64.2032 18.276 64.0329ZM23.9182 71.0501C23.94 71.2798 24.1572 71.2814 24.2994 71.3689C24.4775 71.4782 24.5604 71.3782 24.6291 71.2282C24.7775 70.9157 24.9213 70.6032 25.0807 70.2986C25.3338 69.8189 25.6072 69.7204 26.1057 69.9501C26.2713 70.0267 26.3604 70.0892 26.4869 69.8814C26.7182 69.4986 26.5447 69.3486 26.1932 69.2986C25.9229 69.2595 25.6729 69.3111 25.4713 68.9954C25.3291 68.7736 24.9916 68.6751 24.851 69.1329C24.7729 69.3907 24.615 69.622 24.4947 69.8657C24.3072 70.2532 24.1182 70.6454 23.9182 71.0501Z" fill="#899195" stroke="#899195" stroke-width="0.9375" stroke-miterlimit="10"/>
<path d="M32.6697 42.7222C35.9947 42.7222 38.2259 44.9378 38.2197 48.2331C38.2119 51.4878 35.8228 53.83 32.5369 53.805C29.3025 53.78 27.0447 51.5315 27.0337 48.3269C27.0228 44.9534 29.265 42.7222 32.6697 42.7222ZM36.2244 48.3269C36.2056 47.2472 35.965 46.3815 35.3447 45.6659C34.3837 44.5597 33.14 44.2284 31.7478 44.5409C30.3165 44.8612 29.454 45.8253 29.1275 47.2269C28.6619 49.2331 29.6197 51.219 31.2915 51.8331C33.8244 52.7675 36.2337 50.9815 36.2244 48.3269Z" fill="#899195"/>
<path d="M57.3991 52.0548C58.5882 52.0548 59.7773 52.0485 60.9679 52.0563C61.8007 52.0626 61.6788 51.9548 61.6851 52.7782C61.6913 53.8048 61.6866 53.8048 60.671 53.8048C58.6741 53.8048 56.6788 53.7938 54.6835 53.8142C54.2944 53.8173 54.2179 53.6954 54.196 53.3251C54.1632 52.7485 54.3523 52.3579 54.7898 51.9751C56.0023 50.9095 57.2007 49.8267 58.2366 48.5798C58.7507 47.961 59.196 47.3017 59.3163 46.4782C59.4976 45.2579 58.821 44.4251 57.5929 44.3407C56.7538 44.2845 56.0226 44.5782 55.3554 45.0376C55.1116 45.2048 54.9866 45.2157 54.9007 44.9142C54.8663 44.7923 54.8101 44.6767 54.7601 44.561C54.3819 43.6579 54.3819 43.6595 55.2804 43.211C56.2444 42.7282 57.2694 42.536 58.3398 42.636C60.7851 42.8642 62.0898 45.0501 61.1851 47.4017C60.6194 48.872 59.5054 49.922 58.4054 50.9798C58.0679 51.3032 57.7116 51.6048 57.3648 51.9188C57.3773 51.9626 57.3882 52.0079 57.3991 52.0548Z" fill="#899195"/>
<path d="M22.6088 42.7191C23.6853 42.7051 24.5884 42.9598 25.4134 43.5176C25.7181 43.7238 25.7431 43.8973 25.4572 44.1269C25.3463 44.2176 25.2509 44.3316 25.1525 44.4363C24.9306 44.6738 24.7494 45.0004 24.4744 45.1316C24.1353 45.2941 23.99 44.8269 23.7088 44.7051C23.0463 44.4176 22.3838 44.3457 21.6994 44.5769C21.19 44.7488 20.8806 45.1035 20.8244 45.6473C20.7681 46.1848 21.0463 46.5519 21.4931 46.791C21.7791 46.9441 22.0869 47.0566 22.3916 47.1691C22.8509 47.3363 23.3228 47.4676 23.7775 47.6504C25.1869 48.2191 25.8134 49.0879 25.8103 50.4254C25.8072 51.8504 25.1041 52.9644 23.7525 53.4551C22.0041 54.0894 20.3338 53.9176 18.8306 52.7316C18.5447 52.5051 18.4009 52.2941 18.7963 52.0363C18.8853 51.9785 18.9509 51.8848 19.0291 51.8098C19.2916 51.5598 19.5166 51.1863 19.8259 51.0941C20.1353 51.0004 20.3041 51.4848 20.5869 51.6535C21.3384 52.1019 22.1119 52.2144 22.9244 51.8691C23.4463 51.6473 23.7947 51.2644 23.8119 50.6754C23.8306 50.1066 23.5088 49.7285 23.0244 49.4723C22.2509 49.0644 21.3759 48.9191 20.5869 48.5551C19.0181 47.8285 18.4041 46.3082 19.0556 44.716C19.4416 43.7676 20.215 43.2566 21.1463 42.9551C21.6431 42.7863 22.1634 42.6879 22.6088 42.7191Z" fill="#899195"/>
<path d="M39.2822 48.2675C39.3025 44.1331 43.2541 41.4847 46.94 43.1456C47.4775 43.3878 47.9291 43.7472 48.3432 44.1597C48.5088 44.3253 48.5307 44.4534 48.3088 44.5784C48.2307 44.6222 48.1635 44.6862 48.09 44.7393C47.7822 44.9643 47.4994 45.2972 47.1557 45.3768C46.8104 45.4565 46.5885 45.0097 46.29 44.8284C44.8354 43.9456 42.6994 44.5753 41.7729 46.18C40.94 47.6206 41.1604 49.7175 42.265 50.969C43.2479 52.0831 45.4963 52.6925 46.9025 51.1222C47.1463 50.8487 47.3322 50.8018 47.6088 51.0581C47.7807 51.2175 47.9932 51.33 48.1854 51.4659C48.8635 51.9487 48.8822 51.9706 48.2291 52.5393C46.5619 53.9925 44.6494 54.1081 42.665 53.3972C40.665 52.68 39.6025 51.1643 39.3322 49.0784C39.2963 48.8128 39.2979 48.5378 39.2822 48.2675Z" fill="#899195"/>
<path d="M38.954 34.2189C35.4759 34.2095 33.179 31.4939 33.9103 28.2361C34.1822 27.0267 34.8947 26.1064 35.9103 25.4236C38.0587 23.9814 41.2869 24.3548 42.9478 26.2064C43.2275 26.5158 43.2462 26.6658 42.8837 26.9501C42.4462 27.2923 42.2259 27.2845 41.804 26.8736C40.615 25.7142 39.1478 25.5189 37.6072 26.0158C36.2134 26.4673 35.3806 27.4517 35.1384 28.9158C34.8009 30.9548 36.4197 32.8767 38.5962 33.0251C39.9165 33.1142 41.0665 32.7626 42.0134 31.8064C42.529 31.2845 42.7634 31.9454 43.0744 32.1189C43.4447 32.3251 43.054 32.5158 42.929 32.6501C41.8509 33.7829 40.4869 34.2204 38.954 34.2189Z" fill="#899195"/>
<path d="M54.5542 24.2456C55.3604 25.8675 56.112 27.3706 56.8573 28.88C57.612 30.4081 58.3589 31.9378 59.1089 33.4675C59.3808 34.0237 59.3729 33.9706 58.7886 34.0394C58.162 34.1159 57.8355 33.8831 57.5995 33.3206C57.3276 32.669 56.9589 32.0612 56.6589 31.4222C56.5323 31.1534 56.3667 31.0597 56.0714 31.0628C55.037 31.0769 54.0058 31.0769 52.9714 31.0612C52.6683 31.055 52.523 31.18 52.3995 31.4409C52.073 32.1284 51.687 32.7862 51.3823 33.4831C51.1933 33.9175 50.9354 34.0925 50.4729 34.0315C50.2308 33.9987 49.9808 34.0253 49.6479 34.0253C51.2886 30.7534 52.8948 27.5519 54.5542 24.2456ZM55.8995 29.8815C55.4276 28.9456 55.0058 28.1112 54.5448 27.1972C54.1151 28.0409 53.7198 28.8112 53.3308 29.58C53.2308 29.7784 53.2792 29.8831 53.5198 29.8815C54.2792 29.8769 55.037 29.8815 55.8995 29.8815Z" fill="#899195"/>
<path d="M25.4304 24.2314C25.6929 24.7674 25.9022 25.2018 26.1163 25.6346C27.4241 28.2846 28.7241 30.9361 30.046 33.5783C30.2522 33.9908 30.146 34.0143 29.7429 34.0549C29.0366 34.1268 28.6632 33.8611 28.4179 33.2049C28.1851 32.5814 27.8163 32.008 27.5304 31.4033C27.4116 31.1533 27.2585 31.0643 26.9851 31.0674C25.9335 31.0814 24.8819 31.0846 23.8304 31.0674C23.5507 31.0643 23.4147 31.1643 23.2976 31.408C22.9632 32.1127 22.5788 32.7924 22.2585 33.5018C22.0772 33.8986 21.8522 34.1049 21.3976 34.0361C21.1507 34.0002 20.8944 34.0283 20.5366 34.0283C22.171 30.7533 23.7741 27.5424 25.4304 24.2314ZM25.4257 27.1955C24.9569 28.1221 24.5319 28.9658 24.0694 29.8799C24.9241 29.8799 25.6835 29.8783 26.4413 29.8814C26.6601 29.883 26.7476 29.8252 26.6304 29.5971C26.2397 28.8283 25.8569 28.0549 25.4257 27.1955Z" fill="#899195"/>
<path d="M44.9057 29.36C44.9057 27.9631 44.9151 26.5663 44.8994 25.1709C44.8963 24.8459 44.9822 24.7163 45.3244 24.7272C46.4291 24.7584 47.5401 24.7069 48.6416 24.7897C50.5635 24.9319 51.5947 26.3256 51.1072 28.0631C50.8166 29.0928 50.0307 29.56 49.0385 29.7506C48.2494 29.9022 47.4479 29.8631 46.651 29.8694C46.2979 29.8709 46.1838 29.9741 46.1916 30.3366C46.2151 31.4053 46.1666 32.4772 46.2119 33.5459C46.2369 34.1272 45.8885 34.0334 45.5557 34.0303C45.2276 34.0288 44.876 34.1413 44.8932 33.5522C44.9338 32.1538 44.9057 30.7569 44.9057 29.36ZM46.1994 27.285C46.1994 27.6303 46.1994 27.9725 46.1994 28.3178C46.1994 28.4834 46.1932 28.6678 46.4322 28.66C47.2619 28.6366 48.1026 28.7756 48.9182 28.5444C49.5447 28.3678 49.9088 27.8616 49.8963 27.2631C49.8838 26.6725 49.4791 26.2038 48.8526 26.0381C48.426 25.9256 47.9901 25.9444 47.5572 25.9428C46.1994 25.9381 46.1994 25.9413 46.1994 27.285Z" fill="#899195"/>
<path d="M32.2634 29.364C32.2634 30.7594 32.2337 32.1562 32.2774 33.55C32.2962 34.139 31.9477 34.0265 31.6212 34.0265C31.2946 34.0265 30.9509 34.1422 30.9571 33.5531C30.9868 30.7625 30.9759 27.9734 30.9602 25.1828C30.9587 24.8219 31.0727 24.714 31.4274 24.7265C32.4352 24.7594 32.2524 24.6265 32.2587 25.5625C32.2712 26.8281 32.2634 28.0969 32.2634 29.364Z" fill="#899195"/>
<path d="M21.0542 38.499C33.6776 38.499 46.3011 38.499 58.9261 38.499C58.9261 38.5115 58.9261 38.5271 58.9261 38.5396C46.3073 38.5396 33.687 38.5396 21.0667 38.5396C21.062 38.5256 21.0573 38.5131 21.0542 38.499Z" fill="#899195"/>
<path d="M26.2745 9.23961C26.2652 10.2912 25.3464 11.1787 24.2558 11.1834C23.2074 11.1896 22.2667 10.2006 22.2839 9.11305C22.3011 8.02555 23.2292 7.17243 24.3714 7.19274C25.4324 7.21149 26.2839 8.12868 26.2745 9.23961ZM24.298 10.7006C25.1042 10.7099 25.7808 10.0818 25.8058 9.30368C25.8339 8.46305 25.0839 7.63805 24.2808 7.62555C23.4777 7.61305 22.7761 8.30211 22.7824 9.09743C22.7886 9.96149 23.4777 10.6912 24.298 10.7006Z" fill="#D8DBF4"/>
<path d="M31.207 8.16876C30.2805 9.05157 29.1492 8.85938 28.8367 7.81094C28.5617 6.89219 29.2539 6.06094 30.2117 6.17032C30.3976 6.19219 30.557 6.29688 30.6898 6.01407C30.7773 5.82813 30.9961 5.87188 31.0726 6.12657C31.3023 6.89063 31.5617 7.64688 31.7617 8.41876C31.8836 8.88907 31.7555 9.33438 31.3367 9.62813C30.8523 9.96719 30.3101 10.0766 29.732 9.89376C29.6086 9.85469 29.4898 9.78751 29.5664 9.61876C29.6195 9.50001 29.6742 9.38126 29.8461 9.44063C29.9476 9.47501 30.0539 9.50938 30.1601 9.52501C31.0586 9.64844 31.5289 9.06407 31.207 8.16876ZM30.132 6.54063C29.6648 6.53907 29.2414 6.94063 29.2351 7.39063C29.2258 7.89063 29.6242 8.31563 30.107 8.32657C30.6055 8.33751 30.9758 7.98126 30.9789 7.48594C30.982 6.95782 30.6117 6.54376 30.132 6.54063Z" fill="#D8DBF4"/>
<path d="M70.2574 28.2674C69.9715 27.9908 70.0153 27.7642 70.2074 27.5174C70.4762 27.1767 70.7184 26.8158 70.9887 26.4736C71.134 26.2892 71.1418 26.1236 71.0215 25.9314C70.8778 25.7033 70.7121 25.8252 70.5496 25.8908C70.2465 26.0127 69.9481 26.1392 69.6449 26.2611C69.5043 26.3174 69.3715 26.372 69.3028 26.1611C69.2449 25.983 69.3153 25.8908 69.4746 25.8252C70.4606 25.4174 71.4496 25.0111 72.4324 24.5939C72.6278 24.5111 72.7278 24.5424 72.8012 24.7455C72.9528 25.1705 73.1481 25.583 73.2715 26.0158C73.3996 26.4611 73.2574 26.8439 72.8434 27.0861C72.4481 27.3174 72.0184 27.3595 71.6903 27.0189C71.3824 26.6986 71.2621 26.8767 71.0903 27.1236C70.8215 27.5049 70.5418 27.8767 70.2574 28.2674ZM72.8262 26.1752C72.834 25.7908 72.4856 25.0814 72.3324 25.1611C72.0184 25.3236 71.5074 25.2595 71.4278 25.6924C71.3512 26.108 71.934 26.7955 72.2559 26.7642C72.5934 26.733 72.8293 26.558 72.8262 26.1752Z" fill="#D8DBF4"/>
<path d="M8.77578 31.361C7.83516 30.5344 6.8961 29.711 5.95703 28.8907C5.82422 28.7735 5.74766 28.6516 5.81485 28.4641C5.87579 28.2985 5.99922 28.2641 6.15235 28.2485C7.26954 28.1422 8.38828 28.0297 9.50547 27.9329C9.63672 27.9219 9.87266 27.8032 9.88516 28.0641C9.89453 28.2376 9.79922 28.461 9.56797 28.4251C8.7836 28.3016 8.63828 28.836 8.51016 29.4047C8.48672 29.511 8.45703 29.6188 8.41016 29.7141C8.22266 30.0969 8.28672 30.3969 8.66172 30.6344C8.93203 30.8032 9.0961 31.0297 8.77578 31.361ZM6.39922 28.6954C6.90078 29.1251 7.26797 29.4438 7.64141 29.7532C7.71485 29.8157 7.8461 29.9407 7.90703 29.7954C8.05235 29.4469 8.1586 29.0829 8.26953 28.7219C8.30391 28.6126 8.22579 28.561 8.11954 28.5563C8.0836 28.5547 8.0461 28.5501 8.01172 28.5547C7.53203 28.5938 7.05235 28.6376 6.39922 28.6954Z" fill="#D8DBF4"/>
<path d="M8.08681 43.0843C8.10712 43.3312 7.98524 43.3265 7.81806 43.2671C6.69306 42.8593 5.56337 42.4624 4.44462 42.0406C4.14306 41.9281 4.13681 41.5781 4.42743 41.4265C5.44149 40.8984 6.46337 40.3874 7.48524 39.8765C7.59462 39.8218 7.75087 39.6499 7.84462 39.8562C7.91649 40.0109 7.93837 40.2593 7.70556 40.3156C6.91024 40.5093 7.05087 41.0796 7.06962 41.6687C7.08681 42.2343 7.15712 42.6656 7.81806 42.7577C7.98837 42.7812 8.11962 42.889 8.08681 43.0843ZM4.83837 41.7202C5.42899 41.9296 5.89774 42.1015 6.36806 42.2593C6.46181 42.2906 6.63368 42.3421 6.63993 42.2062C6.65712 41.8312 6.62587 41.4531 6.60087 41.0781C6.59306 40.9671 6.49931 40.9437 6.39774 40.9734C6.36337 40.9843 6.33056 40.9968 6.29774 41.0124C5.85243 41.2296 5.40556 41.4437 4.83837 41.7202Z" fill="#D8DBF4"/>
<path d="M71.5649 32.2922C71.193 32.3594 70.8242 32.4203 70.4586 32.4922C70.3055 32.5235 70.1664 32.5563 70.1164 32.3547C70.0539 32.1172 70.2211 32.0828 70.3899 32.0516C71.3852 31.8625 72.3805 31.6766 73.3758 31.4828C73.6821 31.4219 73.8742 31.4953 73.7024 31.8282C73.618 31.9922 73.6899 32.0438 73.7571 32.1469C74.1867 32.8157 74.1649 33.4047 73.7008 33.8719C73.2711 34.3047 72.5758 34.3969 72.0508 34.0938C71.4946 33.7735 71.3414 33.2297 71.5821 32.436C71.5852 32.4063 71.5711 32.3703 71.5649 32.2922ZM73.6492 32.936C73.6571 32.4844 73.2555 32.0641 72.8008 32.0485C72.2852 32.0297 71.818 32.4438 71.8164 32.9219C71.8149 33.4016 72.1805 33.7797 72.6633 33.7922C73.2086 33.8063 73.6414 33.4313 73.6492 32.936Z" fill="#D8DBF4"/>
<path d="M11.5026 24.3488C11.4526 24.9941 11.237 25.441 10.7948 25.7551C10.6495 25.8598 10.4588 26.0707 10.2948 25.8051C10.162 25.5894 10.2932 25.4551 10.5104 25.3488C10.8229 25.1957 10.9932 24.9191 11.0307 24.5707C11.0604 24.2941 10.9635 24.0707 10.7151 23.9285C10.4745 23.7894 10.2526 23.8676 10.062 24.0269C9.85414 24.2019 9.67133 24.4066 9.47133 24.5879C9.00883 25.0035 8.59164 25.0598 8.14164 24.7551C7.69164 24.4488 7.59945 24.016 7.72914 23.5098C7.82758 23.1238 8.0307 22.8082 8.37133 22.6019C8.48226 22.5348 8.63695 22.3394 8.76664 22.6035C8.85102 22.7754 8.85101 22.9019 8.6432 22.9957C8.33539 23.1348 8.19164 23.4019 8.14945 23.7269C8.11664 23.9785 8.1807 24.1941 8.41195 24.3348C8.64477 24.4769 8.86351 24.441 9.06351 24.2691C9.33695 24.0316 9.59164 23.7738 9.87445 23.5473C10.2041 23.2816 10.5729 23.2644 10.9416 23.4723C11.3213 23.6879 11.5104 24.0176 11.5026 24.3488Z" fill="#D8DBF4"/>
<path d="M58.1588 12.111C58.3525 12.1126 58.6463 11.9563 58.6401 12.3204C58.6338 12.6501 58.3151 12.5516 58.1369 12.561C57.2635 12.6047 56.3885 11.8704 56.2463 11.0032C56.0838 10.0188 56.6963 9.00943 57.6447 8.6938C58.4713 8.42036 59.4916 8.81724 59.8807 9.58599C59.9588 9.74068 60.1557 9.96568 59.9166 10.1032C59.6838 10.236 59.5588 10.0719 59.4557 9.82661C59.2354 9.30161 58.6526 8.99849 58.1369 9.07505C57.4604 9.17661 56.8775 9.72036 56.7541 10.3641C56.5697 11.3454 57.2104 12.1422 58.1588 12.111Z" fill="#D8DBF4"/>
<path d="M8.18853 35.6552C8.1854 36.5459 7.76353 37.2006 7.05259 37.4912C6.27446 37.8115 5.35415 37.6396 4.77915 37.0646C4.25259 36.5396 4.08228 35.6881 4.37915 34.9943C4.45103 34.8302 4.54634 34.6693 4.66509 34.5349C4.75571 34.4302 4.85259 34.2177 5.04946 34.4146C5.21196 34.5756 5.16978 34.6974 5.02759 34.8724C4.5229 35.4959 4.55884 36.1365 5.09165 36.6693C5.65884 37.2365 6.54634 37.3224 7.1854 36.8724C7.75259 36.4724 7.92603 35.7146 7.58696 35.0756C7.48696 34.8881 7.26978 34.674 7.56978 34.5334C7.84165 34.4068 7.91196 34.7162 8.01353 34.8865C8.16509 35.1459 8.21821 35.4318 8.18853 35.6552Z" fill="#D8DBF4"/>
<path d="M6.99796 31.9504C6.9964 31.9863 6.99015 32.0238 6.99171 32.0597C7.01203 32.3644 6.70421 32.7347 6.92921 32.9347C7.1589 33.1379 7.56515 33.1394 7.8964 33.2269C7.96515 33.2457 8.04171 33.241 8.11046 33.2629C8.2714 33.3129 8.49484 33.2957 8.41359 33.5894C8.34171 33.8426 8.17609 33.7535 8.02453 33.7222C7.15421 33.5457 6.28546 33.3722 5.41671 33.1847C4.66671 33.0222 4.66515 33.0144 4.8339 32.2441C4.88703 31.9972 4.94171 31.7457 5.03703 31.5129C5.27765 30.9254 5.66828 30.7207 6.23859 30.8504C6.74796 30.9676 7.0089 31.3472 6.99796 31.9504ZM6.5589 32.0816C6.57765 31.6144 6.36359 31.3379 6.00109 31.3113C5.59484 31.2816 5.24953 31.7238 5.26671 32.3988C5.27921 32.9363 5.80421 32.7801 6.0964 32.8129C6.70734 32.8847 6.3714 32.2832 6.5589 32.0816Z" fill="#D8DBF4"/>
<path d="M11.5616 20.3782C11.6694 20.3876 11.7803 20.386 11.885 20.4094C12.4444 20.5391 12.5006 20.6797 12.1928 21.1688C11.9897 21.4922 11.7881 21.8126 11.5819 22.1313C11.4069 22.4047 11.535 22.4719 11.7991 22.4735C12.2725 22.4797 12.6037 22.1532 12.6506 21.6047C12.6678 21.4126 12.5881 21.1438 12.8975 21.1751C13.1397 21.1985 13.0741 21.4563 13.0725 21.6235C13.0694 22.211 12.6366 22.761 12.0834 22.9094C11.5366 23.0532 10.8537 22.7438 10.5584 22.2141C10.2975 21.7438 10.3928 21.111 10.7866 20.7094C11.0006 20.4969 11.2475 20.3626 11.5616 20.3782ZM10.8069 21.5797C10.8194 21.7907 10.86 22.0282 11.06 22.0844C11.235 22.1344 11.2819 21.8891 11.3725 21.761C11.4772 21.6126 11.5912 21.4657 11.6553 21.3001C11.7116 21.1563 11.9959 21.0251 11.7678 20.8547C11.6084 20.736 11.3819 20.7813 11.2037 20.9016C10.9647 21.0672 10.8428 21.3032 10.8069 21.5797Z" fill="#D8DBF4"/>
<path d="M19.9683 13.583C20.4371 13.5252 20.7277 13.2924 20.8308 12.8517C20.8667 12.6986 20.9589 12.6424 21.1074 12.6705C21.2933 12.7096 21.2496 12.8486 21.2339 12.9721C21.1714 13.4642 20.548 13.9986 19.998 14.0377C19.4496 14.0736 18.8449 13.6205 18.6621 13.0314C18.4855 12.4642 18.7402 11.8424 19.273 11.5502C19.7933 11.2642 20.3167 11.3799 20.7386 11.8346C20.9308 12.0408 20.8949 12.1517 20.6855 12.2971C20.373 12.5142 20.0714 12.7455 19.7761 12.9846C19.6574 13.0799 19.4371 13.1486 19.4933 13.3377C19.5605 13.5596 19.8042 13.5377 19.9683 13.583ZM19.1324 12.9877C19.4839 12.7252 19.7996 12.4861 20.1183 12.2533C20.3496 12.083 20.273 11.9736 20.0636 11.8674C19.7699 11.7174 19.5292 11.8455 19.3152 12.0221C19.0386 12.2502 18.9417 12.5424 19.1324 12.9877Z" fill="#D8DBF4"/>
<path d="M70.6211 29.7735C70.618 29.0532 71.0867 28.5407 71.7602 28.4438C72.4695 28.3423 73.0274 28.6985 73.2117 29.3751C73.3742 29.9688 73.107 30.4782 72.532 30.7501C72.2367 30.8892 72.1102 30.8173 72.032 30.5142C71.9274 30.111 71.7961 29.7142 71.6695 29.3173C71.6383 29.2188 71.5914 29.0751 71.5195 29.0532C71.3899 29.011 71.2945 29.1407 71.2149 29.2392C70.932 29.5907 70.9789 30.0313 71.3539 30.411C71.4774 30.5392 71.7039 30.6485 71.5383 30.8407C71.3461 31.061 71.1742 30.822 71.0445 30.711C70.7383 30.4517 70.6477 30.0798 70.6211 29.7735ZM72.857 29.6751C72.8164 29.4501 72.7664 29.2392 72.6039 29.0751C72.4555 28.9251 72.2633 28.7892 72.0758 28.8829C71.8508 28.9985 72.0524 29.1985 72.0867 29.3548C72.143 29.6017 72.2289 29.8423 72.3024 30.0845C72.3758 30.3251 72.5024 30.3032 72.6524 30.1532C72.7883 30.022 72.8445 29.8532 72.857 29.6751Z" fill="#D8DBF4"/>
<path d="M43.4664 5.81472C43.5961 5.75222 43.9227 6.01003 43.9399 5.64753C43.9539 5.33503 43.6649 5.2616 43.3977 5.23191C43.1945 5.21003 43.0024 5.2491 42.818 5.33816C42.668 5.4116 42.5742 5.33972 42.5227 5.20378C42.4695 5.06628 42.5695 5.00066 42.668 4.95535C43.1242 4.7491 43.5867 4.7366 44.0274 4.9866C44.3914 5.19441 44.4399 5.55691 44.4102 5.93503C44.3774 6.35066 44.3367 6.76472 44.3024 7.18035C44.2899 7.33191 44.2258 7.55378 44.0758 7.44441C43.7711 7.21941 43.507 7.38972 43.2227 7.41316C42.6805 7.45535 42.2445 7.17566 42.1852 6.7491C42.118 6.26941 42.4336 5.93191 43.043 5.84285C43.1664 5.82722 43.2945 5.82722 43.4664 5.81472ZM43.4055 6.20378C43.0524 6.21785 42.6774 6.21003 42.6492 6.6491C42.6274 6.96628 42.9242 7.06003 43.1805 7.06316C43.5695 7.07097 43.857 6.85535 43.8961 6.47097C43.9352 6.06316 43.5602 6.28816 43.4055 6.20378Z" fill="#D8DBF4"/>
<path d="M69.0772 20.8531C69.0757 21.564 68.4882 22.1343 67.7491 22.1422C67.0366 22.15 66.4241 21.5281 66.4132 20.7859C66.4038 20.0797 67.0569 19.439 67.7726 19.4468C68.4663 19.4593 69.0788 20.1187 69.0772 20.8531ZM68.6569 20.7797C68.646 20.3062 68.2569 19.9218 67.7851 19.9265C67.296 19.9281 66.8116 20.3922 66.8241 20.8437C66.8351 21.2906 67.2632 21.7078 67.7038 21.7015C68.2022 21.6922 68.6663 21.2422 68.6569 20.7797Z" fill="#D8DBF4"/>
<path d="M49.909 8.77066C49.134 8.76441 48.52 8.18316 48.5309 7.46284C48.5434 6.71909 49.109 6.13316 49.82 6.12847C50.6012 6.12222 51.2122 6.68316 51.2184 7.40972C51.2262 8.18472 50.659 8.77378 49.909 8.77066ZM50.7653 7.39097C50.7559 6.92534 50.359 6.54722 49.8825 6.54409C49.3793 6.54253 49.0012 6.96597 49.0168 7.51753C49.0278 7.99722 49.4059 8.37222 49.8809 8.37847C50.3418 8.38003 50.7762 7.89878 50.7653 7.39097Z" fill="#D8DBF4"/>
<path d="M73.2118 37.6018C72.4181 37.608 71.9118 37.0877 71.9087 36.269C71.9056 35.4955 72.4681 34.9346 73.2384 34.944C73.9759 34.9533 74.5071 35.5018 74.5243 36.269C74.5384 37.058 74.0103 37.5971 73.2118 37.6018ZM73.2228 35.4096C72.6978 35.4112 72.3196 35.7721 72.3196 36.2721C72.3196 36.8002 72.679 37.1627 73.1962 37.1533C73.7228 37.1455 74.1087 36.783 74.1118 36.2893C74.1196 35.7862 73.7384 35.4096 73.2228 35.4096Z" fill="#D8DBF4"/>
<path d="M60.6149 14.4099C59.8618 14.399 59.2586 13.7943 59.2727 13.0599C59.2868 12.3334 59.8883 11.7474 60.604 11.7615C61.3477 11.7755 61.9571 12.3927 61.9508 13.1255C61.9493 13.8443 61.3461 14.4209 60.6149 14.4099ZM61.5071 13.0584C61.518 12.6099 61.1071 12.1943 60.6493 12.1896C60.1758 12.1865 59.7149 12.6443 59.7086 13.1255C59.7008 13.5709 60.1118 13.9834 60.5727 13.9959C61.0399 14.0084 61.4946 13.5537 61.5071 13.0584Z" fill="#D8DBF4"/>
<path d="M32.2619 7.24516C32.3197 6.67329 32.7666 6.51547 33.2181 6.3436C33.4041 6.27485 33.7994 6.38579 33.7166 6.02954C33.6338 5.67797 33.2806 5.70922 32.9853 5.78579C32.8838 5.81079 32.7822 5.86547 32.6916 5.92485C32.5306 6.02641 32.3556 6.24516 32.201 5.97641C32.0775 5.75922 32.3306 5.67016 32.465 5.5811C33.2869 5.02797 34.0244 5.32329 34.2525 6.29047C34.34 6.66079 34.4072 7.03422 34.5056 7.40141C34.5713 7.64204 34.3635 7.77172 34.2744 7.69516C33.9916 7.45454 33.8853 7.71704 33.715 7.8186C33.365 8.02641 32.9916 8.05141 32.6244 7.88422C32.3681 7.76547 32.2931 7.51391 32.2619 7.24516ZM33.1978 7.6186C33.5838 7.56079 33.876 7.39672 33.9072 6.95454C33.9197 6.7561 33.8869 6.57954 33.6197 6.63735C33.2588 6.71704 32.8228 6.72797 32.7447 7.19672C32.6963 7.47485 32.9306 7.5936 33.1978 7.6186Z" fill="#D8DBF4"/>
<path d="M54.1667 8.40619C54.0714 8.90776 53.7745 9.43276 53.5479 9.98432C53.4979 10.1046 53.4089 10.1359 53.2839 10.0734C53.1464 10.0078 53.0901 9.92963 53.1604 9.77651C53.3214 9.41244 53.4682 9.04213 53.6276 8.67494C53.7792 8.32494 53.8276 7.99057 53.4198 7.79213C53.0307 7.60307 52.6917 7.73744 52.4854 8.09057C52.2932 8.41713 52.1698 8.7812 52.0151 9.12807C51.9511 9.2687 51.9307 9.47963 51.6948 9.39682C51.4729 9.31869 51.5323 9.15463 51.5979 8.99369C51.8401 8.40776 52.0823 7.82182 52.3182 7.23276C52.3839 7.07026 52.5682 6.94526 52.6229 7.08744C52.7932 7.52338 53.1386 7.29213 53.3979 7.35307C53.9214 7.48276 54.1964 7.80619 54.1667 8.40619Z" fill="#D8DBF4"/>
<path d="M35.6679 6.10854C35.7038 6.53042 35.7335 6.87261 35.7648 7.21479C35.7773 7.34917 35.7773 7.47417 35.6007 7.49917C35.4023 7.52729 35.3523 7.41011 35.3351 7.24448C35.2616 6.59761 35.1835 5.94917 35.107 5.30386C35.0866 5.13667 35.1726 4.94136 35.3163 5.04448C35.621 5.26167 35.782 5.03198 36.0007 4.92886C36.6023 4.64604 37.2163 4.92886 37.3413 5.57104C37.4351 6.04917 37.4616 6.54136 37.5179 7.02573C37.532 7.15854 37.5351 7.28354 37.3523 7.30229C37.1663 7.32417 37.0898 7.23354 37.071 7.06011C37.0366 6.71792 36.9929 6.37573 36.9554 6.03511C36.9148 5.64136 36.8679 5.24136 36.3398 5.24917C35.8976 5.25698 35.6413 5.63511 35.6679 6.10854Z" fill="#D8DBF4"/>
<path d="M64.4054 15.08C64.407 15.4409 64.1804 15.68 63.9539 15.9175C63.7023 16.18 63.4492 16.4378 63.2007 16.7034C63.0929 16.819 63.007 16.9097 62.8445 16.7612C62.682 16.6128 62.7679 16.519 62.8757 16.405C63.1507 16.1175 63.4242 15.8253 63.696 15.5331C63.9382 15.2737 64.0992 14.994 63.796 14.6784C63.5164 14.3878 63.1757 14.3518 62.8648 14.594C62.5523 14.8378 62.2851 15.1393 61.9992 15.4159C61.8695 15.5425 61.7445 15.7175 61.5585 15.5003C61.3867 15.3003 61.6085 15.2081 61.7007 15.1065C62.1164 14.6518 62.5476 14.2097 62.9695 13.7612C63.057 13.6675 63.2398 13.5362 63.257 13.6831C63.3195 14.1987 63.8257 14.1175 64.0757 14.3675C64.2742 14.5675 64.4164 14.7862 64.4054 15.08Z" fill="#D8DBF4"/>
<path d="M74.4086 43.35C74.4008 43.6078 74.3367 43.8844 74.1055 44.0953C74.0102 44.1813 73.9055 44.2891 73.7899 44.1344C73.718 44.0391 73.6258 43.9266 73.7586 43.7985C73.8227 43.736 73.8993 43.6703 73.9321 43.5922C74.0336 43.3453 74.0977 43.0547 73.7946 42.9359C73.5118 42.825 73.4539 43.1188 73.3664 43.311C73.3586 43.3281 73.3539 43.3453 73.3477 43.3625C73.2086 43.7656 73.0727 44.1797 72.5368 44.1734C72.218 44.1703 71.9649 44.0063 71.8711 43.7016C71.7274 43.2297 71.7524 42.7641 72.1086 42.3766C72.1946 42.2813 72.3071 42.1234 72.4664 42.2938C72.5836 42.4203 72.5883 42.5469 72.4477 42.6688C72.3368 42.7656 72.2524 42.8906 72.2368 43.0391C72.2118 43.275 72.1711 43.55 72.4446 43.6547C72.7633 43.7781 72.8336 43.4938 72.9258 43.2797C72.9696 43.1797 73.0024 43.075 73.0477 42.9766C73.1977 42.6422 73.3883 42.3469 73.8196 42.4453C74.2618 42.5516 74.4117 42.8828 74.4086 43.35Z" fill="#D8DBF4"/>
<path d="M41.0334 5.0832C40.5631 5.0832 40.2397 5.08477 39.9194 5.08164C39.8084 5.08008 39.6928 5.06133 39.6803 4.9207C39.6616 4.74258 39.7928 4.71289 39.9272 4.71289C40.3787 4.71289 40.8319 4.7207 41.2819 4.72383C41.7163 4.72695 41.6819 4.95508 41.4881 5.20664C41.1569 5.63477 40.7975 6.04258 40.4553 6.46289C40.3803 6.55352 40.2397 6.64414 40.3209 6.7832C40.3819 6.88789 40.5147 6.84414 40.6194 6.84727C40.8553 6.85352 41.0881 6.86445 41.3241 6.87227C41.4506 6.87852 41.5991 6.86602 41.5944 7.05039C41.5913 7.19102 41.4709 7.21289 41.3569 7.21133C40.8334 7.2082 40.3053 7.2332 39.785 7.1832C39.4022 7.14727 39.5553 6.88789 39.6913 6.71758C40.0928 6.21445 40.51 5.7207 41.0334 5.0832Z" fill="#D8DBF4"/>
<path d="M73.2803 40.6846C73.4428 40.6971 73.6068 40.7018 73.7678 40.7236C73.999 40.7549 74.2115 40.7736 74.2147 40.4393C74.2162 40.3283 74.26 40.2189 74.4068 40.2314C74.5459 40.2424 74.5912 40.3549 74.5787 40.4627C74.5459 40.7674 74.7443 40.7721 74.9522 40.7799C75.1256 40.7861 75.2928 40.7986 75.2553 41.0424C75.224 41.2361 75.0881 41.2674 74.9303 41.2268C74.535 41.1268 74.5225 41.383 74.5131 41.6565C74.51 41.7846 74.5037 41.9268 74.3209 41.9205C74.135 41.9143 74.1318 41.7674 74.1537 41.6455C74.2256 41.2377 74.0162 41.1471 73.6631 41.1658C73.4303 41.1783 73.1943 41.1439 72.9584 41.1314C72.6162 41.1127 72.3209 41.1549 72.3725 41.6127C72.3896 41.7471 72.3553 41.8189 72.21 41.8205C72.0756 41.8221 72.0287 41.7361 71.9881 41.6268C71.824 41.183 72.099 40.7221 72.5756 40.6752C72.8084 40.6518 73.0459 40.6721 73.2803 40.6721C73.2803 40.6736 73.2803 40.6783 73.2803 40.6846Z" fill="#D8DBF4"/>
<path d="M16.4606 14.4396C16.4527 13.8692 16.8902 13.3067 17.4652 13.1724C17.6043 13.1396 17.8043 13.013 17.8621 13.2739C17.909 13.4817 17.7543 13.5286 17.5824 13.5911C16.8184 13.8661 16.6668 14.5177 17.2262 15.0505C17.6965 15.4989 18.3434 15.3864 18.609 14.7896C18.6856 14.6161 18.7137 14.4036 18.9574 14.5192C19.1871 14.6302 19.0574 14.838 18.9918 14.9927C18.7652 15.5192 18.0934 15.8739 17.5606 15.7599C16.9621 15.6349 16.4699 15.0427 16.4606 14.4396Z" fill="#D8DBF4"/>
<path d="M15.21 18.044C14.8835 17.4409 14.6413 16.9784 14.385 16.5237C14.2772 16.33 14.2006 16.119 14.4303 16.0112C14.6913 15.8894 14.6819 16.1925 14.7553 16.3206C15.0647 16.8706 15.3475 17.4362 15.6522 17.9894C15.7381 18.1456 15.7819 18.2659 15.646 18.4253C15.5147 18.5784 15.3819 18.58 15.2131 18.5222C14.5803 18.3081 13.946 18.1034 13.3147 17.8815C13.196 17.8394 12.9225 17.8894 13.046 17.6128C13.1256 17.4347 13.271 17.3597 13.4913 17.4409C14.0116 17.6394 14.5381 17.8112 15.21 18.044Z" fill="#D8DBF4"/>
<path d="M46.2226 4.94554C46.118 5.25179 46.3211 5.3096 46.5601 5.34085C46.7039 5.3596 46.8805 5.37054 46.8398 5.57991C46.7976 5.80023 46.6117 5.72366 46.4883 5.68773C46.1726 5.59866 46.0664 5.74554 46.0305 6.02835C45.9914 6.31429 45.9242 6.5971 45.8773 6.88148C45.8258 7.1846 45.8648 7.4346 46.2508 7.45648C46.3805 7.46429 46.5211 7.46585 46.4914 7.65648C46.468 7.81273 46.3508 7.83929 46.2117 7.85179C45.6664 7.90179 45.3461 7.58304 45.4086 7.03304C45.4398 6.76273 45.5164 6.49866 45.5398 6.22991C45.5648 5.93616 45.8461 5.53304 45.257 5.45335C45.1742 5.44241 45.1601 5.3471 45.1742 5.27523C45.2023 5.13616 45.307 5.11429 45.4226 5.1346C45.6414 5.17366 45.7633 5.11116 45.7836 4.86585C45.7976 4.69241 45.8117 4.46898 46.0898 4.53616C46.3351 4.5971 46.2508 4.77991 46.2226 4.94554Z" fill="#D8DBF4"/>
<path d="M65.3184 16.3613C65.2231 16.2113 65.1919 16.1457 65.1466 16.0925C65.0466 15.9754 64.9528 15.866 65.1247 15.7332C65.2809 15.6097 65.3528 15.7504 65.4294 15.8379C65.6106 16.041 65.7419 15.916 65.8809 15.7863C65.9997 15.6785 66.1122 15.5363 66.2809 15.7363C66.4216 15.9035 66.3169 16.005 66.195 16.0879C65.9122 16.2816 65.9153 16.466 66.1731 16.68C66.2747 16.766 66.4153 16.88 66.2309 17.03C66.0497 17.1754 65.9559 17.0082 65.8841 16.9082C65.6762 16.6129 65.4981 16.6675 65.2841 16.9004C65.1387 17.0597 64.9637 17.1925 64.7997 17.3332C64.5075 17.5847 64.2216 17.8347 64.6669 18.1972C64.7512 18.2644 64.7716 18.3394 64.695 18.4254C64.6153 18.5144 64.5294 18.5347 64.4075 18.4863C63.9559 18.3035 63.7966 17.7347 64.1341 17.3722C64.4044 17.0816 64.7137 16.8285 65.0137 16.566C65.1059 16.4847 65.2184 16.4269 65.3184 16.3613Z" fill="#D8DBF4"/>
<path d="M6.00727 39.0624C5.50102 39.0624 4.99477 39.064 4.48852 39.0624C4.32446 39.0624 4.15414 39.0703 4.15727 38.8218C4.15883 38.5828 4.30883 38.5749 4.48383 38.5781C5.51352 38.589 6.54633 38.5999 7.57602 38.6062C7.76977 38.6078 7.94477 38.6078 7.92758 38.8812C7.91352 39.1328 7.74321 39.0968 7.57914 39.0968C7.05414 39.0953 6.53071 39.0968 6.00571 39.0968C6.00727 39.0843 6.00727 39.0734 6.00727 39.0624Z" fill="#D8DBF4"/>
<path d="M71.4662 21.5959C71.4725 21.7678 71.3256 21.7959 71.2225 21.8553C70.2631 22.4053 69.3022 22.9537 68.3412 23.5006C68.185 23.5897 68.0178 23.7068 67.8959 23.449C67.7787 23.2022 68.0053 23.1787 68.1287 23.1084C69.0709 22.5647 70.0178 22.0287 70.9631 21.4897C71.1678 21.3725 71.3616 21.2709 71.4662 21.5959Z" fill="#D8DBF4"/>
<path d="M27.0024 7.29411C27.3415 7.51443 27.3211 7.11599 27.4868 7.04568C27.6524 6.97849 27.7946 6.70661 27.9852 6.91911C28.179 7.13786 27.979 7.23786 27.7868 7.34568C27.429 7.54568 27.3899 7.88161 27.5133 8.23943C27.6243 8.56286 27.7649 8.87536 27.8774 9.20036C27.9243 9.33474 28.0618 9.49411 27.8196 9.60818C27.5727 9.7238 27.543 9.5238 27.4852 9.38943C27.243 8.80818 27.018 8.21911 26.7727 7.6363C26.6508 7.35349 26.7696 7.28474 27.0024 7.29411Z" fill="#D8DBF4"/>
<path d="M12.9287 18.311C12.9037 18.3751 12.8974 18.411 12.8771 18.4391C12.3959 19.0516 12.8365 19.3876 13.2662 19.7204C13.4802 19.8876 13.7006 20.0454 13.9193 20.2048C14.0381 20.2907 14.0896 20.3782 13.9912 20.5204C13.9006 20.6516 13.8131 20.6735 13.6787 20.5751C13.1287 20.1673 12.5724 19.7641 12.0177 19.3594C11.9224 19.2907 11.8349 19.1282 11.9349 19.1048C12.4177 18.9954 12.2865 18.5251 12.4802 18.2532C12.5459 18.1594 12.6209 18.0751 12.7443 18.1485C12.8162 18.1938 12.8724 18.261 12.9287 18.311Z" fill="#D8DBF4"/>
<path d="M67.6916 18.4737C67.7135 18.6002 67.6353 18.6471 67.5588 18.694C67.476 18.7456 67.3916 18.7674 67.3197 18.6768C66.8197 18.0534 66.3807 18.4034 65.9369 18.7596C65.74 18.919 65.5369 19.069 65.3385 19.2252C65.2182 19.319 65.1135 19.3143 65.0135 19.1909C64.9025 19.0518 64.9713 18.9612 65.0807 18.8752C65.6166 18.4471 66.151 18.0174 66.6869 17.5893C66.7635 17.5284 66.9088 17.4956 66.9119 17.5815C66.9228 18.0534 67.3853 18.0909 67.6103 18.3487C67.6463 18.3924 67.6697 18.4393 67.6916 18.4737Z" fill="#D8DBF4"/>
<path d="M73.3884 38.4318C73.6946 38.4318 74.0024 38.4349 74.3087 38.4302C74.4462 38.4286 74.6478 38.4974 74.5665 38.5958C74.3009 38.9115 74.5368 39.138 74.6165 39.4052C74.6618 39.5583 74.7462 39.7896 74.4571 39.8286C74.2149 39.8599 74.2274 39.674 74.2134 39.5036C74.1774 39.0786 73.8868 38.9208 73.5118 38.8958C73.1524 38.874 72.7899 38.888 72.429 38.8833C72.2837 38.8818 72.1274 38.8896 72.1228 38.6755C72.1165 38.4646 72.2634 38.4552 72.4149 38.4552C72.7399 38.4552 73.0665 38.4552 73.3899 38.4552C73.3884 38.449 73.3884 38.4411 73.3884 38.4318Z" fill="#D8DBF4"/>
<path d="M15.2818 15.0205C15.4427 15.1518 15.5287 15.2143 15.6021 15.2861C16.0396 15.7127 16.4771 16.1393 16.9115 16.5721C17.0052 16.6658 17.1693 16.7361 17.0193 16.9189C16.8677 17.1049 16.7474 17.0252 16.6193 16.9002C16.1537 16.4502 15.6896 15.9986 15.2256 15.5471C15.1474 15.4705 15.0662 15.3955 15.1396 15.2705C15.1865 15.1939 15.2287 15.1127 15.2818 15.0205Z" fill="#D8DBF4"/>
<path d="M48.0149 5.85974C47.8524 6.52693 47.6852 7.22693 47.5118 7.92849C47.4774 8.06912 47.3665 8.07068 47.254 8.04412C47.1571 8.02068 47.0805 7.95349 47.1024 7.85193C47.2571 7.14724 47.418 6.44412 47.5836 5.74256C47.6133 5.61443 47.7211 5.58787 47.8415 5.60818C47.9665 5.62537 48.0383 5.69099 48.0149 5.85974Z" fill="#D8DBF4"/>
<path d="M38.8743 6.00962C38.8743 6.31587 38.8727 6.62056 38.8743 6.92681C38.8759 7.07993 38.8665 7.22368 38.6712 7.24712C38.4602 7.27212 38.4415 7.11743 38.4337 6.96743C38.4056 6.32056 38.3821 5.67212 38.3587 5.02525C38.3524 4.87056 38.3806 4.72837 38.5837 4.7315C38.7946 4.73462 38.7884 4.89087 38.7884 5.03775C38.7884 5.36118 38.7884 5.68462 38.7884 6.00806C38.8196 6.00962 38.8462 6.00962 38.8743 6.00962Z" fill="#D8DBF4"/>
<path d="M48.0257 4.37549C48.2148 4.38174 48.3429 4.46924 48.3523 4.66143C48.3632 4.85986 48.2351 4.9583 48.0507 4.96768C47.8835 4.97549 47.7742 4.8708 47.7538 4.71299C47.7288 4.52393 47.846 4.41611 48.0257 4.37549Z" fill="#D8DBF4"/>
<path d="M14.8211 14.5127C14.7929 14.7096 14.6992 14.8268 14.5023 14.8252C14.3039 14.8236 14.2054 14.7033 14.2086 14.5127C14.2117 14.3424 14.3258 14.2439 14.4851 14.2377C14.6726 14.2299 14.7836 14.3408 14.8211 14.5127Z" fill="#D8DBF4"/>
<path d="M38.8104 3.74284C38.8104 3.92097 38.7479 4.04128 38.5714 4.06003C38.3823 4.08034 38.2464 4.00222 38.2339 3.79909C38.2214 3.60065 38.3323 3.49597 38.5276 3.49128C38.7073 3.48815 38.7886 3.5944 38.8104 3.74284Z" fill="#D8DBF4"/>
<path d="M54.3696 70.0316C54.9165 70.3957 55.4243 70.7379 55.9446 71.0863C55.4899 71.4894 55.0868 71.5425 54.6462 71.1222C54.3978 70.8863 54.0915 70.716 53.8149 70.5097C53.6321 70.3754 53.4649 70.4457 53.3165 70.5566C53.1493 70.6847 53.2962 70.8191 53.3477 70.941C53.454 71.191 53.5743 71.4347 53.6931 71.68C53.8056 71.9129 53.9368 72.1019 53.5587 72.2707C53.2056 72.43 53.129 72.2738 53.0118 72.0113C52.5931 71.0691 52.1696 70.1238 51.7196 69.1957C51.579 68.905 51.6337 68.7847 51.9134 68.6754C52.3024 68.5222 52.6727 68.3285 53.0602 68.1754C53.7618 67.9004 54.2712 67.991 54.5899 68.4254C54.9462 68.9144 54.8931 69.3738 54.3696 70.0316ZM53.6024 68.6972C53.304 68.6863 52.504 69.0769 52.5634 69.1863C52.7056 69.4582 52.6853 69.8754 53.0446 69.9629C53.354 70.0394 54.0571 69.4504 54.0446 69.1847C54.029 68.8925 53.8602 68.7254 53.6024 68.6972Z" fill="#D8DBF4"/>
<path d="M21.5256 66.9686C21.5225 67.4389 21.2678 67.7311 21.0366 68.0311C20.8491 68.2749 20.6506 68.5108 20.4694 68.7608C20.3272 68.9561 20.2225 69.0795 19.9647 68.8702C19.7256 68.6749 19.6928 68.5467 19.8991 68.3139C20.1506 68.0295 20.3709 67.717 20.6006 67.4155C20.7959 67.1577 20.8772 66.8983 20.5756 66.6608C20.2944 66.4405 20.0163 66.4999 19.7991 66.7389C19.5194 67.0467 19.2616 67.3764 19.0272 67.7202C18.835 67.9999 18.6975 67.8624 18.5053 67.7327C18.2756 67.5764 18.3006 67.4452 18.46 67.2545C18.7178 66.9499 18.9538 66.6311 19.1975 66.3139C19.3756 66.0811 19.485 65.8311 19.2006 65.6014C18.9178 65.3733 18.6225 65.3827 18.3803 65.6577C18.1178 65.9561 17.8694 66.2702 17.6397 66.5952C17.4741 66.8327 17.3428 66.8233 17.1178 66.6592C16.8741 66.4811 16.8991 66.3499 17.0678 66.142C17.4803 65.6374 17.8897 65.128 18.2663 64.5952C18.4803 64.292 18.7334 64.378 18.8038 64.592C18.9334 64.9749 19.2334 64.9717 19.5116 65.0749C19.7163 65.153 19.9459 65.2999 19.9897 65.4936C20.0944 65.9514 20.3803 66.042 20.7881 66.1249C21.2225 66.2139 21.4928 66.5577 21.5256 66.9686Z" fill="#D8DBF4"/>
<path d="M39.1151 75.0094C38.5214 75.1203 38.1558 74.9687 38.0776 74.3953C38.0386 74.1219 37.8714 74.05 37.6261 74.0437C37.4089 74.0375 37.1901 74.0203 36.9776 73.9812C36.487 73.8922 36.1229 73.964 35.9323 74.5172C35.7683 74.9953 35.3558 74.6656 34.9604 74.7453C35.6558 73.4812 36.2995 72.2906 36.9667 71.114C37.1292 70.8281 37.6558 70.9265 37.7776 71.2594C38.2323 72.5031 38.6667 73.7484 39.1151 75.0094ZM37.323 71.9812C37.0651 72.1219 37.0261 72.3828 36.923 72.5953C36.5386 73.4 36.5401 73.389 37.4323 73.4109C37.7042 73.4187 37.7495 73.3453 37.6683 73.1062C37.5479 72.7453 37.4448 72.3781 37.323 71.9812Z" fill="#D8DBF4"/>
<path d="M50.4478 72.3376C50.4385 73.0798 50.076 73.5829 49.4197 73.7579C48.7525 73.936 48.1963 73.7032 47.8119 73.0595C47.4603 72.4704 47.29 71.8267 47.3197 71.1392C47.3478 70.486 47.7119 70.0267 48.3088 69.8579C48.9213 69.6829 49.4541 69.8689 49.8432 70.3923C50.176 70.8407 50.4541 71.7345 50.4478 72.3376ZM49.7322 72.3032C49.6916 71.7548 49.5572 71.2345 49.2322 70.7829C49.0494 70.5282 48.7994 70.3939 48.4791 70.5001C48.1853 70.597 48.0572 70.8314 48.0416 71.1235C48.0072 71.6798 48.1432 72.2032 48.4213 72.6814C48.5994 72.9892 48.8369 73.2454 49.251 73.122C49.6588 73.0001 49.7135 72.661 49.7322 72.3032Z" fill="#D8DBF4"/>
<path d="M66.4102 62.2052C66.054 62.1208 65.7633 61.8645 65.4899 61.6083C65.1071 61.252 64.7915 61.1239 64.5211 61.7067C64.4915 61.7692 64.4227 61.8114 64.3774 61.8661C63.9805 62.3255 63.9946 62.5942 64.4461 63.0224C64.6555 63.2208 64.8727 63.4146 65.0915 63.6052C65.2633 63.7567 65.4071 63.8646 65.1586 64.1099C64.9477 64.3208 64.829 64.3677 64.6008 64.1442C64.1618 63.7146 63.693 63.3114 63.2383 62.8958C62.9243 62.6083 62.9321 62.2521 63.3133 62.1864C63.6618 62.1255 63.6383 61.9442 63.6946 61.7349C63.768 61.4708 64.0008 61.3427 64.1821 61.1677C64.3961 60.963 64.4993 60.7614 64.1633 60.5771C63.8868 60.4239 63.9086 60.263 64.0899 60.0271C64.2836 59.7755 64.429 59.8302 64.604 60.0146C64.8196 60.2411 64.9946 60.2099 65.1493 59.9458C65.2602 59.7583 65.3711 59.6474 65.6149 59.8302C65.8649 60.0192 65.7665 60.1567 65.6149 60.3067C65.3993 60.5224 65.4055 60.6896 65.6758 60.8599C65.8743 60.9864 66.054 61.1427 66.2321 61.2942C66.4711 61.4989 66.6836 61.5114 66.8649 61.2271C66.9524 61.0896 66.9961 60.9208 67.2165 61.0958C67.4024 61.2458 67.4665 61.3661 67.329 61.5911C67.0977 61.9786 66.7477 62.2411 66.4102 62.2052Z" fill="#D8DBF4"/>
<path d="M59.7915 68.4677C60.0712 68.8458 60.2743 69.1614 60.5196 69.4427C60.7243 69.6786 60.5774 69.7692 60.4102 69.9005C60.2337 70.0349 60.1056 70.1208 59.9306 69.8786C59.2852 68.9833 58.6306 68.0958 57.9618 67.2177C57.6524 66.813 58.1227 66.638 58.2243 66.6614C58.5915 66.7442 58.5977 66.4849 58.7118 66.2942C59.0149 65.7896 59.6634 65.5396 60.2165 65.6974C60.8462 65.8786 61.279 66.4974 61.2571 67.1817C61.2384 67.7724 60.8134 68.2771 60.2196 68.4114C60.1165 68.4333 60.0087 68.438 59.7915 68.4677ZM59.7415 67.938C60.1462 67.9442 60.5618 67.5458 60.5681 67.1489C60.5743 66.7427 60.1665 66.3411 59.7587 66.3505C59.3462 66.3614 58.954 66.7646 58.9634 67.1708C58.9743 67.5677 59.3446 67.9349 59.7415 67.938Z" fill="#D8DBF4"/>
<path d="M33.879 70.4235C34.2259 70.4532 34.5727 70.5032 34.8571 70.7157C35.0009 70.822 35.3524 70.9001 35.1368 71.1626C34.9962 71.3298 34.7587 71.6829 34.4384 71.2954C34.3071 71.136 34.0899 71.1063 33.8915 71.0876C33.6399 71.0641 33.4134 71.122 33.3102 71.3829C33.1946 71.6673 33.3868 71.8266 33.5915 71.9548C33.8352 72.1095 34.0977 72.2376 34.3446 72.3907C34.7352 72.6345 34.9165 72.9876 34.8493 73.4516C34.7805 73.922 34.5368 74.2704 34.0743 74.411C33.404 74.611 32.7774 74.4782 32.2305 74.0485C32.104 73.9501 31.8165 73.7985 32.0712 73.5985C32.2352 73.4704 32.4384 73.1282 32.7384 73.5048C32.9602 73.786 33.2868 73.9173 33.6634 73.8032C34.1087 73.6688 34.2055 73.2938 33.8555 72.9876C33.6805 72.8345 33.4634 72.7282 33.2587 72.6126C32.5884 72.2298 32.368 71.8376 32.5212 71.2688C32.6696 70.7063 33.1759 70.3923 33.879 70.4235Z" fill="#D8DBF4"/>
<path d="M40.7495 75.0849C40.3276 75.0927 40.0323 75.0614 39.7854 74.9036C39.6354 74.8083 39.2808 74.7693 39.4823 74.4739C39.6167 74.2771 39.7917 73.9286 40.1558 74.2739C40.3292 74.438 40.5839 74.4614 40.8245 74.4239C41.0886 74.3818 41.3261 74.2755 41.3776 73.9833C41.4308 73.6708 41.2136 73.5255 40.9604 73.4333C40.6729 73.3271 40.3729 73.2505 40.0854 73.1411C39.6964 72.9927 39.4698 72.7146 39.437 72.288C39.4011 71.8286 39.5604 71.4599 39.9589 71.2318C40.5261 70.9068 41.1276 70.863 41.7308 71.1302C41.8542 71.1849 42.1354 71.2411 41.9792 71.4349C41.8495 71.5958 41.7745 72.0068 41.3808 71.7708C41.2604 71.6974 41.1167 71.638 40.9776 71.6255C40.6542 71.5958 40.3229 71.6536 40.2339 72.0146C40.1401 72.388 40.4479 72.5036 40.7386 72.5911C40.9276 72.6489 41.1198 72.7068 41.3058 72.7739C41.9589 73.0068 42.2026 73.3318 42.1714 73.9208C42.1417 74.4755 41.7589 74.9114 41.1636 75.0458C40.987 75.0771 40.8026 75.0802 40.7495 75.0849Z" fill="#D8DBF4"/>
<path d="M13.7241 60.474C13.5538 60.4849 13.5179 60.3662 13.4585 60.2818C13.1835 59.9005 12.9804 59.3302 12.6147 59.1912C12.2694 59.0615 11.8804 59.5958 11.5116 59.8396C11.2288 60.0255 11.1757 59.8037 11.0632 59.6537C10.9538 59.5083 10.8226 59.3833 11.0663 59.2177C12.0132 58.5802 12.9507 57.9287 13.8851 57.274C14.0788 57.1396 14.1663 57.224 14.271 57.3818C14.6444 57.938 15.0226 58.4927 15.4132 59.038C15.5585 59.2427 15.5538 59.3505 15.3335 59.5068C15.1038 59.6708 14.9976 59.6177 14.8647 59.413C14.6366 59.0646 14.3772 58.7365 14.1647 58.3771C13.9835 58.0724 13.8069 58.1958 13.6554 58.3583C13.5069 58.5177 13.0397 58.5146 13.3288 58.9287C13.546 59.2412 13.7679 59.5505 13.9741 59.8693C14.0366 59.9646 14.2007 60.063 14.0897 60.1927C13.9897 60.3177 13.8335 60.3943 13.7241 60.474Z" fill="#D8DBF4"/>
<path d="M28.8104 72.3051C29.1604 71.8833 29.4464 71.6005 29.6542 71.2692C29.9448 70.8098 30.2682 70.8067 30.7089 71.1145C29.8979 72.0411 29.1042 72.977 28.2745 73.8786C27.9261 74.2583 27.3573 74.2489 26.9229 73.963C26.762 73.8567 26.7464 73.7473 26.837 73.6051C26.9136 73.488 26.9042 73.3036 27.1729 73.3723C27.8948 73.5583 28.1807 73.3067 28.1323 72.5723C28.0901 71.9395 28.0198 71.3098 27.9823 70.677C27.9729 70.5067 27.8011 70.1973 28.0729 70.1848C28.3276 70.1739 28.6964 70.227 28.6932 70.6895C28.6901 71.1739 28.7589 71.6551 28.8104 72.3051Z" fill="#D8DBF4"/>
<path d="M22.6745 67.5938C23.8276 67.5938 24.4901 68.6312 23.9745 69.6125C23.8588 69.8312 23.7588 69.9109 23.5198 69.7562C23.126 69.4984 22.7135 69.2719 22.3073 69.0328C22.2166 68.9797 22.1151 68.8781 22.0135 68.95C21.8917 69.0359 21.926 69.1797 21.9713 69.3C22.1198 69.6859 22.4198 69.8906 22.8151 69.8391C23.1854 69.7922 23.2995 70.0234 23.2995 70.2641C23.2995 70.5375 23.0057 70.4578 22.8338 70.4594C22.0448 70.4672 21.3151 69.7547 21.3057 68.9906C21.2995 68.2266 21.9182 67.5938 22.6745 67.5938ZM22.7807 68.1031C22.6401 68.1609 22.4448 68.1609 22.3541 68.35C22.3245 68.4125 23.2073 69.0062 23.3401 69.0203C23.5276 69.0406 23.5448 68.9 23.5323 68.7812C23.487 68.3547 23.1807 68.1953 22.7807 68.1031Z" fill="#D8DBF4"/>
<path d="M57.1024 70.4351C56.179 70.4367 55.6415 70.0023 55.5055 69.3351C55.368 68.6789 55.7993 67.9492 56.4743 67.6898C57.0758 67.4585 57.693 67.6976 58.0649 68.2804C58.1883 68.4757 58.1883 68.5867 57.9758 68.707C57.5477 68.9445 57.1321 69.1992 56.7118 69.4523C56.6243 69.5054 56.4821 69.5398 56.5258 69.6789C56.5586 69.7851 56.6743 69.8304 56.7852 69.8507C57.2227 69.9257 57.5571 69.7429 57.7086 69.3523C57.8399 69.0164 58.068 69.057 58.2696 69.146C58.5665 69.2773 58.3321 69.496 58.2555 69.6335C57.9493 70.1632 57.4774 70.4273 57.1024 70.4351ZM56.8321 68.196C56.5743 68.1882 56.3821 68.3164 56.2274 68.5039C56.093 68.6679 56.0102 68.8898 56.1524 69.0476C56.2899 69.1992 56.4336 68.982 56.568 68.9195C56.7133 68.8507 56.854 68.7664 56.9852 68.671C57.0915 68.5945 57.3133 68.5757 57.2446 68.3898C57.1868 68.232 57.0071 68.1835 56.8321 68.196Z" fill="#D8DBF4"/>
<path d="M60.9274 65.0225C60.9415 64.2084 61.6915 63.4944 62.5243 63.499C63.2977 63.5053 63.8915 64.1147 63.8743 64.8881C63.8556 65.6959 63.0852 66.4459 62.2821 66.4334C61.5462 66.4209 60.9149 65.7647 60.9274 65.0225ZM63.2009 64.9272C63.1868 64.5022 62.7899 64.135 62.3743 64.1615C61.9477 64.1865 61.5977 64.5787 61.6227 65.0022C61.6462 65.424 61.9868 65.7365 62.4118 65.7287C62.8462 65.7209 63.2134 65.3475 63.2009 64.9272Z" fill="#D8DBF4"/>
<path d="M16.1477 62.3675C16.1461 63.1113 15.4992 63.7441 14.7508 63.73C13.9539 63.7128 13.2148 62.9425 13.2148 62.1238C13.2164 61.3816 13.8633 60.7581 14.6195 60.7722C15.4367 60.7878 16.1508 61.5331 16.1477 62.3675ZM14.7539 61.4535C14.357 61.4097 13.968 61.7222 13.9117 62.1316C13.8539 62.5456 14.1758 62.9675 14.5961 63.0253C15.0102 63.0831 15.432 62.7519 15.4773 62.33C15.5195 61.9331 15.1617 61.4972 14.7539 61.4535Z" fill="#D8DBF4"/>
<path d="M44.9089 74.6221C45.2074 73.6252 45.4667 72.6486 45.7949 71.6986C45.9761 71.1752 45.7824 71.1643 45.3761 71.2596C45.0589 71.333 44.7339 71.369 44.4152 71.4361C44.1824 71.4861 44.0027 71.5096 43.9417 71.1924C43.8808 70.8877 44.0089 70.8299 44.2699 70.7924C44.8417 70.7127 45.4089 70.5939 45.9808 70.4955C46.7105 70.3721 46.8605 70.5486 46.648 71.2924C46.3964 72.1783 46.0933 73.0564 45.8933 73.9533C45.7636 74.533 45.4292 74.6346 44.9089 74.6221Z" fill="#D8DBF4"/>
<path d="M68.6355 59.4127C68.5808 59.9158 68.3167 60.3705 67.8214 60.6752C67.6933 60.7533 67.4871 60.958 67.3871 60.6643C67.3292 60.494 67.1824 60.2393 67.5277 60.1361C67.7433 60.0721 67.9136 59.9377 67.9949 59.7143C68.048 59.5721 68.0746 59.419 67.9324 59.319C67.8121 59.233 67.6902 59.2908 67.5871 59.3814C67.4105 59.5361 67.2386 59.6986 67.0558 59.8486C66.7917 60.0643 66.5074 60.1143 66.2027 59.9252C65.9089 59.7408 65.7917 59.4674 65.8402 59.1361C65.9089 58.6627 66.1667 58.294 66.5714 58.0424C66.6917 57.9674 66.8949 57.8127 66.9839 58.0252C67.0464 58.1736 67.148 58.4158 66.9152 58.5611C66.8542 58.6002 66.7746 58.6127 66.7214 58.658C66.5371 58.8143 66.3277 59.0205 66.5355 59.244C66.723 59.444 66.8839 59.1877 67.023 59.0658C67.2824 58.8393 67.5183 58.5705 67.8949 58.5596C68.298 58.5424 68.6339 58.9111 68.6355 59.4127Z" fill="#D8DBF4"/>
<path d="M26.5354 72.375C26.2104 72.4 25.9901 72.1015 26.1198 71.7937C26.5651 70.7265 27.0261 69.6672 27.4589 68.5953C27.5761 68.3031 27.7089 68.3265 27.9479 68.4234C28.1886 68.5219 28.2339 68.6265 28.1307 68.8672C27.6651 69.9469 27.2229 71.0343 26.7651 72.1156C26.7182 72.2203 26.712 72.3765 26.5354 72.375Z" fill="#D8DBF4"/>
<path d="M18.2762 64.033C18.2371 64.2002 18.0934 64.2924 17.9825 64.4049C17.8371 64.5533 17.7778 64.3986 17.6887 64.322C17.2168 63.9174 16.9871 63.9252 16.534 64.3642C16.3512 64.5408 16.1762 64.7236 16.009 64.9127C15.8137 65.133 15.6684 65.2736 15.3746 64.9767C15.0825 64.6814 15.3246 64.5799 15.4746 64.4236C15.8887 63.9939 16.3293 63.5877 16.7184 63.1361C16.9981 62.8127 17.2653 62.8783 17.3559 63.1908C17.4575 63.5361 17.6684 63.6033 17.9371 63.6908C18.0903 63.7455 18.2153 63.8642 18.2762 64.033Z" fill="#D8DBF4"/>
<path d="M23.918 71.0501C24.1148 70.6454 24.307 70.2532 24.4977 69.8626C24.618 69.6189 24.7742 69.3861 24.8539 69.1298C24.993 68.6736 25.332 68.772 25.4742 68.9923C25.6773 69.3079 25.9258 69.2564 26.1961 69.2954C26.5477 69.347 26.7211 69.4954 26.4898 69.8782C26.3633 70.0861 26.2742 70.0236 26.1086 69.947C25.6102 69.7173 25.3383 69.8157 25.0836 70.2954C24.9227 70.6001 24.7789 70.9142 24.632 71.2251C24.5602 71.3751 24.4789 71.4751 24.3023 71.3657C24.157 71.2829 23.9398 71.2814 23.918 71.0501Z" fill="#D8DBF4"/>
<path d="M36.2246 48.3269C36.234 50.9816 33.8246 52.7675 31.2933 51.8363C29.6215 51.2207 28.6636 49.2363 29.1293 47.23C29.4543 45.8269 30.3183 44.8644 31.7496 44.5441C33.1418 44.2316 34.3839 44.5628 35.3464 45.6691C35.9652 46.3816 36.2058 47.2472 36.2246 48.3269Z" fill="#D8DBF4"/>
<path d="M55.8992 29.8815C55.0367 29.8815 54.2773 29.8784 53.5195 29.8831C53.2789 29.8847 53.2289 29.7784 53.3304 29.5815C53.721 28.8097 54.1148 28.0425 54.5445 27.1987C55.0054 28.1081 55.4273 28.944 55.8992 29.8815Z" fill="#D8DBF4"/>
<path d="M25.4256 27.1958C25.8553 28.0567 26.2396 28.8286 26.6303 29.5974C26.7475 29.8255 26.66 29.8833 26.4412 29.8817C25.6818 29.8786 24.9256 29.8802 24.0693 29.8802C24.5318 28.9661 24.9584 28.1208 25.4256 27.1958Z" fill="#D8DBF4"/>
<path d="M46.1993 27.2851C46.1993 25.9413 46.1993 25.9382 47.5556 25.9429C47.99 25.9444 48.4243 25.9241 48.8509 26.0382C49.4759 26.2038 49.8806 26.6726 49.8946 27.2632C49.9071 27.8632 49.5446 28.3663 48.9165 28.5444C48.1009 28.7741 47.2603 28.6382 46.4306 28.6601C46.1915 28.6679 46.1978 28.4835 46.1978 28.3179C46.1978 27.9741 46.1993 27.6288 46.1993 27.2851Z" fill="#D8DBF4"/>
<path d="M24.2975 10.7002C23.4772 10.6908 22.785 9.96111 22.7803 9.09704C22.7741 8.30173 23.4772 7.61267 24.2788 7.62517C25.0819 7.63767 25.8303 8.46111 25.8038 9.30329C25.7803 10.083 25.1038 10.7111 24.2975 10.7002Z" stroke="#899195" stroke-width="0.46875" stroke-miterlimit="10"/>
<path d="M30.1324 6.54102C30.6136 6.54258 30.984 6.95665 30.9793 7.4879C30.9761 7.98165 30.6058 8.33946 30.1074 8.32852C29.623 8.31758 29.2261 7.89258 29.2355 7.39258C29.2418 6.93946 29.6652 6.53946 30.1324 6.54102Z" stroke="#899195" stroke-width="0.46875" stroke-miterlimit="10"/>
<path d="M72.8287 26.175C72.8287 26.5563 72.5928 26.7313 72.2568 26.7641C71.9365 26.7953 71.3522 26.1063 71.4287 25.6922C71.5084 25.2594 72.0193 25.3235 72.3334 25.161C72.485 25.0813 72.8334 25.7907 72.8287 26.175Z" stroke="#899195" stroke-width="0.46875" stroke-miterlimit="10"/>
<path d="M6.39941 28.6958C7.0541 28.638 7.53223 28.5958 8.01191 28.5536C8.04785 28.5505 8.08535 28.5536 8.11973 28.5551C8.22598 28.5614 8.30254 28.6114 8.26973 28.7208C8.15879 29.0817 8.05254 29.4489 7.90723 29.7942C7.84473 29.9395 7.71348 29.813 7.6416 29.752C7.26816 29.4442 6.90098 29.1239 6.39941 28.6958Z" stroke="#899195" stroke-width="0.3125" stroke-miterlimit="10"/>
<path d="M4.83838 41.7205C5.40557 41.447 5.85244 41.2298 6.30088 41.0142C6.33369 40.997 6.3665 40.9845 6.40088 40.9752C6.50088 40.9455 6.59619 40.9689 6.604 41.0798C6.629 41.4548 6.65869 41.833 6.64307 42.208C6.63682 42.3423 6.46182 42.2923 6.37119 42.2611C5.89775 42.1017 5.429 41.9298 4.83838 41.7205Z" stroke="#899195" stroke-width="0.3125" stroke-miterlimit="10"/>
<path d="M73.6492 32.9364C73.6414 33.4317 73.2102 33.8082 72.6633 33.7942C72.182 33.7817 71.8148 33.402 71.8164 32.9239C71.818 32.4457 72.2852 32.0317 72.8008 32.0504C73.2555 32.0645 73.6539 32.4832 73.6492 32.9364Z" stroke="#899195" stroke-width="0.46875" stroke-miterlimit="10"/>
<path d="M6.55862 32.0816C6.37269 32.2816 6.70706 32.8848 6.093 32.8129C5.79925 32.7801 5.27581 32.9363 5.26331 32.3988C5.24612 31.7238 5.59144 31.2832 5.99769 31.3113C6.36331 31.3379 6.57737 31.616 6.55862 32.0816Z" stroke="#899195" stroke-width="0.3125" stroke-miterlimit="10"/>
<path d="M10.8071 21.5802C10.8462 21.3005 10.9665 21.0677 11.204 20.9036C11.3806 20.7817 11.6071 20.7364 11.7681 20.8567C11.9978 21.0286 11.7118 21.1599 11.6556 21.302C11.5915 21.4677 11.4743 21.6161 11.3728 21.763C11.2837 21.8895 11.2353 22.1333 11.0603 22.0864C10.8587 22.0286 10.8196 21.7911 10.8071 21.5802Z" stroke="#899195" stroke-width="0.46875" stroke-miterlimit="10"/>
<path d="M19.1321 12.9878C18.943 12.5425 19.0383 12.2488 19.3164 12.0207C19.5305 11.8441 19.7711 11.716 20.0649 11.866C20.2743 11.9722 20.3524 12.0832 20.1196 12.2519C19.7993 12.4863 19.4836 12.7238 19.1321 12.9878Z" stroke="#899195" stroke-width="0.46875" stroke-miterlimit="10"/>
<path d="M72.8569 29.6752C72.846 29.8533 72.7882 30.0221 72.6522 30.1565C72.5022 30.3065 72.3757 30.3283 72.3022 30.0877C72.2288 29.8455 72.1413 29.6049 72.0866 29.358C72.0522 29.2033 71.8507 29.0002 72.0757 28.8861C72.2632 28.7893 72.4569 28.9283 72.6038 29.0783C72.7663 29.2408 72.8178 29.4502 72.8569 29.6752Z" stroke="#899195" stroke-width="0.46875" stroke-miterlimit="10"/>
<path d="M43.4059 6.20361C43.5606 6.28799 43.9372 6.06299 43.895 6.46924C43.8559 6.85518 43.5684 7.06924 43.1794 7.06143C42.9216 7.05518 42.6262 6.96299 42.6481 6.64736C42.6794 6.21143 43.0528 6.21768 43.4059 6.20361Z" stroke="#899195" stroke-width="0.46875" stroke-miterlimit="10"/>
<path d="M68.6572 20.78C68.6681 21.2425 68.2009 21.694 67.7056 21.7003C67.2665 21.7081 66.8369 21.2894 66.8259 20.8425C66.8134 20.3909 67.2994 19.9269 67.7869 19.9253C68.2572 19.9237 68.6462 20.305 68.6572 20.78Z" stroke="#899195" stroke-width="0.46875" stroke-miterlimit="10"/>
<path d="M50.7648 7.39141C50.7758 7.90079 50.3414 8.38204 49.8805 8.37735C49.4039 8.3711 49.0274 7.99766 49.0164 7.51641C49.0039 6.96641 49.3805 6.54141 49.882 6.54297C50.3586 6.5461 50.7555 6.92579 50.7648 7.39141Z" stroke="#899195" stroke-width="0.46875" stroke-miterlimit="10"/>
<path d="M73.2228 35.4102C73.7384 35.4086 74.1181 35.7836 74.115 36.2914C74.1087 36.7852 73.7243 37.1492 73.1993 37.1555C72.6822 37.1633 72.3228 36.8023 72.3228 36.2742C72.3196 35.7742 72.6962 35.4133 73.2228 35.4102Z" stroke="#899195" stroke-width="0.46875" stroke-miterlimit="10"/>
<path d="M61.5071 13.0577C61.4946 13.5515 61.04 14.0077 60.5712 13.9952C60.1103 13.9827 59.6993 13.5702 59.7071 13.1249C59.715 12.6421 60.1759 12.1859 60.6478 12.189C61.1071 12.1952 61.5181 12.6109 61.5071 13.0577Z" stroke="#899195" stroke-width="0.46875" stroke-miterlimit="10"/>
<path d="M33.198 7.61914C32.9323 7.5957 32.6964 7.47695 32.7433 7.20039C32.8214 6.73164 33.2573 6.71914 33.6183 6.64101C33.8886 6.5832 33.9214 6.75976 33.9058 6.9582C33.8761 7.3957 33.5839 7.55976 33.198 7.61914Z" stroke="#899195" stroke-width="0.46875" stroke-miterlimit="10"/>
<path d="M53.6027 68.6971C53.8621 68.7268 54.0293 68.8939 54.0433 69.1861C54.0558 69.4518 53.3527 70.0408 53.0433 69.9643C52.6839 69.8752 52.7043 69.4596 52.5621 69.1877C52.5043 69.0752 53.3027 68.6846 53.6027 68.6971Z" fill="#899195"/>
<path d="M37.3228 71.9814C37.4431 72.3783 37.5478 72.7455 37.6697 73.1049C37.7494 73.3439 37.7041 73.4174 37.4338 73.4096C36.5416 73.3877 36.54 73.3986 36.9244 72.5939C37.026 72.3799 37.0666 72.1189 37.3228 71.9814Z" fill="#899195"/>
<path d="M49.7322 72.3035C49.715 72.6613 49.6587 73.0004 49.2493 73.1207C48.8353 73.2426 48.5978 72.9863 48.4197 72.6801C48.1431 72.2019 48.0072 71.6785 48.04 71.1222C48.0587 70.8316 48.1837 70.5957 48.4775 70.4988C48.7978 70.3926 49.0478 70.5285 49.2306 70.7816C49.5572 71.2347 49.6915 71.7551 49.7322 72.3035Z" fill="#899195"/>
<path d="M59.7416 67.9378C59.3447 67.9316 58.9744 67.5675 58.965 67.1706C58.9556 66.7659 59.3463 66.3613 59.7603 66.3503C60.1666 66.3394 60.5759 66.7425 60.5697 67.1488C60.5619 67.5456 60.1463 67.9441 59.7416 67.9378Z" fill="#899195"/>
<path d="M22.7802 68.1035C23.1802 68.1941 23.4865 68.3551 23.5334 68.7816C23.5459 68.8988 23.5302 69.041 23.3412 69.0207C23.2084 69.0066 22.3255 68.4113 22.3552 68.3504C22.4427 68.1629 22.638 68.1613 22.7802 68.1035Z" fill="#899195"/>
<path d="M56.8322 68.1957C57.0072 68.1832 57.1885 68.2317 57.2463 68.3895C57.3151 68.5754 57.0916 68.5942 56.9869 68.6707C56.8557 68.766 56.7151 68.8488 56.5697 68.9192C56.4354 68.9832 56.2932 69.1988 56.1541 69.0473C56.0119 68.891 56.0916 68.6676 56.2291 68.5035C56.3822 68.316 56.5744 68.1879 56.8322 68.1957Z" fill="#899195"/>
<path d="M63.2007 64.9266C63.2148 65.3453 62.8476 65.7203 62.4132 65.7297C61.9882 65.7391 61.6476 65.425 61.6242 65.0031C61.6007 64.5797 61.9507 64.1875 62.3757 64.1625C62.7914 64.1359 63.1867 64.5016 63.2007 64.9266Z" fill="#899195"/>
<path d="M14.754 61.4533C15.1602 61.4986 15.5196 61.933 15.4758 62.3283C15.429 62.7502 15.0086 63.0814 14.5946 63.0236C14.1758 62.9658 13.854 62.5439 13.9102 62.1299C13.9696 61.7221 14.3571 61.4096 14.754 61.4533Z" fill="#899195"/>
</svg>
