<svg viewBox="0 0 200 220" xmlns="http://www.w3.org/2000/svg">
  <!-- Glass Globe -->
  <defs>
    <radialGradient id="globeGradient" cx="50%" cy="40%" r="60%" fx="50%" fy="40%">
      <stop offset="0%" stop-color="#ffffff" stop-opacity="0.9"/>
      <stop offset="70%" stop-color="#e0e0e0" stop-opacity="0.7"/>
      <stop offset="100%" stop-color="#d0d0d0" stop-opacity="0.6"/>
    </radialGradient>
    <linearGradient id="baseGradient" x1="0%" y1="0%" x2="0%" y2="100%">
      <stop offset="0%" stop-color="#b0b0b0"/>
      <stop offset="100%" stop-color="#808080"/>
    </linearGradient>
  </defs>
  
  <!-- Globe -->
  <circle cx="100" cy="100" r="80" fill="url(#globeGradient)" stroke="#a0a0a0" stroke-width="2"/>
  
  <!-- Base -->
  <path d="M45 170 C 45 190, 155 190, 155 170 L 155 180 C 155 200, 45 200, 45 180 Z" fill="url(#baseGradient)" stroke="#606060" stroke-width="1"/>
  <ellipse cx="100" cy="170" rx="55" ry="10" fill="#909090" stroke="#707070" stroke-width="1"/>
  
  <!-- Chart elements inside the globe -->
  <!-- Document with lines -->
  <rect x="55" y="65" width="35" height="45" fill="#f0f0f0" stroke="#b0b0b0" stroke-width="1"/>
  <line x1="60" y1="75" x2="85" y2="75" stroke="#b0b0b0" stroke-width="1.5"/>
  <line x1="60" y1="80" x2="80" y2="80" stroke="#b0b0b0" stroke-width="1.5"/>
  <line x1="60" y1="85" x2="85" y2="85" stroke="#b0b0b0" stroke-width="1.5"/>
  <line x1="60" y1="90" x2="75" y2="90" stroke="#b0b0b0" stroke-width="1.5"/>
  <line x1="60" y1="95" x2="82" y2="95" stroke="#b0b0b0" stroke-width="1.5"/>
  <line x1="60" y1="100" x2="78" y2="100" stroke="#b0b0b0" stroke-width="1.5"/>
  
  <!-- Document icon in corner -->
  <rect x="60" y="70" width="8" height="8" fill="#b0b0b0" stroke="none"/>
  <path d="M60 70 L68 70 L68 73 L65 70 Z" fill="#d0d0d0" stroke="none"/>
  <path d="M65 70 L65 73 L68 73 Z" fill="#909090" stroke="none"/>
  
  <!-- Graph with upward trend -->
  <rect x="95" y="80" width="50" height="40" fill="#f0f0f0" stroke="#b0b0b0" stroke-width="1"/>
  <polyline points="100,110 110,105 120,107 130,95 140,85" fill="none" stroke="#707070" stroke-width="2"/>
  <circle cx="110" cy="105" r="2" fill="#707070"/>
  <circle cx="120" cy="107" r="2" fill="#707070"/>
  <circle cx="130" cy="95" r="2" fill="#707070"/>
  <circle cx="140" cy="85" r="2" fill="#707070"/>
  
  <!-- Horizontal lines in the graph -->
  <line x1="95" y1="90" x2="145" y2="90" stroke="#d0d0d0" stroke-width="0.5"/>
  <line x1="95" y1="100" x2="145" y2="100" stroke="#d0d0d0" stroke-width="0.5"/>
  <line x1="95" y1="110" x2="145" y2="110" stroke="#d0d0d0" stroke-width="0.5"/>
  
  <!-- Vertical lines in the graph -->
  <line x1="110" y1="80" x2="110" y2="120" stroke="#d0d0d0" stroke-width="0.5"/>
  <line x1="120" y1="80" x2="120" y2="120" stroke="#d0d0d0" stroke-width="0.5"/>
  <line x1="130" y1="80" x2="130" y2="120" stroke="#d0d0d0" stroke-width="0.5"/>
  
  <!-- Glare effect -->
  <ellipse cx="80" cy="70" rx="25" ry="15" fill="white" fill-opacity="0.2"/>
  
  <!-- Light reflection -->
  <circle cx="70" cy="65" r="5" fill="white" fill-opacity="0.4"/>
</svg>