<svg width="19" height="25" viewBox="0 0 19 25" fill="none" xmlns="http://www.w3.org/2000/svg">
<path d="M5.25 9.04024C5.25 8.13846 5.53413 7.25983 6.06168 6.53027L8.4685 8.28725C8.31024 8.50612 8.225 8.76971 8.225 9.04024L5.25 9.04024Z" stroke="#272727" stroke-width="0.5"/>
<path d="M1 9.04045C1 7.23688 1.56827 5.47961 2.62336 4.0205L6.06168 6.53047C5.53413 7.26003 5.25 8.13867 5.25 9.04045L1 9.04045Z" stroke="#272727" stroke-width="0.5"/>
<path d="M1 9.04045C1 8.14425 1.14039 7.25364 1.41602 6.40131L5.45801 7.72088C5.3202 8.14705 5.25 8.59235 5.25 9.04045L1 9.04045Z" stroke="#272727" stroke-width="0.5"/>
<path d="M6.06168 6.53027C6.58922 5.80071 7.33309 5.25769 8.18668 4.97902L9.106 7.82188C8.84993 7.90548 8.62677 8.06838 8.4685 8.28725L6.06168 6.53027Z" stroke="#272727" stroke-width="0.5"/>
<path d="M2.62336 4.0205C3.67844 2.56138 5.16619 1.47533 6.87335 0.918L8.18668 4.97922C7.33309 5.25789 6.58922 5.80092 6.06168 6.53047L2.62336 4.0205Z" stroke="#272727" stroke-width="0.5"/>
<path d="M2.62336 4.0205C3.14763 3.29546 3.78222 2.65785 4.50383 2.13108L7.00191 5.58576C6.64111 5.84915 6.32382 6.16795 6.06168 6.53047L2.62336 4.0205Z" stroke="#272727" stroke-width="0.5"/>
<path d="M8.18668 4.97902C9.04026 4.70035 9.95974 4.70035 10.8133 4.97902L9.894 7.82188C9.63792 7.73828 9.36208 7.73828 9.106 7.82188L8.18668 4.97902Z" stroke="#272727" stroke-width="0.5"/>
<path d="M6.87335 0.918C8.58052 0.360667 10.4195 0.360667 12.1266 0.918L10.8133 4.97922C9.95974 4.70056 9.04026 4.70056 8.18668 4.97922L6.87335 0.918Z" stroke="#272727" stroke-width="0.5"/>
<path d="M6.87335 0.918C7.72165 0.641059 8.60805 0.5 9.5 0.5L9.5 4.77023C9.05402 4.77023 8.61083 4.84075 8.18668 4.97922L6.87335 0.918Z" stroke="#272727" stroke-width="0.5"/>
<path d="M10.8133 4.97902C11.6669 5.25769 12.4108 5.80071 12.9383 6.53027L10.5315 8.28725C10.3732 8.06838 10.1501 7.90548 9.894 7.82188L10.8133 4.97902Z" stroke="#272727" stroke-width="0.5"/>
<path d="M12.1266 0.918C13.8338 1.47533 15.3216 2.56139 16.3766 4.0205L12.9383 6.53048C12.4108 5.80092 11.6669 5.25789 10.8133 4.97922L12.1266 0.918Z" stroke="#272727" stroke-width="0.5"/>
<path d="M12.1266 0.918C12.9749 1.19494 13.7746 1.60431 14.4962 2.13108L11.9981 5.58577C11.6373 5.32238 11.2375 5.1177 10.8133 4.97922L12.1266 0.918Z" stroke="#272727" stroke-width="0.5"/>
<path d="M12.9383 6.53027C13.4659 7.25983 13.75 8.13846 13.75 9.04025L10.775 9.04025C10.775 8.76971 10.6898 8.50612 10.5315 8.28725L12.9383 6.53027Z" stroke="#272727" stroke-width="0.5"/>
<path d="M16.3766 4.0205C17.4317 5.47962 18 7.23689 18 9.04046L13.75 9.04045C13.75 8.13867 13.4659 7.26003 12.9383 6.53048L16.3766 4.0205Z" stroke="#272727" stroke-width="0.5"/>
<path d="M16.3766 4.0205C16.9009 4.74554 17.3084 5.54898 17.584 6.40131L13.542 7.72088C13.4042 7.29471 13.2005 6.893 12.9383 6.53048L16.3766 4.0205Z" stroke="#272727" stroke-width="0.5"/>
<path d="M8.2251 9.04053V24.4987H10.7751V9.04053" stroke="#272727" stroke-width="0.5"/>
<rect x="10.7749" y="9.04053" width="2.975" height="15.4582" stroke="#272727" stroke-width="0.5"/>
<rect x="5.25" y="9.04053" width="2.975" height="15.4582" stroke="#272727" stroke-width="0.5"/>
<rect x="1" y="9.04053" width="4.25" height="15.4582" stroke="#272727" stroke-width="0.5"/>
<rect x="13.75" y="9.04053" width="4.25" height="15.4582" stroke="#272727" stroke-width="0.5"/>
</svg>
