<svg width="400" height="400" viewBox="20 230 250 250" fill="none" xmlns="http://www.w3.org/2000/svg">
<g clip-path="url(#clip0_0_1)">
<path d="M195.115 262.15C195.33 262.619 194.734 263.176 194.839 263.394C194.944 263.613 195.889 263.68 195.944 264.085C194.909 266.298 195.669 269.578 195.668 272.1C195.668 272.471 195.667 272.838 195.668 273.205C195.669 273.669 195.667 274.129 195.668 274.587C195.669 274.953 195.669 275.326 195.668 275.692C195.668 275.749 195.395 276.103 195.392 276.798C195.39 277.252 195.394 277.717 195.392 278.18C195.389 278.638 195.394 279.103 195.392 279.562C195.391 279.797 195.67 280.568 195.668 280.943C195.656 283.623 195.394 286.26 195.392 288.958H194.839C194.828 286.845 194.856 284.702 194.839 282.602C194.807 278.644 194.946 274.64 194.839 270.718C194.831 270.444 194.848 270.163 194.839 269.889C194.804 268.85 194.647 267.866 194.562 266.849C194.493 266.003 195.318 264.496 194.424 263.256L141.5 232.855H140.671C135.884 235.69 131.132 238.67 126.3 241.423C125.991 241.599 125.555 241.651 125.471 241.699C112.794 248.907 100.346 256.557 87.6084 263.67V323.504C86.7627 323.362 87.1071 324.23 87.0557 324.886C70.8735 315.543 52.1433 302.831 35.6514 295.038C35.6113 295.019 35.9214 294.327 34.9604 294.485C34.6189 294.541 34.3483 295.677 33.7168 295.038V293.242L141.362 230.921C159.112 241.616 177.17 251.793 195.115 262.15ZM86.3647 264.085L35.9277 293.518L86.6411 322.951L86.3647 264.085Z" fill="#9C9B9D"/>
<path d="M126.3 241.423C131.132 238.67 135.884 235.69 140.671 232.855L140.947 253.168C140.348 253.583 139.749 253.995 139.151 254.412C138.011 255.208 128.025 261.091 127.267 261.321C126.801 261.463 126.664 261.72 126.3 261.183V241.423Z" fill="#E9E9EB"/>
<path d="M141.5 232.855C141.405 246.766 141.494 260.673 141.5 274.587H140.947C140.921 267.702 141.311 260.713 140.533 253.859L126.3 262.289V345.89C126.012 345.727 125.608 345.572 125.194 345.337L125.471 241.699C125.555 241.651 125.991 241.599 126.3 241.423V261.183C126.664 261.72 126.801 261.463 127.267 261.321C128.025 261.091 138.011 255.208 139.151 254.412C139.749 253.995 140.348 253.583 140.947 253.168L140.671 232.855H141.5Z" fill="#C7C6C8"/>
<path d="M194.563 266.849L141.777 236.586C143.684 238.392 145.988 238.105 146.337 241.146C160.931 250.793 179.135 258.358 193.319 268.23C194.02 268.718 194.361 269.217 194.839 269.889C194.848 270.163 194.832 270.444 194.839 270.718C193.317 271.766 190.905 268.894 189.726 268.23C184.615 265.351 179.131 263.066 174.526 259.387L146.337 243.357L194.148 271.823C194.694 275.416 193.54 272.882 193.043 272.652C178.001 265.701 163.62 254.818 148.824 246.95C148.487 246.771 146.227 245.842 146.198 246.259L194.148 274.311C194.862 278.194 192.838 275.073 191.937 274.587C183.986 270.291 175.904 265.791 168.17 261.321C163.204 258.451 151.811 250.375 147.166 248.885C146.654 248.721 146.35 248.374 145.922 249.023L194.286 277.212V278.871C180.404 271.187 167.32 263.297 153.522 255.518C151.661 254.468 149.161 252.22 147.166 251.648C146.65 251.501 146.358 251.124 145.922 251.787L194.286 279.976L194.839 282.602C194.856 284.702 194.828 286.845 194.839 288.958C194.901 300.515 194.793 312.082 194.839 323.642L142.191 354.457C141.376 327.85 141.511 301.208 141.5 274.587C141.495 260.673 141.405 246.766 141.5 232.855L194.424 263.256C195.318 264.496 194.493 266.003 194.563 266.849Z" fill="#EEEEEF"/>
<path d="M194.562 266.849C194.647 267.866 194.804 268.85 194.839 269.889C194.361 269.217 194.019 268.718 193.319 268.23C179.135 258.358 160.931 250.793 146.336 241.146C145.988 238.105 143.684 238.392 141.776 236.586L194.562 266.849Z" fill="#D2D2D3"/>
<path d="M125.194 345.337C112.599 338.185 99.9228 331.132 87.6084 323.504V263.67C100.346 256.557 112.794 248.907 125.471 241.699L125.194 345.337Z" fill="#F6F6F7"/>
<path d="M194.839 270.718C194.946 274.64 194.807 278.644 194.839 282.602L194.286 279.976L145.922 251.787C146.358 251.124 146.65 251.501 147.166 251.648C149.161 252.22 151.661 254.468 153.522 255.518C167.32 263.297 180.404 271.187 194.286 278.871V277.212L145.922 249.023C146.35 248.374 146.654 248.721 147.166 248.885C151.81 250.375 163.204 258.451 168.169 261.321C175.904 265.791 183.986 270.291 191.937 274.587C192.837 275.073 194.862 278.194 194.148 274.311L146.198 246.259C146.227 245.842 148.487 246.771 148.824 246.95C163.62 254.818 178.001 265.701 193.042 272.652C193.54 272.882 194.693 275.416 194.148 271.823L146.336 243.357L174.526 259.387C179.13 263.066 184.615 265.351 189.726 268.23C190.905 268.894 193.317 271.766 194.839 270.718Z" fill="#CCCBCD"/>
<path d="M140.947 274.587C141.048 301.16 140.872 327.743 140.947 354.319C135.922 351.778 131.192 348.661 126.3 345.89V262.289L140.533 253.859C141.311 260.713 140.921 267.702 140.947 274.587Z" fill="#EDEDEF"/>
<path d="M239.887 337.322C208.314 356.988 174.952 373.916 143.434 393.701L142.191 394.53L141.5 393.978C141.772 393.657 141.501 393.19 141.5 393.148C141.484 392.599 141.515 392.04 141.5 391.49C141.49 391.124 141.507 390.751 141.5 390.385C141.487 389.744 141.228 389.215 141.223 389.003C141.222 388.924 141.25 388.838 141.223 388.45C141.196 388.038 141.341 387.723 141.223 386.792C141.218 386.749 141.669 386.765 141.5 385.963C141.406 385.517 141.373 385.03 141.223 384.581C141.567 384.591 141.55 384.283 141.5 384.028C141.404 383.544 141.255 383.346 141.223 382.646C141.209 382.333 141.231 381.695 141.223 381.265C141.215 380.806 141.227 380.341 141.223 379.883C141.222 379.608 141.225 379.328 141.223 379.054C141.222 378.687 141.223 378.315 141.223 377.948C141.223 377.565 141.237 377.246 141.223 376.843C141.205 376.294 141.246 375.733 141.223 375.185C141.214 374.943 141.244 374.698 141.223 374.355C141.207 374.083 141.248 373.797 141.223 373.526C141.201 373.269 141.537 373.217 141.5 372.974C141.455 372.678 141.258 371.392 141.223 371.315C141.762 370.525 141.214 369.751 141.223 369.381C141.259 367.917 141.856 363.601 141.223 362.472C141.617 362.466 141.539 361.929 141.5 361.643C141.406 360.951 141.261 360.509 141.223 359.708C141.207 359.348 141.272 358.951 141.223 358.603C141.14 357.998 141.365 357.016 141.223 356.53C140.902 355.423 128.874 349.013 126.852 347.824C126.471 347.6 126.112 347.486 125.747 347.271C113.188 339.882 100.493 332.739 87.8846 325.438C87.6151 325.282 87.4507 325.231 87.3319 325.162C86.9997 324.97 87.0724 324.895 87.0555 324.886C87.1069 324.23 86.7626 323.362 87.6082 323.504C99.9226 331.132 112.599 338.185 125.194 345.337C125.608 345.572 126.012 345.727 126.3 345.89C131.192 348.661 135.922 351.778 140.947 354.319C140.872 327.743 141.047 301.16 140.947 274.587H141.5C141.51 301.208 141.376 327.85 142.191 354.457L194.839 323.642C194.792 312.082 194.901 300.515 194.839 288.958H195.391C195.383 300.384 195.606 311.816 195.53 323.228C207.672 316.54 219.69 309.588 231.596 302.5C232.901 301.723 234.265 300.949 235.465 300.013C235.556 300.006 235.65 300.022 235.741 300.013C236.419 299.945 239.812 297.499 240.716 296.973C242.491 295.94 244.32 294.957 246.105 293.933L246.381 293.104L195.944 264.085C195.889 263.68 194.944 263.613 194.839 263.394C194.734 263.176 195.33 262.619 195.115 262.15C213.006 272.476 231.076 282.507 248.73 293.242V331.657C245.777 333.516 242.843 335.481 239.887 337.322ZM247.21 294.762L195.391 325.3C195.475 326.185 194.946 328.035 196.359 327.373C211.521 316.917 230.718 309.168 245.552 298.631C247.054 297.564 248.551 296.917 247.21 294.762ZM246.934 298.631L195.391 329.446C195.835 329.986 197.257 328.997 197.741 328.755C211.762 321.721 232.557 309.61 245.552 300.842C245.927 300.589 249.126 298.581 246.934 298.631ZM246.934 300.842L195.391 331.38C195.83 332.003 196.971 331.199 197.464 330.966C211.248 324.444 231.323 312.005 244.447 303.605C244.902 303.314 249.231 300.835 246.934 300.842ZM247.21 302.776L196.082 332.624L195.668 333.868C213.002 323.928 230.457 313.949 247.487 303.605L247.21 302.776ZM247.21 304.987L195.944 334.973L195.668 336.079L247.625 305.955L247.21 304.987ZM246.934 307.475L195.668 338.29C213.007 328.227 230.552 318.31 247.625 307.889L246.934 307.475ZM246.934 309.409L196.082 338.98L195.668 341.053L246.934 311.344C247.775 310.857 247.999 309.467 246.934 309.409ZM246.934 312.173L195.668 342.988C213.044 333.002 230.645 323.112 247.625 312.587C247.401 312.361 247.31 312.15 246.934 312.173ZM247.21 314.107L195.806 344.231L195.668 345.475L247.625 315.351L247.21 314.107ZM247.21 316.595L195.668 347.41C213.208 337.915 230.405 327.631 247.487 317.424L247.21 316.595ZM246.934 318.806L143.296 379.33C142.398 379.886 141.647 381.524 143.296 380.988C144.155 380.709 147.916 378.337 149.1 377.672C179.637 360.507 211.92 342.131 241.683 323.78C242.108 323.518 250.484 318.804 246.934 318.806ZM247.21 321.293L142.329 383.061L247.21 322.675C247.821 322.367 247.703 321.402 247.21 321.293ZM247.21 323.504L142.329 385.272L143.296 385.41C176.039 364.895 210.793 347.431 243.618 327.097C244.227 326.719 249.113 324.068 247.21 323.504ZM194.424 325.438L142.053 355.977V358.188L143.573 358.05L194.424 328.479V325.438ZM246.934 325.991L143.296 386.239L142.605 388.036L247.625 326.958C247.66 326.24 247.771 325.86 246.934 325.991ZM246.934 328.479L142.605 389.97L144.678 389.279C176.387 368.086 213.844 351.756 245.276 330.689C245.751 330.371 248.933 328.411 246.934 328.479ZM194.424 329.308L142.329 360.399C144.044 359.979 145.878 358.895 147.442 358.05C160.228 351.134 181.888 339.772 193.042 331.519C193.606 331.102 195.426 330.084 194.424 329.308ZM247.21 330.413L143.573 390.661L142.605 392.458C177.843 372.608 212.765 351.941 247.625 331.38L247.21 330.413ZM194.424 331.519L142.329 362.61L193.871 333.177L194.424 331.519ZM194.148 333.729L142.329 364.544L143.573 364.406L194.148 335.111C194.613 334.813 194.916 333.829 194.148 333.729ZM194.148 335.664L143.02 365.512L142.329 367.032C160.053 357.574 177.255 346.987 194.562 336.908C194.472 336.472 194.886 335.762 194.148 335.664ZM194.424 337.875L142.329 368.966L194.424 339.257V337.875ZM194.424 339.81L142.329 370.625V372.006L194.562 341.606L194.424 339.81ZM194.424 342.85L142.329 373.665L194.424 343.955C194.644 343.717 194.655 343.009 194.424 342.85ZM194.424 344.508C177.688 355.072 159.947 364.806 142.743 374.908C141.349 377.483 143.83 375.992 144.954 375.461C161.295 367.746 177.622 354.689 194.148 346.719L194.424 344.508ZM194.424 347.271L142.329 378.363C142.765 378.903 144.209 377.911 144.678 377.672C161.208 369.233 177.179 357.362 193.871 348.93C194.342 348.686 194.935 347.613 194.424 347.271Z" fill="#4E4F50"/>
<path d="M86.3647 264.085L86.6411 322.951L35.9277 293.518L86.3647 264.085Z" fill="#F5F5F6"/>
<path d="M240.716 296.973C238.802 298.036 238.524 296.346 237.538 295.867C230.115 292.262 223.446 288.168 216.534 283.707L195.668 272.1C195.669 269.578 194.908 266.298 195.944 264.085L246.381 293.104L246.105 293.933C244.32 294.957 242.491 295.94 240.716 296.973Z" fill="#E0E0E2"/>
<path d="M240.716 296.973C239.812 297.499 236.419 299.945 235.741 300.013L236.57 299.045C223.002 291.237 209.556 282.855 195.668 275.692C195.668 275.326 195.669 274.953 195.668 274.587C204.734 279.359 212.693 284.892 221.785 289.234C224.815 291.976 228.843 293.454 232.287 295.314C233.85 296.159 237.057 299.936 238.505 297.664L195.668 273.205C195.667 272.838 195.668 272.471 195.668 272.1L216.534 283.707C223.446 288.168 230.115 292.262 237.538 295.867C238.524 296.346 238.802 298.036 240.716 296.973Z" fill="#C4C3C4"/>
<path d="M195.668 274.587C195.667 274.129 195.669 273.669 195.668 273.205L238.505 297.664C237.057 299.936 233.85 296.159 232.286 295.314C228.843 293.454 224.815 291.976 221.785 289.234C212.693 284.892 204.734 279.359 195.668 274.587Z" fill="#DDDDDE"/>
<path d="M235.741 300.013C235.65 300.022 235.556 300.006 235.465 300.013L195.392 276.798C195.395 276.103 195.668 275.749 195.668 275.692C209.556 282.855 223.002 291.237 236.57 299.045L235.741 300.013Z" fill="#DDDDDE"/>
<path d="M235.465 300.013C234.265 300.949 232.901 301.723 231.596 302.5L231.181 301.118L195.668 280.943C195.67 280.568 195.391 279.797 195.392 279.562C206.868 286.083 218.024 293.178 229.799 299.184C231.109 299.852 232.361 302.593 234.359 300.151L195.392 278.18C195.394 277.717 195.39 277.252 195.392 276.798L235.465 300.013Z" fill="#C4C3C5"/>
<path d="M195.391 279.562C195.393 279.103 195.389 278.638 195.391 278.18L234.359 300.151C232.361 302.593 231.109 299.852 229.799 299.184C218.023 293.178 206.868 286.083 195.391 279.562Z" fill="#DEDEDF"/>
<path d="M231.596 302.5C219.69 309.588 207.672 316.54 195.53 323.228C195.606 311.816 195.384 300.384 195.392 288.958C195.394 286.26 195.656 283.623 195.668 280.943L231.181 301.118L231.596 302.5Z" fill="#E6E6E7"/>
<path d="M35.6514 295.038C34.4658 294.261 35.1199 297.606 35.2368 297.802L86.0884 327.373L86.7793 327.235L87.332 325.162C87.4509 325.231 87.6153 325.282 87.8848 325.438L88.2993 328.755L125.333 350.035L125.747 347.272C126.112 347.487 126.471 347.6 126.853 347.824C126.139 348.294 126.128 350.024 126.438 350.588C126.843 351.325 139.346 357.953 141.224 358.603C141.272 358.951 141.207 359.348 141.224 359.708L126.3 352.384L141.5 361.643C141.539 361.929 141.617 362.466 141.224 362.472C140.359 360.927 128.394 355.601 126.438 353.628C125.992 354.449 126.474 354.784 126.991 355.286C128.662 356.911 135.606 359.802 138.045 361.366C138.646 361.751 141.396 363.267 140.947 363.992C140.516 364.689 127.857 356.266 126.714 355.839L126.023 356.53C127.526 358.105 140.63 364.566 140.947 365.374C141.015 365.547 140.997 366.213 140.809 366.341L126.438 357.773C126.431 358.124 126.015 358.689 126.023 358.741C126.227 360.002 140.504 366.696 140.947 367.584C141.075 367.841 141.096 368.493 140.533 368.552C139.719 368.636 128.43 360.836 126.438 360.261L126.991 361.643L141.224 369.381C141.215 369.751 141.762 370.525 141.224 371.315C140.123 368.904 129.07 364.568 126.714 362.195C126.35 362.134 126.01 363.369 126.023 363.439C126.223 364.526 140.056 371.08 141.5 372.974C141.537 373.217 141.201 373.269 141.224 373.526L126.023 365.374L141.224 374.355C141.244 374.698 141.214 374.943 141.224 375.185C139.059 374.916 127.247 366.641 126.438 366.894C126.038 367.018 125.918 367.782 126.023 368.137C126.272 368.977 139.432 375.878 141.224 376.843C141.237 377.246 141.224 377.565 141.224 377.948C123.501 367.963 105.888 357.765 88.2993 347.548L87.8848 348.239L141.224 379.054C141.225 379.328 141.222 379.608 141.224 379.883C139.139 379.418 127.271 371.435 126.438 371.592C126.121 371.652 126.035 372.377 125.747 372.559L141.224 381.265C141.232 381.695 141.21 382.333 141.224 382.646L35.7896 321.569L35.0986 322.26L141.5 384.028C141.55 384.283 141.567 384.591 141.224 384.581L35.5132 323.504L35.0986 324.748L141.5 385.963C141.669 386.765 141.218 386.749 141.224 386.792C105.619 367.029 70.7309 345.834 35.2368 325.991L35.0986 326.959L141.224 388.45C141.25 388.838 141.222 388.924 141.224 389.003C105.563 369.483 70.629 348.312 35.2368 328.202L35.0986 329.169L141.5 390.385C141.507 390.751 141.49 391.124 141.5 391.49C105.828 371.581 70.7577 350.53 35.2368 330.413L34.8223 331.104L141.5 393.148C141.501 393.19 141.772 393.657 141.5 393.978L34.1313 332.348L33.7168 295.038C34.3483 295.677 34.6189 294.541 34.9604 294.485C35.9214 294.327 35.6113 295.019 35.6514 295.038ZM35.2368 298.907L35.7896 300.565L87.332 330.275L86.0884 328.202L35.2368 298.907ZM35.2368 301.118C34.5495 302.59 36.2218 302.466 36.895 303.329L87.332 332.209L35.2368 301.118ZM35.2368 303.329L35.5132 304.435L87.332 334.42L86.0884 332.624L35.2368 303.329ZM35.2368 305.264C34.5824 306.7 35.862 307.011 36.895 307.751C51.2761 318.046 70.8398 325.536 85.5356 335.94L87.332 336.079L35.2368 305.264ZM35.2368 307.751L61.0771 323.642L87.332 338.29C70.3797 327.435 52.6585 317.819 35.2368 307.751ZM35.2368 309.409L35.5132 311.62L87.0557 341.053L86.6411 339.257L35.2368 309.409ZM35.2368 312.449L60.939 328.202L87.0557 342.988L61.4917 327.373L35.2368 312.449ZM35.2368 314.384L35.0986 315.627L87.0557 345.751V344.37L35.2368 314.384ZM35.2368 316.871C34.8093 317.465 35.3855 317.913 35.7896 318.253C36.997 319.27 41.5344 321.653 43.2515 322.675C57.7287 331.291 72.6757 339.523 87.332 347.686L35.2368 316.871ZM35.2368 318.806V320.464L87.0557 350.173C87.4614 348.22 85.1355 348.182 84.1538 346.995L35.2368 318.806ZM88.2993 329.308V330.966L125.747 352.108L125.609 350.864L88.2993 329.308ZM88.0229 331.519C87.3873 332.77 88.5276 333.093 89.4048 333.73C94.5126 337.434 119.146 351.918 124.503 353.904C124.907 354.054 125.366 354.375 125.747 354.042L88.0229 331.519ZM88.0229 333.73C87.46 334.731 88.4494 335.16 89.1284 335.664C94.6665 339.778 117.986 353.284 124.227 355.839C124.535 355.965 125.657 356.628 125.747 355.977L88.0229 333.73ZM88.2993 335.664C87.7916 335.734 87.6333 337.265 88.2993 337.599L125.747 358.464L125.056 356.944C114.216 350.972 103.495 344.794 92.7212 338.704C91.9247 338.254 88.5652 335.627 88.2993 335.664ZM88.2993 338.151V339.533L125.747 360.399L88.2993 338.151ZM88.2993 340.086C87.0963 341.432 88.435 342.118 89.4048 342.85C94.9399 347.023 117.214 359.711 123.674 362.472C125.192 363.121 126.837 363.844 125.056 361.366L88.2993 340.086ZM88.0229 342.573C86.7779 343.481 92.1118 346.336 92.7212 346.719C101.549 352.261 112.787 358.755 122.016 363.577C123.059 364.122 124.588 365.101 125.747 365.097L88.0229 342.573ZM88.2993 344.784V346.719C100.019 352.5 111.249 360.836 122.845 366.617C123.47 366.929 125.117 368.031 125.747 367.584L125.056 366.064L88.2993 344.784ZM88.0229 349.482L87.8848 350.726L124.503 372.145C125.599 372.733 125.662 371.506 125.333 370.763L88.0229 349.482Z" fill="#939193"/>
<path d="M35.6513 295.038C52.1432 302.831 70.8735 315.543 87.0556 324.886C87.0725 324.895 86.9998 324.97 87.332 325.162L86.7792 327.235L86.0883 327.373L35.2368 297.802C35.1199 297.606 34.4657 294.261 35.6513 295.038Z" fill="#F5F5F7"/>
<path d="M247.21 294.762C248.551 296.917 247.054 297.564 245.552 298.631C230.718 309.168 211.521 316.917 196.359 327.373C194.946 328.035 195.475 326.185 195.392 325.3L247.21 294.762Z" fill="#DEDEDF"/>
<path d="M246.934 298.631C249.126 298.581 245.927 300.589 245.552 300.842C232.557 309.61 211.762 321.721 197.741 328.755C197.258 328.997 195.835 329.985 195.392 329.446L246.934 298.631Z" fill="#DADADA"/>
<path d="M35.2368 298.907L86.0884 328.202L87.332 330.275L35.7896 300.565L35.2368 298.907Z" fill="#F9FAFA"/>
<path d="M246.934 300.842C249.231 300.835 244.902 303.314 244.447 303.605C231.323 312.005 211.248 324.444 197.464 330.966C196.971 331.199 195.83 332.003 195.392 331.38L246.934 300.842Z" fill="#DBDCDD"/>
<path d="M35.2368 301.118L87.332 332.209L36.895 303.329C36.2218 302.466 34.5495 302.59 35.2368 301.118Z" fill="#F8FAFA"/>
<path d="M247.21 302.776L247.487 303.605C230.457 313.949 213.003 323.928 195.668 333.868L196.083 332.624L247.21 302.776Z" fill="#DDDDDE"/>
<path d="M35.2368 303.329L86.0884 332.624L87.332 334.42L35.5132 304.435L35.2368 303.329Z" fill="#F8F9FA"/>
<path d="M247.21 304.987L247.625 305.955L195.668 336.079L195.944 334.973L247.21 304.987Z" fill="#D9D9D9"/>
<path d="M35.2366 305.264L87.3319 336.079L85.5355 335.94C70.8396 325.536 51.2759 318.046 36.8948 307.751C35.8618 307.011 34.5822 306.7 35.2366 305.264Z" fill="#F9FAFA"/>
<path d="M246.934 307.475L247.625 307.889C230.552 318.31 213.008 328.227 195.668 338.29L246.934 307.475Z" fill="#E1E1E4"/>
<path d="M35.2368 307.751C52.6585 317.819 70.3797 327.435 87.332 338.29L61.0771 323.642L35.2368 307.751Z" fill="#F8FAFB"/>
<path d="M35.2368 309.409L86.6411 339.257L87.0557 341.053L35.5132 311.62L35.2368 309.409Z" fill="#F9FAFA"/>
<path d="M246.934 309.409C247.999 309.467 247.775 310.857 246.934 311.344L195.668 341.053L196.083 338.98L246.934 309.409Z" fill="#D6D6D6"/>
<path d="M246.934 312.173C247.31 312.15 247.401 312.361 247.625 312.587C230.645 323.112 213.045 333.002 195.668 342.988L246.934 312.173Z" fill="#E3E3E6"/>
<path d="M35.2368 312.449L61.4917 327.373L87.0557 342.988L60.939 328.202L35.2368 312.449Z" fill="#F9FBFB"/>
<path d="M247.21 314.107L247.625 315.351L195.668 345.475L195.806 344.231L247.21 314.107Z" fill="#D7D7D7"/>
<path d="M35.2368 314.384L87.0557 344.37V345.751L35.0986 315.627L35.2368 314.384Z" fill="#FAFAFB"/>
<path d="M247.21 316.595L247.487 317.424C230.405 327.631 213.208 337.915 195.668 347.41L247.21 316.595Z" fill="#E3E3E6"/>
<path d="M35.2368 316.871L87.332 347.686C72.6757 339.523 57.7286 331.291 43.2514 322.675C41.5343 321.653 36.9969 319.27 35.7895 318.253C35.3854 317.913 34.8092 317.465 35.2368 316.871Z" fill="#F9FBFB"/>
<path d="M35.2368 318.806L84.1538 346.995C85.1355 348.182 87.4614 348.22 87.0557 350.173L35.2368 320.464V318.806Z" fill="#FAFBFB"/>
<path d="M246.934 318.806C250.484 318.804 242.108 323.518 241.683 323.78C211.92 342.131 179.637 360.507 149.1 377.672C147.916 378.337 144.155 380.709 143.296 380.988C141.647 381.524 142.398 379.886 143.296 379.33L246.934 318.806Z" fill="#D9D9D9"/>
<path d="M247.21 321.293C247.703 321.402 247.821 322.367 247.21 322.675L142.329 383.061L247.21 321.293Z" fill="#DEDFE0"/>
<path d="M141.224 382.646C141.255 383.346 141.405 383.544 141.5 384.028L35.0986 322.26L35.7896 321.569L141.224 382.646Z" fill="#FAFBFB"/>
<path d="M141.224 384.581C141.373 385.03 141.406 385.517 141.5 385.963L35.0986 324.748L35.5132 323.504L141.224 384.581Z" fill="#FAFBFB"/>
<path d="M247.21 323.504C249.113 324.068 244.227 326.719 243.618 327.097C210.793 347.431 176.039 364.895 143.296 385.41L142.329 385.272L247.21 323.504Z" fill="#DCDCDD"/>
<path d="M125.747 347.271L125.333 350.035L88.2993 328.755L87.8848 325.438C100.493 332.739 113.188 339.882 125.747 347.271Z" fill="#F3F3F4"/>
<path d="M194.424 325.438V328.479L143.573 358.05L142.053 358.188V355.977L194.424 325.438Z" fill="#E6E7E7"/>
<path d="M141.224 386.792C141.342 387.723 141.196 388.038 141.224 388.45L35.0986 326.958L35.2368 325.991C70.7309 345.834 105.619 367.029 141.224 386.792Z" fill="#FAFBFB"/>
<path d="M246.934 325.991C247.771 325.86 247.66 326.241 247.625 326.959L142.605 388.036L143.296 386.239L246.934 325.991Z" fill="#D9D9D9"/>
<path d="M141.224 389.003C141.228 389.215 141.487 389.744 141.5 390.385L35.0986 329.169L35.2368 328.202C70.629 348.312 105.563 369.483 141.224 389.003Z" fill="#FAFBFB"/>
<path d="M246.934 328.479C248.933 328.411 245.751 330.371 245.276 330.689C213.844 351.756 176.387 368.086 144.678 389.279L142.605 389.97L246.934 328.479Z" fill="#DEDDDF"/>
<path d="M88.2993 329.308L125.609 350.864L125.747 352.108L88.2993 330.966V329.308Z" fill="#F8F9F9"/>
<path d="M194.424 329.308C195.426 330.084 193.606 331.102 193.042 331.519C181.888 339.772 160.228 351.134 147.442 358.05C145.878 358.895 144.044 359.979 142.329 360.399L194.424 329.308Z" fill="#DDDDDE"/>
<path d="M141.5 391.49C141.515 392.04 141.485 392.599 141.5 393.148L34.8223 331.104L35.2368 330.413C70.7577 350.53 105.828 371.581 141.5 391.49Z" fill="#FAFBFB"/>
<path d="M247.21 330.413L247.625 331.38C212.765 351.941 177.843 372.608 142.605 392.458L143.573 390.661L247.21 330.413Z" fill="#D2D2D2"/>
<path d="M88.023 331.519L125.747 354.042C125.366 354.375 124.908 354.054 124.503 353.904C119.146 351.918 94.5126 337.434 89.4048 333.729C88.5276 333.093 87.3873 332.77 88.023 331.519Z" fill="#F7F8F9"/>
<path d="M194.424 331.519L193.872 333.177L142.329 362.61L194.424 331.519Z" fill="#E0E0E2"/>
<path d="M88.023 333.729L125.747 355.977C125.657 356.628 124.535 355.965 124.227 355.839C117.986 353.284 94.6666 339.778 89.1285 335.664C88.4494 335.16 87.4601 334.731 88.023 333.729Z" fill="#F7F9F9"/>
<path d="M194.148 333.729C194.917 333.829 194.613 334.813 194.148 335.111L143.573 364.406L142.329 364.544L194.148 333.729Z" fill="#DFDFE1"/>
<path d="M88.2996 335.664C88.5654 335.627 91.9249 338.254 92.7214 338.704C103.495 344.794 114.216 350.972 125.056 356.944L125.747 358.464L88.2996 337.599C87.6335 337.265 87.7919 335.734 88.2996 335.664Z" fill="#F8F9FA"/>
<path d="M194.148 335.664C194.886 335.762 194.472 336.472 194.562 336.908C177.255 346.987 160.053 357.574 142.329 367.032L143.02 365.512L194.148 335.664Z" fill="#DDDDDD"/>
<path d="M194.424 337.875V339.257L142.329 368.966L194.424 337.875Z" fill="#E3E3E6"/>
<path d="M88.2993 338.151L125.747 360.399L88.2993 339.533V338.151Z" fill="#F8FAFA"/>
<path d="M194.424 339.81L194.562 341.606L142.329 372.006V370.625L194.424 339.81Z" fill="#D9DAD9"/>
<path d="M88.2994 340.086L125.056 361.366C126.837 363.844 125.192 363.121 123.674 362.472C117.214 359.71 94.9399 347.023 89.4049 342.85C88.4351 342.118 87.0964 341.432 88.2994 340.086Z" fill="#F8F9F9"/>
<path d="M88.0231 342.573L125.747 365.097C124.588 365.101 123.059 364.122 122.016 363.577C112.787 358.755 101.549 352.261 92.7214 346.719C92.112 346.336 86.7781 343.481 88.0231 342.573Z" fill="#F8FAFA"/>
<path d="M194.424 342.85C194.656 343.009 194.644 343.717 194.424 343.955L142.329 373.665L194.424 342.85Z" fill="#E6E6E8"/>
<path d="M194.424 344.508L194.148 346.719C177.622 354.689 161.295 367.746 144.955 375.461C143.83 375.992 141.349 377.483 142.744 374.908C159.947 364.806 177.688 355.072 194.424 344.508Z" fill="#DBDCDB"/>
<path d="M88.2993 344.784L125.056 366.064L125.747 367.584C125.117 368.031 123.47 366.929 122.845 366.617C111.249 360.836 100.019 352.5 88.2993 346.719V344.784Z" fill="#F9FAFA"/>
<path d="M194.424 347.271C194.936 347.613 194.342 348.686 193.872 348.93C177.179 357.362 161.208 369.233 144.678 377.672C144.209 377.911 142.765 378.903 142.329 378.363L194.424 347.271Z" fill="#E4E4E7"/>
<path d="M141.224 377.948C141.224 378.315 141.222 378.687 141.224 379.054L87.8848 348.239L88.2993 347.548C105.888 357.765 123.501 367.963 141.224 377.948Z" fill="#F9FAFB"/>
<path d="M141.224 358.603C139.346 357.953 126.843 351.325 126.438 350.588C126.128 350.024 126.139 348.293 126.852 347.824C128.874 349.013 140.902 355.423 141.224 356.53C141.365 357.016 141.14 357.998 141.224 358.603Z" fill="#EFEFF1"/>
<path d="M88.0229 349.482L125.333 370.763C125.662 371.506 125.599 372.733 124.503 372.145L87.8848 350.726L88.0229 349.482Z" fill="#FAFAFB"/>
<path d="M141.224 359.708C141.261 360.509 141.406 360.951 141.5 361.643L126.3 352.384L141.224 359.708Z" fill="#F7F8F8"/>
<path d="M141.224 362.472C141.856 363.601 141.26 367.917 141.224 369.381L126.991 361.643L126.438 360.261C128.43 360.836 139.719 368.636 140.533 368.552C141.096 368.493 141.075 367.841 140.947 367.584C140.504 366.696 126.227 360.002 126.024 358.741C126.015 358.689 126.431 358.124 126.438 357.773L140.809 366.341C140.997 366.213 141.015 365.547 140.947 365.374C140.63 364.566 127.526 358.105 126.024 356.53L126.714 355.839C127.858 356.266 140.516 364.689 140.947 363.992C141.396 363.267 138.646 361.751 138.046 361.366C135.606 359.802 128.662 356.911 126.991 355.286C126.474 354.784 125.992 354.449 126.438 353.628C128.394 355.601 140.359 360.927 141.224 362.472Z" fill="#F5F6F7"/>
<path d="M141.224 371.315C141.258 371.392 141.455 372.678 141.5 372.974C140.056 371.08 126.223 364.526 126.023 363.439C126.01 363.369 126.35 362.134 126.714 362.195C129.07 364.568 140.122 368.904 141.224 371.315Z" fill="#F7F8F9"/>
<path d="M141.224 373.526C141.248 373.797 141.208 374.083 141.224 374.355L126.023 365.374L141.224 373.526Z" fill="#F9FBFB"/>
<path d="M141.224 375.185C141.246 375.733 141.205 376.294 141.224 376.843C139.432 375.878 126.272 368.977 126.024 368.137C125.918 367.782 126.038 367.018 126.438 366.894C127.247 366.641 139.059 374.916 141.224 375.185Z" fill="#F8F9F9"/>
<path d="M141.224 379.883C141.227 380.341 141.215 380.806 141.224 381.265L125.747 372.559C126.035 372.377 126.121 371.651 126.438 371.592C127.271 371.435 139.139 379.418 141.224 379.883Z" fill="#F9FAFA"/>
</g>
<defs>
<clipPath id="clip0_0_1">
<rect width="283" height="283" fill="white" transform="translate(0 161)"/>
</clipPath>
</defs>
</svg>
