<svg width="500" height="500" viewBox="0 0 300 420" fill="none" xmlns="http://www.w3.org/2000/svg">
<path d="M0.725585 235.041C0.400064 254.821 0.245808 274.781 1.56933 294.5L33.123 294.5C33.1429 294.469 33.1632 294.442 33.1816 294.422C33.2183 294.381 33.2562 294.351 33.2871 294.328C33.3475 294.284 33.4112 294.252 33.4639 294.229C33.5697 294.181 33.6958 294.139 33.8232 294.104C33.7523 293.988 33.683 293.87 33.6191 293.748C33.1788 292.91 32.8337 291.845 32.5693 290.744C32.1065 288.817 31.8717 286.697 31.8369 285.303L31.835 284.753L31.835 284.752C31.9616 277.963 34.778 273.357 38.7979 270.76C42.7983 268.175 47.9301 267.618 52.6445 268.786C57.361 269.955 61.7128 272.863 64.1318 277.28C66.4779 281.564 66.9694 287.202 64.3115 293.915L95.1807 293.915L95.4687 259.601L95.4697 259.501L95.5088 259.408C95.6698 259.031 95.9727 258.807 96.3242 258.702C96.655 258.604 97.0304 258.609 97.4004 258.659C98.1421 258.76 99.0435 259.071 99.9355 259.423C100.823 259.773 101.785 260.199 102.586 260.528C103.32 260.83 103.918 261.048 104.327 261.13L104.491 261.156C112.691 262.113 118.78 257.642 121.269 251.844C123.718 246.135 122.674 239.164 116.694 234.771L116.406 234.564C112.926 232.12 109.768 231.634 106.531 231.895C104.9 232.026 103.247 232.348 101.51 232.713C99.7803 233.076 97.9637 233.484 96.043 233.772L95.4687 233.858L95.4687 199.247L61.8037 198.383L61.6426 198.379L61.5137 198.281L61.3926 198.183C60.8089 197.677 60.6195 197.004 60.6504 196.312C60.6821 195.6 60.9449 194.836 61.252 194.121C61.5573 193.41 61.9459 192.664 62.2383 192.044C62.5103 191.467 62.6963 191.006 62.7588 190.665L62.7773 190.526C63.3067 184.424 61.6721 179.919 59.0166 176.946C56.3564 173.969 52.6354 172.487 48.9121 172.5C45.1887 172.513 41.4772 174.02 38.8369 177.004C36.2838 179.889 34.6987 184.195 35.1201 189.96L35.167 190.522C35.2221 191.107 35.476 191.744 35.8193 192.443C36.1447 193.106 36.5776 193.872 36.8779 194.571C37.1838 195.283 37.4165 196.056 37.3066 196.82C37.1917 197.619 36.7184 198.315 35.8135 198.89L35.6924 198.967L35.5498 198.968L1.32715 199.256C1.73647 210.442 1.02213 221.666 0.769531 232.785L0.725585 235.041Z" fill="#503564" fill-opacity="0.6" stroke="#4E4F50"/>
<path d="M237.041 97.7256C256.821 97.4001 276.781 97.2458 296.5 98.5693V130.123C296.469 130.143 296.442 130.163 296.422 130.182C296.381 130.218 296.351 130.256 296.328 130.287C296.284 130.348 296.252 130.411 296.229 130.464C296.181 130.57 296.139 130.696 296.104 130.823C295.988 130.752 295.87 130.683 295.748 130.619C294.91 130.179 293.845 129.834 292.744 129.569C290.817 129.107 288.697 128.872 287.303 128.837L286.753 128.835H286.752C279.963 128.962 275.357 131.778 272.76 135.798C270.175 139.798 269.618 144.93 270.786 149.645C271.955 154.361 274.863 158.713 279.28 161.132C283.564 163.478 289.202 163.969 295.915 161.312V192.181L261.601 192.469L261.501 192.47L261.408 192.509C261.031 192.67 260.807 192.973 260.702 193.324C260.604 193.655 260.609 194.03 260.659 194.4C260.76 195.142 261.071 196.043 261.423 196.936C261.773 197.823 262.199 198.785 262.528 199.586C262.83 200.32 263.048 200.918 263.13 201.327L263.156 201.491C264.113 209.691 259.642 215.78 253.844 218.269C248.135 220.718 241.164 219.674 236.771 213.694L236.564 213.406C234.12 209.926 233.634 206.768 233.895 203.531C234.026 201.9 234.348 200.247 234.713 198.51C235.076 196.78 235.484 194.964 235.772 193.043L235.858 192.469H201.247L200.383 158.804L200.379 158.643L200.281 158.514L200.183 158.393C199.677 157.809 199.004 157.62 198.312 157.65C197.6 157.682 196.836 157.945 196.121 158.252C195.41 158.557 194.664 158.946 194.044 159.238C193.467 159.51 193.006 159.696 192.665 159.759L192.526 159.777C186.424 160.307 181.919 158.672 178.946 156.017C175.969 153.356 174.487 149.635 174.5 145.912C174.513 142.189 176.02 138.477 179.004 135.837C181.889 133.284 186.195 131.699 191.96 132.12L192.522 132.167C193.107 132.222 193.744 132.476 194.443 132.819C195.106 133.145 195.872 133.578 196.571 133.878C197.283 134.184 198.056 134.417 198.82 134.307C199.619 134.192 200.315 133.718 200.89 132.813L200.967 132.692L200.968 132.55L201.256 98.3271C212.442 98.7365 223.666 98.0221 234.785 97.7695L237.041 97.7256Z" fill="#F3F3F4" stroke="#4E4F50"/>
<path d="M146.593 73.7285C156.65 72.0204 164.916 80.1401 164.371 89.9707L164.338 90.4395C164.305 90.8344 164.084 91.503 163.758 92.3779C163.444 93.2191 163.05 94.2124 162.734 95.1709C162.42 96.1248 162.162 97.1046 162.142 97.9326C162.121 98.7542 162.338 99.5989 163.167 99.9941L163.267 100.042H163.378L196.918 100.33V133.047C188.694 130.376 182.366 131.441 178.029 134.515C173.589 137.661 171.325 142.851 171.222 148.025C171.118 153.199 173.174 158.424 177.455 161.636C181.712 164.829 188.075 165.961 196.48 163.223L197.491 163.832L196.641 195.5H165.796C168.249 186.969 167.038 180.444 163.866 176.007C160.621 171.467 155.379 169.195 150.147 169.177C144.916 169.159 139.651 171.395 136.355 175.925C133.134 180.353 131.852 186.895 134.211 195.493L102.5 195.212V163.645C110.92 166.138 117.323 164.978 121.654 161.858C126.086 158.666 128.261 153.485 128.232 148.334C128.203 143.183 125.971 138.008 121.527 134.824C117.185 131.714 110.812 130.559 102.5 133.062V100.33L136.622 100.042H136.724L136.816 100.002C137.195 99.8383 137.477 99.5814 137.653 99.2471C137.824 98.9221 137.877 98.5579 137.867 98.1992C137.848 97.4949 137.58 96.6882 137.266 95.9268C136.948 95.159 136.549 94.3629 136.236 93.6963C136.077 93.3571 135.94 93.0504 135.837 92.7842C135.758 92.5795 135.707 92.4162 135.68 92.291L135.66 92.1787C135.233 88.3979 135.965 84.1043 137.817 80.5938C139.61 77.1975 142.426 74.5734 146.223 73.7979L146.593 73.7285Z" fill="#503564" fill-opacity="0.6" stroke="#4E4F50"/>
<path d="M100.117 0.50293C100.796 0.484456 101.886 0.563827 103.698 0.652344C105.489 0.739816 107.938 0.831844 111.277 0.832031V0.833008L197.5 2.60156V34.8965C197.493 34.9 197.484 34.9067 197.471 34.9111C197.381 34.9413 197.214 34.9579 196.95 34.9297C196.43 34.8739 195.728 34.6673 194.97 34.3955C194.219 34.1264 193.457 33.8091 192.814 33.5488C192.497 33.4201 192.205 33.304 191.965 33.2178C191.801 33.1589 191.626 33.0998 191.472 33.0684L191.325 33.0469C183.255 32.4419 177.662 34.8796 174.33 38.7705C171.009 42.6495 170 47.899 170.944 52.7988C171.889 57.6993 174.796 62.3 179.373 64.8809C183.819 67.3875 189.775 67.9522 196.909 65.1377L196.63 96.5H165.722C168.118 89.1469 166.971 81.6298 163.145 76.4424C159.307 71.2403 152.813 68.4376 144.67 70.457L143.877 70.667C141.689 71.2858 139.093 73.3646 136.979 75.7402C134.996 77.9682 133.333 80.5748 132.812 82.6895L132.724 83.1055C132.288 85.5561 132.574 87.9663 132.926 90.2744C133.255 92.4354 133.635 94.4865 133.605 96.4951L102.189 96.21L101.62 65.2578L102.63 64.6475C111.178 67.7467 117.624 66.7401 121.926 63.543C126.249 60.3296 128.296 54.9837 128.177 49.7061C128.057 44.4284 125.769 39.137 121.316 36.0244C116.868 32.915 110.361 32.0506 101.932 35.3828C101.914 35.1295 101.893 34.8052 101.868 34.3936C101.695 31.5804 101.314 24.8305 100.156 9.28809L99.6113 2.07422C99.5821 1.69237 99.533 1.27734 99.5146 1.05957C99.4915 0.784464 99.4982 0.657431 99.5156 0.59375C99.5182 0.58335 99.5048 0.592161 99.5352 0.579102C99.611 0.546509 99.7751 0.512262 100.117 0.50293Z" fill="#F3F2F3" stroke="#626364"/>
<path d="M50.0566 293.73C60.2238 292.008 68.576 300.197 68.0254 310.108L67.9922 310.582C67.9586 310.981 67.7356 311.655 67.4062 312.537C67.0894 313.385 66.6912 314.386 66.3721 315.353C66.0545 316.314 65.7945 317.301 65.7734 318.135C65.7526 318.963 65.9714 319.813 66.8066 320.21L66.9062 320.257L67.0166 320.258L100.912 320.548V353.541C92.5999 350.845 86.2061 351.92 81.8242 355.019C77.3396 358.19 75.0519 363.42 74.9473 368.636C74.8427 373.851 76.9196 379.117 81.2441 382.354C85.5446 385.572 91.9729 386.714 100.466 383.952L101.491 384.569L100.631 416.5H69.4531C71.9332 407.898 70.7112 401.319 67.5059 396.846C64.2274 392.271 58.933 389.981 53.6494 389.963C48.3656 389.945 43.0463 392.199 39.7178 396.764C36.4634 401.227 35.1675 407.823 37.5527 416.493L5.5 416.209V384.375C14.0105 386.891 20.4807 385.722 24.8564 382.577C29.3331 379.36 31.5292 374.139 31.5 368.946C31.4708 363.754 29.2157 358.539 24.7266 355.33C20.3397 352.194 13.9006 351.032 5.5 353.558V320.548L39.9834 320.258H40.084L40.1768 320.218C40.5585 320.053 40.8422 319.795 41.0195 319.459C41.1919 319.132 41.2453 318.766 41.2354 318.404C41.2158 317.695 40.946 316.882 40.6279 316.114C40.3072 315.34 39.9043 314.538 39.5879 313.866C39.4269 313.524 39.2874 313.215 39.1836 312.946C39.104 312.74 39.0527 312.576 39.0254 312.449L39.0059 312.335C38.5741 308.523 39.3134 304.194 41.1855 300.654C42.9968 297.23 45.8439 294.583 49.6816 293.801L50.0566 293.73Z" fill="#B57EDC" stroke="#4E4F50"/>
<path d="M146.145 172.71C151.602 171.839 156.171 173.747 159.259 177.142C162.258 180.44 163.872 185.158 163.508 190.129L163.467 190.61C163.431 190.976 163.217 191.569 162.898 192.341C162.594 193.078 162.206 193.948 161.897 194.776C161.59 195.6 161.332 196.454 161.305 197.182C161.291 197.549 161.335 197.921 161.49 198.251C161.632 198.551 161.857 198.794 162.164 198.958L162.301 199.023L162.389 199.062L162.484 199.063L196.326 199.929V231.569C187.757 229.216 181.325 230.47 177.041 233.628C172.659 236.858 170.614 242.019 170.807 247.087C171 252.155 173.433 257.176 178.06 260.133C182.567 263.013 189.075 263.881 197.455 261.051L195.476 293.495L100.5 292.626V262.958L101.493 262.364C107.707 265.358 113.059 265.136 117.197 262.985C121.373 260.816 124.237 256.724 125.509 252.198C126.78 247.672 126.475 242.655 124.24 238.599C122.065 234.65 118.085 231.659 112.079 230.919L111.491 230.854C109.217 230.633 107.26 231.113 105.436 231.576C103.744 232.006 102.183 232.414 100.5 232.346V199.929L135.516 199.063L135.621 199.061L135.717 199.016C136.549 198.621 136.804 197.834 136.79 197.031C136.776 196.246 136.513 195.334 136.192 194.454C135.87 193.57 135.465 192.649 135.142 191.866C134.847 191.152 134.634 190.579 134.558 190.182L134.533 190.022C134.164 186.465 135.23 182.415 137.329 179.105C139.362 175.899 142.325 173.446 145.806 172.77L146.145 172.71Z" fill="#F3F3F4" stroke="#4E4F50"/>
</svg>
