<svg width="400" height="400" viewBox="20 200 230 250" fill="none" xmlns="http://www.w3.org/2000/svg">
<g clip-path="url(#clip0_0_1)">
<path d="M137.012 210.944C143.052 209.918 143.945 218.615 139.447 219.601C132.704 221.078 131.903 211.813 137.012 210.944ZM137.553 212.297C133.866 212.715 134.473 219.251 138.906 218.248C142.19 217.505 141.097 211.895 137.553 212.297Z" fill="#646565"/>
<path d="M137.553 212.297C141.097 211.895 142.19 217.505 138.906 218.248C134.473 219.251 133.866 212.715 137.553 212.297Z" fill="#FDFDFD"/>
<path d="M135.93 220.142C137.787 220.183 137.736 223.205 135.524 223.523V272.214C137.505 274.846 138.871 274.67 140.664 271.944L140.394 223.523C136.119 221.11 141.218 218.949 141.746 221.629L141.476 272.755C141.171 273.979 138.768 275.044 138.5 275.731C138.453 275.852 139.312 277.861 138.094 278.03C136.589 278.24 137.489 275.72 137.418 275.46C137.365 275.266 134.682 273.445 134.442 272.755V221.088C134.503 220.938 135.842 220.14 135.93 220.142Z" fill="#696A69"/>
<path d="M123.487 223.388C126.034 222.928 124.447 225.908 124.434 226.228C124.376 227.608 124.167 233.457 124.434 234.343C124.659 235.089 129.376 238.067 129.844 240.294V275.19L131.467 274.108C130.96 263.011 132.146 251.321 131.467 240.294C131.381 238.896 131.525 236.372 131.196 235.155C131.116 234.856 128.83 232.684 128.762 232.45C128.466 231.432 129.02 229.826 129.032 228.933C129.034 228.835 128.057 228.083 128.491 227.04C128.9 226.057 130.702 226.112 131.196 227.04C131.706 228.542 130.07 228.545 129.844 229.204C129.045 231.528 131.024 233.022 132.278 234.614V274.919C131.389 276.263 130.12 277.079 129.979 278.842L129.032 278.166L128.762 240.836C128.247 238.343 123.745 236.178 123.352 234.343C123.048 232.925 123.736 230.926 123.622 229.474C123.544 228.469 122.379 224.445 122.54 224.064C122.6 223.922 123.412 223.401 123.487 223.388Z" fill="#646568"/>
<path d="M151.62 223.658C152.24 223.384 153.41 223.618 153.648 224.334C154.197 225.982 152.618 226.213 152.566 226.498C152.154 228.764 153.077 232.835 152.566 234.884C152.152 236.549 147.918 238.372 147.427 240.835C146.015 247.909 147.773 263.168 147.427 271.403C147.386 272.369 147.172 278.85 146.48 278.842C145.826 277.228 145.338 276.017 143.91 274.919V234.614C145.424 233.308 147.08 231.32 146.345 229.204C146.187 228.749 142.538 226.674 147.021 226.363C148.478 226.941 147.468 234.42 144.992 235.155V274.378C145.482 274.749 145.83 275.711 146.345 274.919V240.565C146.837 237.963 151.461 235.134 151.755 234.073C152.131 232.715 150.914 223.97 151.62 223.658Z" fill="#656869"/>
<path d="M160.006 225.281C161.852 225.189 162.406 227.87 160.547 228.257C159.85 228.402 159.185 227.789 158.383 227.986C154.733 228.883 156.475 238.514 156.083 241.377C156.326 241.923 166.538 241.733 167.039 241.512C167.629 241.252 167.061 238.34 169.203 237.184C176.534 233.225 178.403 246.841 170.014 244.758C169.172 244.549 168.005 242.717 167.58 242.594C166.96 242.413 156.74 242.638 156.218 242.864C155.735 243.074 155.751 244.768 155.272 245.434C154.525 246.472 151.775 248.25 151.485 248.951C150.946 250.25 150.814 275.112 151.214 277.084C151.813 280.035 154.979 276.917 154.46 279.248C154.215 280.349 151.691 279.343 150.808 279.924C150.391 279.712 150.16 271.731 150.132 270.591C150.037 266.699 149.724 251.405 150.403 248.68C150.763 247.234 154.254 245.434 154.731 244.082C155.956 240.603 154.055 233.283 155.272 229.745C155.852 228.057 158.992 226.872 160.006 225.281ZM170.555 237.995C167.417 238.713 168.23 244.441 172.449 243.405C175.367 242.689 174.566 237.078 170.555 237.995Z" fill="#646566"/>
<path d="M115.101 225.552C116.268 225.036 120.509 228.541 120.917 230.015C122.705 236.475 118.227 243.897 125.786 248.68V278.977C125.634 280.634 119.781 280.32 122.405 278.301C123.119 278.15 123.743 279.47 124.704 278.166V249.221C124.505 248.519 121.527 246.259 120.917 245.434C120.427 244.772 120.463 243.078 119.97 242.864C119.449 242.638 109.149 242.416 108.609 242.594C108.301 242.695 107.328 244.425 106.445 244.758C99.9638 247.197 98.2085 237.628 103.469 236.643C108.858 235.633 108.56 241.253 109.15 241.512C109.81 241.802 119.829 241.999 120.106 241.376C119.8 238.737 121.3 228.797 117.806 227.986C117.138 227.831 116.462 228.443 115.642 228.257C114.455 227.987 114.346 225.885 115.101 225.552ZM103.74 237.995C100.619 238.684 101.212 244.456 105.363 243.676C108.74 243.041 107.725 237.116 103.74 237.995Z" fill="#636465"/>
<path d="M137.553 236.643C139.129 236.161 139.64 238.655 138.094 238.807C136.806 238.933 136.418 236.99 137.553 236.643Z" fill="#64676A"/>
<path d="M103.74 237.995C107.724 237.116 108.74 243.041 105.363 243.676C101.212 244.456 100.619 238.684 103.74 237.995Z" fill="#FDFDFD"/>
<path d="M170.555 237.995C174.566 237.078 175.367 242.689 172.449 243.405C168.23 244.441 167.416 238.713 170.555 237.995Z" fill="#FCFDFD"/>
<path d="M137.553 242.323C139.083 241.882 139.553 244.128 138.365 244.487C136.868 244.94 136.154 242.727 137.553 242.323Z" fill="#676769"/>
<path d="M85.8861 244.217C90.142 243.625 95.0097 246.619 95.4891 251.115C95.8554 254.551 94.0459 262.269 95.2186 265.181C96.6222 268.667 112.577 280.455 114.154 284.117C114.303 284.461 114.625 285.176 114.019 285.334C112.677 285.684 97.0918 267.565 94.1365 265.993C93.2471 260.14 97.3101 246.5 88.5911 245.299C79.4274 244.037 77.4094 257.659 83.181 261.259C84.8075 262.273 88.2132 261.944 88.1854 264.911L82.0989 261.8C76.7102 257.311 78.1717 245.289 85.8861 244.217Z" fill="#646465"/>
<path d="M187.056 244.217C196.211 242.917 199.947 253.728 195.577 260.312C194.086 262.558 192.024 262.175 190.302 263.152C189.745 263.468 188.508 266.015 188.003 264.64C187.154 262.329 193.677 261.548 195.036 258.959C198.851 251.689 192.675 241.606 184.892 246.381C179.402 249.749 183.072 260.19 182.052 265.722C179.062 267.323 163.497 285.466 162.169 285.063C161.509 284.863 161.847 284.005 162.034 283.576C164.225 280.253 180.298 267.217 180.97 264.911C182.576 259.394 176.897 245.659 187.056 244.217Z" fill="#656667"/>
<path d="M65.5981 245.028C71.9916 243.709 72.9208 252.637 67.7622 253.414C61.8808 254.3 61.2267 245.93 65.5981 245.028ZM66.4097 246.381C62.7343 246.801 63.9053 252.997 68.0327 251.791C70.6856 251.016 69.6555 246.009 66.4097 246.381Z" fill="#626363"/>
<path d="M207.885 245.028C215.2 243.372 215.237 254.747 208.156 253.414C204.084 252.647 204.143 245.876 207.885 245.028ZM208.426 246.381C205.367 247.051 205.884 252.552 209.779 252.061C213.336 251.614 212.508 245.486 208.426 246.381Z" fill="#646465"/>
<path d="M66.4096 246.381C69.6555 246.01 70.6856 251.016 68.0327 251.791C63.9053 252.997 62.7343 246.801 66.4096 246.381Z" fill="#FDFDFD"/>
<path d="M208.426 246.381C212.508 245.486 213.336 251.614 209.779 252.062C205.884 252.552 205.367 247.051 208.426 246.381Z" fill="#FDFDFE"/>
<path d="M86.6977 248.004C92.5139 247.194 92.9397 256.007 87.7797 256.39C82.3225 256.795 82.0666 248.649 86.6977 248.004ZM86.9682 249.357C84.7928 249.57 83.7094 253.18 85.8862 254.226C90.2435 256.318 91.3794 248.923 86.9682 249.357Z" fill="#606161"/>
<path d="M137.824 248.274C139.286 248.151 139.545 250.52 138.094 250.709C136.517 250.915 136.237 248.408 137.824 248.274Z" fill="#656869"/>
<path d="M187.597 248.274C193.623 247.008 194.42 255.604 189.761 256.39C183.813 257.393 183.283 249.181 187.597 248.274ZM188.679 249.356C184.984 249.349 185.373 255.778 189.761 254.496C192.336 253.744 191.455 249.362 188.679 249.356Z" fill="#5D5E5E"/>
<path d="M86.9685 249.357C91.3797 248.923 90.2438 256.318 85.8865 254.226C83.7097 253.18 84.7931 249.57 86.9685 249.357Z" fill="#FCFDFD"/>
<path d="M188.679 249.356C191.455 249.362 192.336 253.744 189.761 254.496C185.373 255.778 184.984 249.349 188.679 249.356Z" fill="#FCFDFD"/>
<path d="M203.016 253.414C205.068 252.987 205.107 256.827 202.746 255.849C201.755 255.438 202.124 253.6 203.016 253.414Z" fill="#626567"/>
<path d="M72.6312 253.685C74.1912 253.726 74.0759 256.716 72.0902 256.119C70.7744 255.724 71.6736 253.659 72.6312 253.685Z" fill="#636566"/>
<path d="M137.824 254.767C139.286 254.644 139.545 257.012 138.094 257.201C136.517 257.407 136.237 254.9 137.824 254.767Z" fill="#66696A"/>
<path d="M76.1482 256.931C77.5359 256.714 77.7385 258.801 76.6892 259.095C75.3201 259.478 74.6709 257.161 76.1482 256.931Z" fill="#616465"/>
<path d="M198.958 257.201C200.249 256.618 201.059 258.352 200.04 258.824C199.106 259.258 197.892 257.683 198.958 257.201Z" fill="#646565"/>
<path d="M89.944 257.742C92.2961 257.464 90.0144 265.419 91.1613 267.075L109.826 284.928C108.972 289.246 108.004 285.336 107.662 284.928C102.772 279.094 95.2652 273.387 90.0793 267.616C89.3992 265.25 90.0801 262.691 89.8088 260.312C89.7896 260.144 87.7494 258.001 89.944 257.742Z" fill="#636364"/>
<path d="M185.704 257.742C188.165 257.397 186.389 260.137 186.38 260.312C186.294 261.98 186.601 266.294 186.11 267.616C185.672 268.79 170.369 282.246 167.986 284.928C167.931 284.989 168.074 286.214 167.309 286.416C166.325 286.677 165.635 285.507 166.092 284.658L185.028 267.075C185.483 264.788 185.333 262.359 185.298 260.042C185.296 259.902 183.936 257.99 185.704 257.742Z" fill="#666769"/>
<path d="M97.2477 258.013C98.4192 257.466 99.3822 259.522 98.0592 259.906C96.6295 260.321 96.4699 258.376 97.2477 258.013Z" fill="#626363"/>
<path d="M177.859 258.013C179.074 257.449 179.959 259.588 178.67 259.906C177.641 260.161 176.926 258.445 177.859 258.013Z" fill="#616465"/>
<path d="M117.265 259.636C123.504 258.715 123.982 267.478 119.159 268.292C113.057 269.322 112.083 260.4 117.265 259.636ZM117.536 260.988C114.324 261.465 114.462 267.422 118.618 266.939C122.259 266.517 121.628 260.38 117.536 260.988Z" fill="#646465"/>
<path d="M156.759 259.636C163.015 258.667 163.627 267.674 158.382 268.292C152.367 269.001 151.821 260.4 156.759 259.636ZM157.3 260.988C154.007 261.361 154.303 267.27 158.112 266.939C161.85 266.615 161.104 260.558 157.3 260.988Z" fill="#646565"/>
<path d="M68.8442 260.988C70.7859 260.682 76.6863 261.464 78.312 262.611C80.2978 264.013 80.1342 267.628 81.8286 269.104C81.9506 269.21 82.7708 268.996 82.9106 269.104C83.7887 269.777 82.1814 271.727 80.3408 269.239C79.5666 268.192 79.5999 266.51 78.9883 265.452C75.4966 259.412 61.4948 261.324 63.0283 271.132C64.4068 279.95 78.3177 274.641 83.4517 276.137C85.7412 276.804 98.8438 293.209 102.522 295.208C103.251 295.896 102.502 296.496 101.711 296.29C100.017 295.849 85.8835 279.609 83.1812 277.489C77.9079 276.053 69.5194 279.15 65.0571 276.137C59.0673 272.092 61.9625 262.076 68.8442 260.988Z" fill="#656667"/>
<path d="M101.576 260.988C103.097 260.259 103.458 262.474 102.658 262.882C101.31 263.569 100.556 261.477 101.576 260.988Z" fill="#636566"/>
<path d="M117.536 260.988C121.629 260.381 122.259 266.517 118.618 266.94C114.462 267.422 114.324 261.465 117.536 260.988Z" fill="#FDFDFE"/>
<path d="M157.3 260.988C161.104 260.558 161.85 266.615 158.112 266.939C154.303 267.27 154.007 261.361 157.3 260.988Z" fill="#FDFDFE"/>
<path d="M173.801 260.988C175.426 260.739 175.243 263.259 174.072 263.152C173.586 263.108 172.155 261.241 173.801 260.988Z" fill="#5E6060"/>
<path d="M203.016 260.988C217.56 259.801 216.817 276.102 208.156 277.489C204.479 278.078 196.623 276.244 193.278 277.219C191.269 277.804 176.323 295.539 174.478 296.019C173.53 296.266 173.255 295.814 173.666 294.937C175.617 290.779 189.338 281.495 192.196 276.407C197.843 274.744 211.747 279.719 213.16 271.132C214.811 261.102 200.268 259.374 196.93 265.452C196.298 266.602 196.215 269.819 194.631 270.186C190.839 271.063 194.92 268.322 195.036 268.157C195.559 267.413 195.604 265.569 196.118 264.64C197.558 262.039 200.196 261.218 203.016 260.988Z" fill="#646565"/>
<path d="M137.283 261.529C138.466 261.087 139.761 262.5 138.635 263.423C137.434 264.407 135.781 262.091 137.283 261.529Z" fill="#66696A"/>
<path d="M103.469 262.611C104.489 262.356 105.218 264.059 104.281 264.505C102.723 265.247 102.286 262.907 103.469 262.611Z" fill="#666768"/>
<path d="M171.908 262.611C173.056 262.078 173.935 264.168 172.719 264.505C171.271 264.906 171.14 262.968 171.908 262.611Z" fill="#636466"/>
<path d="M178.67 263.423C179.505 263.55 179.642 265.017 178.941 265.316C177.676 265.856 177.343 263.22 178.67 263.423Z" fill="#616365"/>
<path d="M96.977 263.693C98.0896 263.171 98.708 264.937 97.7885 265.316C96.9191 265.675 95.9274 264.186 96.977 263.693Z" fill="#666866"/>
<path d="M105.092 264.505C106.657 264.025 106.765 266.183 105.633 266.398C104.408 266.631 103.998 264.841 105.092 264.505Z" fill="#656565"/>
<path d="M170.014 264.505C171.573 263.763 172.009 266.103 170.826 266.399C169.806 266.654 169.077 264.951 170.014 264.505Z" fill="#636666"/>
<path d="M192.196 264.775C193.091 264.522 193.883 265.32 193.684 266.263L173.801 285.605C172.524 285.584 172.463 284.993 172.584 283.846L192.196 264.775Z" fill="#626464"/>
<path d="M68.8444 265.046C74.5316 264.197 75.3555 272.291 71.0085 273.161C64.4746 274.469 64.0721 265.758 68.8444 265.046ZM69.3854 266.398C66.1845 266.666 66.3687 272.507 70.1969 271.809C73.1823 271.264 72.6083 266.129 69.3854 266.398Z" fill="#606162"/>
<path d="M83.1812 265.046L103.875 284.387L103.469 285.875L82.7754 266.534L83.1812 265.046Z" fill="#666667"/>
<path d="M205.18 265.316C211.064 264.147 211.79 272.341 207.344 273.161C201.51 274.237 200.934 266.16 205.18 265.316ZM205.451 266.669C203.078 267.211 203.132 271.271 205.451 271.808C210.23 272.917 210.144 265.596 205.451 266.669Z" fill="#656666"/>
<path d="M69.385 266.398C72.6078 266.129 73.1819 271.264 70.1965 271.809C66.3683 272.507 66.1841 266.666 69.385 266.398Z" fill="#FCFDFD"/>
<path d="M106.986 266.398C108.457 266.229 108.266 268.459 107.256 268.562C106.224 268.669 105.558 266.563 106.986 266.398Z" fill="#5F5E5E"/>
<path d="M168.662 266.398C169.808 266.112 170.204 267.889 169.473 268.292C168.034 269.085 167.403 266.713 168.662 266.398Z" fill="#5F6063"/>
<path d="M100.493 266.669C101.586 266.605 101.66 268.413 100.764 268.562C99.8567 268.713 99.1028 266.751 100.493 266.669Z" fill="#626364"/>
<path d="M175.154 266.669C176.539 266.327 176.596 268.508 175.424 268.563C174.493 268.606 174.113 266.926 175.154 266.669Z" fill="#676969"/>
<path d="M205.451 266.669C210.144 265.596 210.23 272.917 205.451 271.809C203.132 271.271 203.078 267.211 205.451 266.669Z" fill="#FCFCFD"/>
<path d="M137.553 268.022C139.421 267.451 139.637 270.827 137.553 270.186C136.696 269.922 136.65 268.298 137.553 268.022Z" fill="#646768"/>
<path d="M108.338 268.563C109.554 267.999 110.439 270.138 109.15 270.456C108.12 270.71 107.406 268.995 108.338 268.563Z" fill="#656463"/>
<path d="M166.497 268.562C167.901 267.912 168.449 270.396 167.038 270.456C166.366 270.485 165.532 269.01 166.497 268.562Z" fill="#636566"/>
<path d="M172.178 269.104C173.405 269.1 173.323 271.755 171.637 270.997C170.974 270.699 171.429 269.106 172.178 269.104Z" fill="#616464"/>
<path d="M103.469 269.374C104.535 269.111 104.968 270.652 104.281 270.997C102.879 271.701 102.253 269.674 103.469 269.374Z" fill="#65686A"/>
<path d="M76.1482 270.727C78.7421 272.889 81.9381 271.764 85.3454 272.35C91.2152 278.223 96.7514 284.653 102.928 290.203C103.352 290.584 106.882 291.66 102.928 292.367L84.8044 273.432C82.794 272.335 72.4474 274.843 76.1482 270.727Z" fill="#636464"/>
<path d="M199.77 270.727C200.235 270.72 200.978 271.709 200.987 271.944C201.075 274.111 193.38 272.198 191.655 273.161L173.26 291.826C169.307 291.119 172.837 290.043 173.26 289.662C175.746 287.429 189.897 272.394 191.114 272.079C192.792 271.644 196.536 272.092 198.417 271.809C198.503 271.796 199.435 270.731 199.77 270.727Z" fill="#616363"/>
<path d="M111.314 270.997C112.309 270.851 112.683 272.499 111.855 272.891C110.578 273.494 110.063 271.181 111.314 270.997Z" fill="#636566"/>
<path d="M164.063 270.997C165.306 270.682 165.9 272.564 164.604 272.891C163.415 273.191 162.963 271.276 164.063 270.997Z" fill="#606364"/>
<path d="M168.932 271.808C169.999 271.511 170.794 273.472 169.473 273.702C168.188 273.926 168.145 272.028 168.932 271.808Z" fill="#636766"/>
<path d="M106.174 272.079C107.251 271.574 107.93 273.259 106.986 273.702C105.909 274.208 105.23 272.523 106.174 272.079Z" fill="#656666"/>
<path d="M108.88 274.514C110.039 274.223 110.549 276.076 109.421 276.407C107.834 276.873 107.954 274.745 108.88 274.514Z" fill="#656664"/>
<path d="M166.227 274.514C167.403 273.968 168.234 276.119 167.039 276.407C165.803 276.706 165.334 274.928 166.227 274.514Z" fill="#656668"/>
<path d="M160.276 275.866C161.327 275.375 162.446 277.241 161.358 277.76C159.95 278.43 159.289 276.327 160.276 275.866Z" fill="#656868"/>
<path d="M114.56 276.137C115.732 275.59 116.695 277.646 115.372 278.03C113.942 278.445 113.782 276.5 114.56 276.137Z" fill="#646766"/>
<path d="M162.17 278.301C163.189 278.046 163.918 279.748 162.981 280.194C161.423 280.936 160.986 278.597 162.17 278.301Z" fill="#646567"/>
<path d="M82.0993 278.571C82.854 278.465 83.6685 280.356 82.3698 280.465C81.2859 280.556 81.2061 278.697 82.0993 278.571Z" fill="#606264"/>
<path d="M112.937 278.571C114.378 278.155 114.916 280.142 113.749 280.465C112.601 280.782 111.7 278.93 112.937 278.571Z" fill="#636564"/>
<path d="M193.278 278.842C194.784 278.187 194.977 280.249 194.089 280.465C193.17 280.688 192.349 279.246 193.278 278.842Z" fill="#5D5F60"/>
<path d="M76.4186 279.112C77.5901 278.565 78.5531 280.622 77.2301 281.006C75.8004 281.421 75.6408 279.475 76.4186 279.112Z" fill="#636665"/>
<path d="M198.959 279.112C200.388 278.697 200.548 280.643 199.77 281.006C198.599 281.553 197.636 279.496 198.959 279.112Z" fill="#646664"/>
<path d="M136.471 281.006C188.293 279.252 190.749 356.522 140.799 359.453C88.0698 362.548 85.2419 282.74 136.471 281.006ZM134.307 283.17C87.2191 287.299 91.8988 361.734 142.152 357.289C189.28 353.121 184.392 278.779 134.307 283.17Z" fill="#646565"/>
<path d="M85.0749 281.817C86.33 281.525 86.6603 283.492 85.6159 283.711C84.6745 283.908 83.9203 282.086 85.0749 281.817Z" fill="#646567"/>
<path d="M190.302 281.817C191.378 281.358 191.981 283.541 190.843 283.711C189.826 283.862 189.493 282.163 190.302 281.817Z" fill="#626669"/>
<path d="M58.5649 282.088C62.411 281.681 64.7955 285.747 62.7578 288.986C62.3409 289.648 60.7493 290.384 60.5937 290.879C60.4236 291.421 60.6357 301.72 60.8642 302.241C61.1615 302.917 62.6629 302.465 63.4341 302.917C64.3373 303.447 66.9193 306.808 67.4917 306.974L96.436 306.704L96.0303 304.405C98.4172 302.254 97.4193 306.082 97.9238 307.38L66.9507 308.057C65.4867 307.476 63.747 304.173 62.6225 303.728C58.7984 302.216 50.0253 304.299 46.9331 302.646C45.554 301.91 44.8007 299.153 43.2812 298.183C43.2396 296.334 45.9495 296.339 46.2568 297.642C46.6244 299.2 45.247 300.661 48.2856 302.105L59.7822 301.97C59.6351 300.472 59.9889 291.564 59.5117 290.879C59.4338 290.768 57.4772 290.551 56.9419 290.203C53.5191 287.975 54.8638 282.479 58.5649 282.088ZM58.8354 283.44C56.5927 283.718 55.2098 287.381 57.4829 288.85C62.4849 292.085 63.9848 282.804 58.8354 283.44Z" fill="#656667"/>
<path d="M216.812 282.088C221.314 281.684 223.373 287.693 219.517 290.203C218.982 290.552 217.025 290.768 216.947 290.879C216.63 291.335 216.477 301.443 216.677 301.97L228.173 302.106C230.23 300.55 230.292 299.532 230.473 297.101C231.825 296.004 233.517 297.146 232.907 298.724C232.741 299.154 231.652 299.288 231.284 299.806C230.812 300.472 230.179 302.423 228.985 302.917C226.008 304.15 217.05 302.328 213.836 303.729C213.178 304.016 211.074 307.262 210.049 307.786L177.994 307.38C178.973 306.179 177.462 302.891 179.888 304.134L179.752 306.704L209.238 306.975C209.934 306.772 212.152 303.564 213.025 302.917C213.532 302.541 215.33 302.603 215.595 301.97C215.809 301.458 216.036 291.407 215.865 290.879C215.713 290.407 213.442 289.17 213.16 287.904C212.631 285.528 214.143 282.327 216.812 282.088ZM217.083 283.441C213.381 283.673 213.711 290.021 217.894 289.392C221.234 288.889 220.879 283.202 217.083 283.441Z" fill="#646565"/>
<path d="M79.935 283.17C81.413 282.838 81.2921 285.24 80.2055 285.334C79.1232 285.428 78.9441 283.393 79.935 283.17Z" fill="#606465"/>
<path d="M134.307 283.17C184.392 278.779 189.28 353.121 142.152 357.289C91.8989 361.734 87.2191 287.298 134.307 283.17ZM137.283 284.523C136.959 284.752 137.241 286.573 137.147 287.092C139.636 287.789 139.006 286.568 139.041 284.658C138.908 284.47 137.372 284.459 137.283 284.523ZM133.495 284.793C132.408 285.347 135.893 290.983 135.254 284.928C135.129 284.752 133.654 284.712 133.495 284.793ZM141.07 284.793C139.084 285.875 142.871 290.546 142.557 284.928C142.432 284.752 141.213 284.715 141.07 284.793ZM130.249 285.334C128.845 286.331 132.747 291.046 131.737 285.469C131.499 285.282 130.341 285.269 130.249 285.334ZM144.586 285.334C142.87 288.587 145.941 289.458 146.074 285.74L144.586 285.334ZM128.085 285.875C126.606 285.291 126.802 287.942 127.138 288.715L127.815 289.121C129.809 289.354 128.369 285.987 128.085 285.875ZM147.832 286.146C147.727 286.202 147.094 288.283 147.156 288.445C148.37 291.624 150.876 284.524 147.832 286.146ZM124.569 287.228C122.868 287.269 124.325 290.169 125.11 290.203C126.725 289.92 125.497 287.205 124.569 287.228ZM151.349 287.228C150.814 287.361 150.635 289.149 150.132 289.527C152.095 291.256 151.974 289.246 152.837 287.904C152.46 287.796 151.637 287.156 151.349 287.228ZM121.864 288.58C121.779 288.562 120.359 289.26 120.646 289.797C123.454 294.364 123.215 288.874 121.864 288.58ZM134.577 288.58C94.4738 292.427 98.5571 356.523 142.422 351.879C182.112 347.677 177.144 284.497 134.577 288.58ZM154.325 288.58C152.73 288.925 153.087 294.498 155.812 289.527C155.791 289.413 154.515 288.539 154.325 288.58ZM118.888 290.203C115.902 291.308 120.685 294.723 120.376 291.961C120.363 291.847 119.133 290.212 118.888 290.203ZM157.3 290.203L155.812 292.232C156.714 294.779 159.873 291.071 157.3 290.203ZM116.183 292.097C114.587 292.124 115.605 295.205 117.265 295.072C119.037 294.725 116.488 292.092 116.183 292.097ZM160.005 292.097C159.827 292.494 158.233 294.252 158.247 294.396C158.44 296.421 162.971 293.674 160.005 292.097ZM113.748 294.261L112.531 295.478C114.956 298.715 116.946 296.629 113.748 294.261ZM162.169 294.531C160.315 295.09 160.523 299.565 163.657 295.749C163.702 295.295 162.72 294.365 162.169 294.531ZM111.584 296.695C109.792 296.693 110.758 299.689 112.666 299.671C114.472 299.108 111.785 296.696 111.584 296.695ZM164.874 296.695C163.428 296.698 161.477 302.042 166.092 298.183C166.158 297.874 164.97 296.695 164.874 296.695ZM109.42 299.4C107.667 299.651 109.238 302.256 110.773 302.376C112.594 301.417 109.667 299.365 109.42 299.4ZM166.768 299.671C165.894 299.678 164.284 301.56 165.686 302.376C167.255 302.245 169.008 299.654 166.768 299.671ZM107.527 302.376C104.425 303.006 110.2 306.61 109.826 303.864C109.792 303.617 107.839 302.312 107.527 302.376ZM168.661 302.376C168.096 302.372 165.479 304.625 167.309 305.081C168.589 305.4 170.799 302.392 168.661 302.376ZM105.904 305.081C103.737 305.627 107.676 309.79 108.203 306.569C107.855 306.423 106.036 305.048 105.904 305.081ZM170.284 305.352C170.149 305.333 168.015 306.591 167.985 306.839C168.948 309.396 172.842 305.701 170.284 305.352ZM104.822 308.327C102.788 308.729 105.484 311.58 106.715 310.762C108.219 309.763 105.041 308.284 104.822 308.327ZM171.366 308.598C168.788 308.415 168.423 312.179 172.313 310.086C172.115 309.201 172.297 308.663 171.366 308.598ZM103.74 311.573C103.216 311.767 103.187 313.204 103.469 313.467C108.709 314.613 104.787 311.185 103.74 311.573ZM172.449 311.844C172.351 311.834 170.636 312.329 170.555 312.385C168.75 313.628 173.976 314.798 173.125 311.979C172.985 311.738 172.674 311.867 172.449 311.844ZM102.928 315.09C101.037 317.157 105.333 317.064 105.498 316.578C105.999 315.097 103.799 315.27 102.928 315.09ZM172.719 315.09C169.894 314.961 170.404 318.197 173.936 316.578C173.422 315.355 174.141 315.155 172.719 315.09ZM173.801 318.336L171.231 319.283C171.419 319.97 175.282 320.132 173.801 318.336ZM102.387 318.606C100.997 319.357 104.912 319.747 105.227 319.283C105.388 318.319 102.524 318.533 102.387 318.606ZM102.387 321.312C100.976 322.074 104.826 322.473 105.227 321.988C105.962 321.099 102.58 321.207 102.387 321.312ZM171.637 321.312C169.83 321.849 172.957 323.038 173.936 322.258C174.254 321.52 171.756 321.276 171.637 321.312ZM102.928 324.017C101.245 324.656 104.154 326.445 105.498 325.234C106.2 323.798 103.714 323.718 102.928 324.017ZM171.366 324.017C169.619 325.507 173.268 326.035 173.666 325.504C174.048 323.731 172.585 324.468 171.366 324.017ZM105.092 326.992C105.003 326.98 103.388 327.326 103.334 327.398C101.254 330.185 109.269 327.561 105.092 326.992ZM170.825 326.992C169.251 328.038 172.505 328.711 172.854 328.48L172.719 327.263L170.825 326.992ZM106.445 329.697C102.435 330.372 104.303 333.445 107.121 330.915L106.445 329.697ZM170.014 329.697C169.57 330.145 169.012 330.879 169.743 331.32C173.158 332.811 173.417 329.866 170.014 329.697ZM107.527 332.673C105.016 332.083 104.169 337.25 108.203 333.89C108.254 333.684 107.732 332.721 107.527 332.673ZM168.661 332.673C168.525 332.731 168.177 333.618 168.256 333.89C169.728 334.842 170.714 335.905 171.231 333.62C170.741 333.384 169.074 332.498 168.661 332.673ZM108.609 335.648C107.494 335.639 105.911 337.739 107.527 338.083C108.734 338.34 111.012 335.668 108.609 335.648ZM167.309 335.648C165.219 336.295 169.568 339.86 169.608 336.595C169.036 336.417 167.852 335.481 167.309 335.648ZM110.502 338.354C110.376 338.348 108.496 339.672 108.473 339.841C108.07 342.858 113.681 338.49 110.502 338.354ZM165.686 338.354C163.994 339.529 166.05 340.55 167.309 340.788C168.568 339.55 167.055 338.752 165.686 338.354ZM112.396 340.788C111.754 340.749 109.287 343.463 111.314 343.764C112.207 343.896 114.399 340.91 112.396 340.788ZM163.792 340.788C161.875 341.184 164.318 343.763 164.874 343.764C167.058 343.765 165.034 340.532 163.792 340.788ZM114.56 343.223C113.927 343.23 111.826 345.276 113.478 345.928C114.811 346.058 116.471 343.201 114.56 343.223ZM161.628 343.223C161.495 343.239 160.917 344.017 160.681 344.169C164.56 348.835 163.928 342.941 161.628 343.223ZM116.724 345.387C115.712 345.543 114.582 348.251 116.183 348.362C116.986 348.418 119.005 345.033 116.724 345.387ZM159.194 345.387C157.692 346.391 159.296 347.376 160.005 348.362L161.222 347.145L159.194 345.387ZM119.158 347.28C118.838 347.361 118.153 349.048 117.671 349.309C119.685 351.977 121.267 346.751 119.158 347.28ZM156.759 347.28C156.692 347.284 155.798 347.986 155.812 348.227C156.843 349.471 157.257 351.505 158.517 349.039C157.901 348.717 157.492 347.246 156.759 347.28ZM121.864 348.903C119.74 349.46 121.478 355.031 123.081 349.58C123.015 349.366 122.07 348.849 121.864 348.903ZM154.325 348.903C152.319 349.017 153.765 351.843 154.595 351.879C156.224 351.95 155.14 349.277 154.325 348.903ZM124.839 350.256L123.622 352.826C125.625 354.305 125.332 352.541 126.056 350.932L124.839 350.256ZM151.349 350.256C149.946 350.13 150.398 353.317 151.89 353.231C153.606 353.133 151.791 350.295 151.349 350.256ZM127.544 351.608C127.355 351.7 126.792 353.696 126.868 353.908L128.085 354.584C128.933 353.703 129.376 350.727 127.544 351.608ZM147.562 351.608C146.931 351.819 147.683 355.863 149.455 354.043C149.417 352.922 149.078 351.102 147.562 351.608ZM130.79 352.42C130.29 352.65 130.101 354.423 130.114 354.99C132.252 356.531 132.791 351.499 130.79 352.42ZM144.586 352.42C143.661 352.849 144.567 354.345 144.451 354.99L145.939 355.125C146.482 354.741 146.012 351.759 144.586 352.42ZM134.036 352.961C133.511 353.21 133.586 354.946 133.09 355.531L135.118 355.937C135.416 355.022 136.004 352.029 134.036 352.961ZM141.07 352.961C140.147 353.42 141.229 355.074 140.934 355.801L142.693 355.666C142.725 354.457 142.79 352.106 141.07 352.961ZM137.283 353.231C136.959 353.461 137.241 355.282 137.147 355.801C139.636 356.498 139.006 355.277 139.041 353.367C138.908 353.179 137.372 353.168 137.283 353.231Z" fill="#FBFBFC"/>
<path d="M58.8353 283.44C63.9847 282.804 62.4848 292.085 57.4828 288.851C55.2097 287.381 56.5926 283.718 58.8353 283.44Z" fill="#FDFDFD"/>
<path d="M195.712 283.441C196.749 283.184 197.452 284.917 196.524 285.334C195.062 285.991 194.557 283.726 195.712 283.441Z" fill="#616363"/>
<path d="M217.082 283.44C220.879 283.202 221.234 288.889 217.894 289.392C213.71 290.021 213.38 283.672 217.082 283.44Z" fill="#FCFCFC"/>
<path d="M137.283 284.522C137.372 284.459 138.908 284.47 139.041 284.658C139.006 286.568 139.636 287.789 137.147 287.092C137.241 286.573 136.959 284.752 137.283 284.522Z" fill="#626264"/>
<path d="M133.496 284.793C133.654 284.712 135.129 284.752 135.254 284.928C135.893 290.983 132.408 285.347 133.496 284.793Z" fill="#646666"/>
<path d="M141.07 284.793C141.213 284.715 142.432 284.751 142.558 284.928C142.871 290.546 139.085 285.875 141.07 284.793Z" fill="#626465"/>
<path d="M81.2875 285.064C82.5029 284.5 83.388 286.639 82.099 286.957C81.0695 287.211 80.3551 285.496 81.2875 285.064Z" fill="#626265"/>
<path d="M187.327 285.063C188.351 285 188.568 286.717 187.597 286.957C186.225 287.296 186.14 285.136 187.327 285.063Z" fill="#6A6A69"/>
<path d="M193.819 285.063C194.967 284.527 195.808 286.458 194.901 286.957C193.603 287.671 192.773 285.552 193.819 285.063Z" fill="#636262"/>
<path d="M88.0504 285.334C89.2693 284.726 90.1871 286.468 89.1324 286.957C88.0688 287.45 87.1969 285.759 88.0504 285.334Z" fill="#676968"/>
<path d="M130.249 285.334C130.341 285.269 131.499 285.282 131.737 285.469C132.747 291.045 128.845 286.331 130.249 285.334Z" fill="#616162"/>
<path d="M144.586 285.334L146.074 285.74C145.941 289.458 142.87 288.587 144.586 285.334Z" fill="#606161"/>
<path d="M128.085 285.875C128.369 285.987 129.809 289.354 127.815 289.121L127.139 288.715C126.802 287.942 126.606 285.291 128.085 285.875Z" fill="#626362"/>
<path d="M147.832 286.146C150.876 284.524 148.37 291.624 147.156 288.445C147.094 288.283 147.727 286.202 147.832 286.146Z" fill="#616262"/>
<path d="M83.1812 286.957C84.7004 286.497 84.9622 288.552 83.9927 288.85C82.8358 289.207 81.8279 287.367 83.1812 286.957Z" fill="#656667"/>
<path d="M192.196 286.957C193.631 286.517 193.929 288.554 193.007 288.851C191.398 289.368 191.113 287.289 192.196 286.957Z" fill="#636665"/>
<path d="M124.569 287.227C125.497 287.205 126.726 289.92 125.11 290.203C124.325 290.169 122.868 287.269 124.569 287.227Z" fill="#626263"/>
<path d="M151.349 287.228C151.637 287.156 152.46 287.796 152.837 287.904C151.974 289.246 152.095 291.256 150.132 289.527C150.635 289.149 150.815 287.361 151.349 287.228Z" fill="#656667"/>
<path d="M90.7552 287.769C91.6966 287.572 92.4508 289.393 91.2962 289.662C90.0411 289.954 89.7108 287.987 90.7552 287.769Z" fill="#67696A"/>
<path d="M184.892 287.769C186.032 287.605 186.257 289.536 185.163 289.662C184.116 289.783 183.972 287.9 184.892 287.769Z" fill="#656767"/>
<path d="M121.864 288.58C123.215 288.874 123.454 294.364 120.646 289.797C120.359 289.26 121.779 288.562 121.864 288.58Z" fill="#636262"/>
<path d="M134.578 288.58C177.144 284.496 182.112 347.676 142.422 351.879C98.5573 356.523 94.4739 292.427 134.578 288.58ZM136.471 290.474C97.686 292.432 100.627 353.141 140.799 349.985C178.786 347.002 175.211 288.517 136.471 290.474Z" fill="#646565"/>
<path d="M154.325 288.58C154.515 288.539 155.792 289.413 155.813 289.527C153.088 294.498 152.73 288.925 154.325 288.58Z" fill="#606262"/>
<path d="M85.0748 288.85C86.5036 288.408 86.8125 290.442 85.8863 290.744C84.3704 291.237 83.8605 289.226 85.0748 288.85Z" fill="#5F6163"/>
<path d="M190.032 288.85C191.361 288.12 192.294 290.386 191.114 290.744C189.738 291.162 189.234 289.289 190.032 288.85Z" fill="#656767"/>
<path d="M118.888 290.203C119.133 290.212 120.363 291.847 120.376 291.961C120.685 294.723 115.902 291.308 118.888 290.203Z" fill="#656564"/>
<path d="M157.3 290.203C159.873 291.071 156.714 294.779 155.812 292.232L157.3 290.203Z" fill="#626363"/>
<path d="M87.2385 290.474C88.5421 290.584 88.0609 293.026 86.6975 292.638C85.5768 292.319 86.3269 290.396 87.2385 290.474Z" fill="#626364"/>
<path d="M93.1899 290.744C94.2665 290.239 94.946 291.924 94.0014 292.367C92.9248 292.873 92.2453 291.188 93.1899 290.744Z" fill="#676B6D"/>
<path d="M181.917 290.744C182.992 290.246 184.003 292.015 182.728 292.367C181.401 292.734 181.102 291.122 181.917 290.744Z" fill="#656769"/>
<path d="M188.138 290.744C189.833 289.926 190.315 292.32 189.22 292.638C188.28 292.91 187.265 291.166 188.138 290.744Z" fill="#60605F"/>
<path d="M116.183 292.097C116.488 292.092 119.037 294.725 117.265 295.072C115.605 295.205 114.587 292.123 116.183 292.097Z" fill="#696665"/>
<path d="M160.005 292.097C162.972 293.674 158.44 296.42 158.247 294.396C158.233 294.252 159.827 292.494 160.005 292.097Z" fill="#656565"/>
<path d="M88.3209 292.367C89.2106 292.19 89.9512 293.668 89.1324 293.99C87.4928 294.635 87.2697 292.577 88.3209 292.367Z" fill="#5E5F61"/>
<path d="M187.056 292.367C188.259 292.07 188.687 293.992 187.597 294.261C186.395 294.558 185.967 292.636 187.056 292.367Z" fill="#656769"/>
<path d="M184.892 293.72C186.034 293.434 186.765 295.548 185.433 295.884C184.15 296.207 183.786 293.997 184.892 293.72Z" fill="#636566"/>
<path d="M113.749 294.261C116.946 296.629 114.956 298.715 112.531 295.478L113.749 294.261Z" fill="#676666"/>
<path d="M90.2144 294.531C91.7398 293.805 92.2413 296.077 91.0259 296.425C89.7826 296.78 89.4058 294.916 90.2144 294.531Z" fill="#656666"/>
<path d="M137.283 294.531C142.234 292.912 139.165 298.518 140.529 299.671C140.789 299.891 145.409 300.467 147.021 301.564C148.122 302.314 151.868 307.496 149.996 308.327C148.67 307.896 144.947 308.796 144.045 308.598C143.802 308.544 141.037 305.588 140.258 305.351L139.852 315.496C142.498 317.061 145.713 317.608 148.103 319.688C153.275 324.191 152.074 333.469 146.48 337.001C145.378 337.697 140.022 339.14 139.852 339.571C139.527 340.395 140.369 344.164 139.447 344.575C135.191 346.474 137.165 340.584 136.471 339.706C135.965 339.065 128.569 339.493 125.786 334.431C125.252 333.461 123.399 328.074 124.839 327.533C125.182 327.404 130.547 327.091 130.79 327.263C131.133 327.505 130.482 333.127 134.307 334.296C135.169 334.56 137.035 334.878 137.418 333.89C137.647 333.297 137.608 321.783 137.418 321.176C134.815 318.973 130.87 318.976 128.085 316.713C123.207 312.749 124.956 304.956 129.979 301.835C131.286 301.023 136.419 299.812 136.606 299.265C136.902 298.404 135.394 295.149 137.283 294.531ZM136.742 304.54C135.144 304.186 131.698 307.2 131.467 309.003C130.944 313.066 136.738 316.039 137.418 314.143V304.946C137.202 304.642 137.077 304.614 136.742 304.54ZM140.258 322.123C139.723 322.333 139.604 333.101 139.852 333.62C140.624 335.233 143.718 332.131 144.18 331.185C146.234 326.983 144.304 323.685 140.258 322.123Z" fill="#5A5B5B"/>
<path d="M162.169 294.531C162.72 294.365 163.702 295.296 163.657 295.749C160.523 299.565 160.315 295.09 162.169 294.531Z" fill="#636464"/>
<path d="M96.9773 294.802C98.0068 294.547 98.7212 296.263 97.7888 296.695C96.5734 297.259 95.6883 295.12 96.9773 294.802Z" fill="#5E6261"/>
<path d="M178.4 294.802C179.624 294.499 180.009 296.459 178.941 296.695C177.901 296.925 177.192 295.1 178.4 294.802Z" fill="#5B5C5F"/>
<path d="M196.524 294.802C202.347 294.148 202.945 302.619 198.147 303.458C191.94 304.544 191.161 295.405 196.524 294.802ZM196.524 296.154C193.309 296.762 193.565 302.804 197.876 302.106C201.51 301.517 200.271 295.446 196.524 296.154Z" fill="#646565"/>
<path d="M78.0417 295.072C84.7211 293.607 85.547 302.795 80.2058 303.458C74.3796 304.182 73.7539 296.013 78.0417 295.072ZM78.5828 296.425C75.3978 297.162 76.2245 302.75 80.2058 302.106C83.5771 301.559 83.014 295.399 78.5828 296.425Z" fill="#656566"/>
<path d="M196.524 296.154C200.271 295.446 201.51 301.517 197.876 302.105C193.565 302.804 193.309 296.762 196.524 296.154Z" fill="#FDFDFE"/>
<path d="M78.5827 296.425C83.0139 295.399 83.5771 301.559 80.2058 302.106C76.2244 302.75 75.3978 297.162 78.5827 296.425Z" fill="#FDFDFE"/>
<path d="M95.6247 296.695C96.4024 296.606 97.0519 298.173 96.1657 298.589C94.8613 299.201 94.3985 296.837 95.6247 296.695Z" fill="#646568"/>
<path d="M111.585 296.695C111.786 296.696 114.472 299.108 112.667 299.671C110.759 299.689 109.793 296.693 111.585 296.695Z" fill="#6B6969"/>
<path d="M164.875 296.695C164.971 296.695 166.159 297.874 166.092 298.183C161.478 302.042 163.429 296.697 164.875 296.695Z" fill="#656666"/>
<path d="M179.752 296.695C180.828 296.197 181.839 297.966 180.564 298.318C179.237 298.685 178.938 297.073 179.752 296.695Z" fill="#636464"/>
<path d="M109.42 299.4C109.667 299.365 112.594 301.416 110.773 302.376C109.238 302.256 107.667 299.651 109.42 299.4Z" fill="#656666"/>
<path d="M166.768 299.671C169.008 299.654 167.255 302.245 165.686 302.376C164.284 301.56 165.894 299.678 166.768 299.671Z" fill="#646466"/>
<path d="M107.527 302.376C107.839 302.312 109.793 303.617 109.826 303.864C110.2 306.61 104.425 303.006 107.527 302.376Z" fill="#666666"/>
<path d="M168.662 302.376C170.799 302.392 168.59 305.4 167.309 305.081C165.479 304.625 168.096 302.372 168.662 302.376Z" fill="#646362"/>
<path d="M42.3344 304.54C43.6618 304.264 44.0029 305.588 44.228 305.622C46.4689 305.958 51.0902 305.1 52.8842 305.622C53.5729 305.823 56.5226 309.758 57.4829 310.221C62.9566 312.859 87.6166 309.342 95.0834 310.762L96.3007 312.25L93.1899 314.278H52.6137C51.0613 312.63 49.0863 311.064 46.6625 311.844C46.5295 311.887 45.8705 313.752 44.4985 312.926C43.2834 312.194 43.938 310.408 44.769 310.221C45.706 310.01 46.0363 310.762 46.1215 310.762C49.495 310.777 50.7881 310.393 53.1547 313.196H92.6489L93.7309 311.844H59.1059C55.4668 311.284 53.3335 307.072 52.0727 306.704C50.9009 306.363 45.399 306.707 43.687 306.704C43.5788 306.704 43.3994 307.317 42.6049 307.245C41.3874 307.136 40.706 304.879 42.3344 304.54Z" fill="#686969"/>
<path d="M233.313 304.54C234.648 304.445 235.501 306.693 234.125 307.245C233.079 307.665 232.329 306.708 232.231 306.704C230.83 306.641 225.046 306.433 224.116 306.704C223.274 306.949 220.144 311.379 217.894 311.844H182.187L183.269 313.196H223.034C223.752 312.953 225.388 310.864 225.739 310.762C227.012 310.39 234.631 309.678 231.419 312.926C229.859 313.451 229.755 311.973 229.255 311.844C226.474 311.121 225.477 312.83 223.575 314.278H182.728C182.102 312.941 177.304 311.549 181.105 310.762C190.61 308.792 207.718 312.667 217.353 310.762C219.86 310.266 222.319 305.935 223.575 305.622C225.496 305.144 229.659 305.883 231.961 305.622C232.047 305.612 232.942 304.566 233.313 304.54Z" fill="#656768"/>
<path d="M105.904 305.081C106.037 305.048 107.855 306.423 108.203 306.569C107.677 309.79 103.737 305.627 105.904 305.081Z" fill="#626262"/>
<path d="M170.285 305.352C172.842 305.701 168.949 309.396 167.985 306.839C168.016 306.591 170.149 305.333 170.285 305.352Z" fill="#606062"/>
<path d="M104.822 308.327C105.041 308.284 108.219 309.763 106.715 310.762C105.484 311.58 102.788 308.729 104.822 308.327Z" fill="#636261"/>
<path d="M171.367 308.598C172.297 308.663 172.115 309.202 172.314 310.086C168.424 312.179 168.789 308.415 171.367 308.598Z" fill="#5F5F61"/>
<path d="M103.74 311.573C104.787 311.185 108.709 314.613 103.469 313.467C103.187 313.204 103.216 311.767 103.74 311.573Z" fill="#606162"/>
<path d="M172.449 311.844C172.674 311.867 172.986 311.738 173.125 311.979C173.976 314.798 168.75 313.628 170.555 312.385C170.637 312.329 172.351 311.834 172.449 311.844Z" fill="#626262"/>
<path d="M102.928 315.09C103.799 315.27 105.999 315.097 105.498 316.578C105.333 317.064 101.037 317.157 102.928 315.09Z" fill="#5D5F60"/>
<path d="M172.719 315.09C174.141 315.155 173.423 315.355 173.937 316.578C170.405 318.197 169.895 314.961 172.719 315.09Z" fill="#626363"/>
<path d="M31.7846 315.901C37.916 314.561 39.2304 322.782 35.0307 324.287C28.3649 326.676 26.6115 317.032 31.7846 315.901ZM32.3257 317.254C28.8545 317.886 29.7383 323.751 33.6782 323.205C37.1326 322.727 36.7057 316.457 32.3257 317.254Z" fill="#646565"/>
<path d="M241.969 315.901C248.59 314.616 249.236 323.629 244.404 324.558C237.995 325.789 237.124 316.842 241.969 315.901ZM242.24 317.254C239.056 317.99 239.783 323.867 243.863 323.205C247.505 322.614 246.669 316.229 242.24 317.254Z" fill="#646566"/>
<path d="M39.3587 316.442H90.4847C93.5972 317.97 93.6418 321.543 91.2962 323.746H38.8177C36.8801 321.117 40.0667 320.106 41.5228 322.664H90.4847C92.4778 321.358 92.0285 318.573 89.9437 317.524H41.2523C40.1575 321.437 36.0131 318.498 39.3587 316.442Z" fill="#666666"/>
<path d="M197.065 316.442C210.457 316.142 223.968 316.552 237.371 316.713C239.31 317.858 237.483 320.415 235.748 319.148C235.393 318.888 235.395 317.966 235.342 317.93C232.114 315.779 192.514 319.124 185.704 317.795C184.089 319.193 183.937 321.306 185.704 322.664L234.936 322.935C235.878 320.436 238.313 320.334 238.047 323.34L237.371 324.017L185.163 323.746C183.027 322.547 182.506 317.983 184.892 316.983C186.039 316.503 195.021 316.488 197.065 316.442Z" fill="#646465"/>
<path d="M32.3258 317.254C36.7058 316.457 37.1327 322.727 33.6783 323.205C29.7384 323.751 28.8546 317.886 32.3258 317.254Z" fill="#FDFDFE"/>
<path d="M242.24 317.254C246.67 316.229 247.505 322.614 243.863 323.205C239.783 323.867 239.057 317.991 242.24 317.254Z" fill="#FDFEFE"/>
<path d="M173.801 318.336C175.282 320.132 171.419 319.97 171.231 319.283L173.801 318.336Z" fill="#5B5B5B"/>
<path d="M102.387 318.606C102.524 318.532 105.388 318.319 105.228 319.283C104.912 319.747 100.997 319.357 102.387 318.606Z" fill="#605E5E"/>
<path d="M60.9996 319.148C62.7346 318.553 62.8932 321.491 61.5406 321.582C60.5251 321.65 59.9514 319.507 60.9996 319.148Z" fill="#616466"/>
<path d="M67.2211 319.147C68.7524 318.368 69.7633 321.134 68.3031 321.582C66.6639 322.085 66.4759 319.527 67.2211 319.147Z" fill="#686B6C"/>
<path d="M73.9837 319.147C75.5735 318.654 75.9373 321.362 74.5248 321.582C73.0808 321.807 72.9141 319.48 73.9837 319.147Z" fill="#646868"/>
<path d="M80.476 319.148C82.017 318.62 82.5188 321.2 81.2875 321.582C79.7064 322.073 79.4664 319.493 80.476 319.148Z" fill="#64696A"/>
<path d="M87.2388 319.147C88.666 318.825 88.8278 321.527 87.5093 321.582C86.4 321.628 86.2112 319.38 87.2388 319.147Z" fill="#616566"/>
<path d="M188.679 319.147C189.874 319.01 190.39 321.255 189.22 321.582C187.719 322.002 187.217 319.315 188.679 319.147Z" fill="#616566"/>
<path d="M201.663 319.147C202.763 318.9 203.692 321.181 202.475 321.582C200.642 322.186 200.635 319.379 201.663 319.147Z" fill="#656768"/>
<path d="M55.0482 319.418C56.9304 318.516 57.1148 322.082 55.3187 321.582C54.6567 321.398 54.2604 319.796 55.0482 319.418Z" fill="#636668"/>
<path d="M194.901 319.418C196.593 318.917 196.865 321.224 195.712 321.582C194.305 322.019 193.735 319.763 194.901 319.418Z" fill="#656869"/>
<path d="M207.885 319.418C209.413 318.683 209.908 321.129 208.967 321.582C207.439 322.317 206.945 319.871 207.885 319.418Z" fill="#646768"/>
<path d="M214.107 319.418C215.612 318.69 216.372 321.18 215.189 321.582C213.614 322.118 213.248 319.834 214.107 319.418Z" fill="#656869"/>
<path d="M220.329 319.418C221.575 319.105 222.013 321.245 220.87 321.582C219.219 322.069 219.4 319.651 220.329 319.418Z" fill="#646668"/>
<path d="M102.387 321.312C102.58 321.207 105.962 321.099 105.227 321.988C104.826 322.473 100.976 322.074 102.387 321.312Z" fill="#626262"/>
<path d="M171.637 321.311C171.756 321.276 174.254 321.519 173.936 322.258C172.957 323.038 169.83 321.849 171.637 321.311Z" fill="#61615E"/>
<path d="M102.928 324.017C103.714 323.718 106.201 323.798 105.498 325.234C104.154 326.445 101.246 324.655 102.928 324.017Z" fill="#5C5C5C"/>
<path d="M171.366 324.017C172.585 324.468 174.048 323.731 173.666 325.504C173.268 326.035 169.619 325.507 171.366 324.017Z" fill="#636262"/>
<path d="M52.8843 325.91H93.19C93.4242 326.9 96.5207 328.011 96.5713 328.209C96.8443 329.28 91.4441 329.374 90.4849 329.427C84.5497 329.755 60.481 328.37 57.2124 330.238C56.2067 330.813 53.2571 334.649 52.6138 334.837C51.1144 335.274 46.5157 334.661 44.4986 334.837C44.3163 334.853 41.9588 336.784 41.3877 334.972C40.5348 332.265 43.765 333.747 43.9576 333.755C45.3729 333.815 51.1325 334.029 52.0728 333.755C53.0369 333.474 56.1964 328.785 58.2945 328.345H93.731L92.649 326.992H53.4253C50.8098 330.096 48.1445 329.225 44.4986 329.968C43.4528 328.896 43.6724 328.085 44.7691 327.263C46.1598 326.927 46.4065 328.45 46.9331 328.615C49.1908 329.325 51.2913 327.136 52.8843 325.91Z" fill="#686A69"/>
<path d="M182.728 325.91H223.575C225.317 327.151 226.762 329.36 229.255 328.615C229.45 328.557 231.745 325.759 232.366 328.209C233.077 331.012 229.989 329.425 229.796 329.427C226.431 329.458 225.81 330.102 223.304 326.992H183.54L182.593 327.939L217.894 328.345C220.548 328.869 223.164 333.478 224.116 333.755C224.493 333.865 231.146 334.054 231.96 334.025C232.332 334.012 233.064 332.838 234.125 333.214C236.441 338.183 232.217 334.91 231.69 334.837C229.519 334.537 225.707 335.3 223.845 334.837C222.338 334.462 219.919 329.924 217.624 329.427C208.12 327.369 190.711 331.399 180.835 329.156C177.676 328.439 182.322 327.208 182.728 325.91Z" fill="#656766"/>
<path d="M105.092 326.992C109.269 327.561 101.254 330.185 103.334 327.398C103.388 327.326 105.003 326.98 105.092 326.992Z" fill="#606161"/>
<path d="M170.826 326.992L172.719 327.263L172.855 328.48C172.505 328.711 169.251 328.038 170.826 326.992Z" fill="#606161"/>
<path d="M106.445 329.697L107.121 330.915C104.303 333.445 102.436 330.372 106.445 329.697Z" fill="#636465"/>
<path d="M170.014 329.697C173.418 329.866 173.158 332.811 169.744 331.32C169.012 330.879 169.57 330.145 170.014 329.697Z" fill="#616263"/>
<path d="M66.4095 332.402H96.7064C98.9172 333.081 97.4557 333.701 97.3826 334.702C97.3743 334.817 98.5913 336.367 96.9769 336.46C95.0687 336.57 97.2525 334.002 96.1654 333.484H66.9505C65.5366 334.503 64.5284 336.608 63.1634 337.542C62.502 337.995 61.1576 337.548 60.8641 338.218C60.6415 338.726 60.4275 348.78 60.5936 349.309C60.8809 350.224 63.837 350.964 63.5692 354.178C63.0936 359.887 53.6388 358.918 54.9129 352.555C55.4748 349.75 59.3419 349.553 59.5116 349.309C59.9441 348.689 59.6536 339.665 59.7821 338.218C56.9287 338.265 46.8959 336.909 45.9862 340.382C45.7695 341.21 46.3522 342.072 46.2567 342.546C45.8528 344.554 42.8694 343.825 43.2811 342.005C43.3528 341.688 47.2481 337.398 47.7445 337.271C51.2481 336.382 59.4042 337.834 62.3519 336.73C63.0268 336.478 65.3632 332.941 66.4095 332.402ZM58.5648 350.797C55.1715 351.35 55.7512 357.505 60.1878 356.478C63.4645 355.719 62.2191 350.202 58.5648 350.797Z" fill="#626364"/>
<path d="M179.211 332.402H210.049C211.184 333.031 213.219 336.4 214.107 336.73C217.164 337.868 224.922 336.291 228.444 337.271C230.527 337.851 230.969 340.891 232.907 341.735C233.611 343.954 230.755 344.435 230.202 342.817C230.005 342.239 230.557 341.392 230.202 340.382C228.925 336.749 219.916 338.489 216.812 338.083C216.365 338.4 216.697 348.466 216.947 349.039C217.208 349.634 222.725 349.589 221.546 354.99C220.41 360.191 209.616 358.022 214.242 350.662C214.379 350.444 215.748 349.916 215.865 349.58C216.053 349.043 215.823 338.739 215.595 338.218C215.306 337.56 213.974 337.981 213.295 337.542C212.331 336.918 210.257 333.702 209.508 333.484H180.023C179.459 340.703 177.033 333.031 179.211 332.402ZM216.542 350.797C213.325 351.507 214.087 357.524 218.435 356.478C221.503 355.74 220.645 349.891 216.542 350.797Z" fill="#656666"/>
<path d="M107.527 332.673C107.732 332.721 108.255 333.684 108.203 333.89C104.169 337.25 105.016 332.083 107.527 332.673Z" fill="#626264"/>
<path d="M168.661 332.673C169.074 332.498 170.741 333.384 171.231 333.62C170.714 335.905 169.728 334.842 168.256 333.89C168.177 333.618 168.525 332.731 168.661 332.673Z" fill="#646464"/>
<path d="M108.609 335.648C111.012 335.668 108.735 338.34 107.527 338.083C105.912 337.739 107.494 335.639 108.609 335.648Z" fill="#626364"/>
<path d="M167.309 335.648C167.852 335.481 169.036 336.417 169.608 336.595C169.568 339.86 165.219 336.295 167.309 335.648Z" fill="#676665"/>
<path d="M78.853 336.731C85.0216 335.762 85.8526 345.008 80.2055 345.387C74.5062 345.769 73.9568 337.5 78.853 336.731ZM79.1235 338.083C75.5839 338.652 76.4035 344.769 80.7465 343.764C84.0224 343.005 82.8427 337.485 79.1235 338.083Z" fill="#656666"/>
<path d="M195.983 336.73C203.188 335.174 203.332 346.635 195.983 345.116C192.064 344.307 191.954 337.601 195.983 336.73ZM196.253 338.083C193.057 338.851 193.928 344.74 198.147 343.764C201.391 343.012 200.573 337.045 196.253 338.083Z" fill="#646565"/>
<path d="M79.1237 338.083C82.8429 337.485 84.0226 343.005 80.7468 343.764C76.4038 344.769 75.5841 338.653 79.1237 338.083Z" fill="#FDFDFD"/>
<path d="M196.253 338.083C200.573 337.045 201.391 343.013 198.147 343.764C193.929 344.741 193.057 338.851 196.253 338.083Z" fill="#FDFDFD"/>
<path d="M110.502 338.354C113.681 338.49 108.07 342.857 108.474 339.841C108.496 339.672 110.377 338.348 110.502 338.354Z" fill="#646365"/>
<path d="M165.686 338.354C167.056 338.752 168.568 339.55 167.309 340.788C166.051 340.549 163.994 339.529 165.686 338.354Z" fill="#666666"/>
<path d="M112.396 340.788C114.399 340.909 112.207 343.896 111.314 343.764C109.287 343.463 111.755 340.749 112.396 340.788Z" fill="#676667"/>
<path d="M163.792 340.788C165.034 340.532 167.058 343.765 164.874 343.764C164.318 343.763 161.875 341.184 163.792 340.788Z" fill="#656563"/>
<path d="M95.3541 341.6C96.9225 341.09 96.8205 343.296 95.8951 343.493C94.9072 343.703 94.3583 341.923 95.3541 341.6Z" fill="#646866"/>
<path d="M179.753 341.87C181.091 341.24 181.705 343.215 180.564 343.493C179.478 343.758 179.08 342.187 179.753 341.87Z" fill="#606262"/>
<path d="M114.56 343.223C116.471 343.201 114.811 346.058 113.478 345.928C111.826 345.276 113.927 343.23 114.56 343.223Z" fill="#686767"/>
<path d="M161.628 343.223C163.929 342.941 164.56 348.835 160.682 344.17C160.918 344.017 161.495 343.239 161.628 343.223Z" fill="#646463"/>
<path d="M96.7066 343.493C97.8782 342.946 98.8412 345.002 97.5182 345.387C96.0885 345.802 95.9289 343.856 96.7066 343.493Z" fill="#636363"/>
<path d="M178.4 343.493C179.834 343.079 180.11 345.121 178.941 345.387C177.955 345.61 177.147 343.855 178.4 343.493Z" fill="#636364"/>
<path d="M174.072 344.034L193.007 362.97C199.659 364.263 214.067 359.067 214.513 370.138C214.93 380.518 199.316 381.639 196.118 375.548C195.178 373.759 196.075 371.298 193.142 370.95L193.548 370.003C197.326 369.755 195.985 375.516 198.958 377.036C205.115 380.183 214.712 377.02 213.16 368.786C211.675 360.905 197.859 365.027 192.466 364.052C190.679 361.342 173.537 346.322 173.395 344.981C173.347 344.524 173.857 344.326 174.072 344.034Z" fill="#646465"/>
<path d="M184.892 344.034C185.938 343.88 186.63 345.831 185.433 346.198C183.769 346.708 183.729 344.206 184.892 344.034Z" fill="#626666"/>
<path d="M90.7556 344.305C91.4968 344.242 92.6678 346.054 91.2966 346.469C89.4658 347.023 89.6538 344.398 90.7556 344.305Z" fill="#626667"/>
<path d="M101.846 344.305C102.177 344.236 103.084 344.483 103.064 344.981C99.5588 346.989 85.8503 363.432 83.7222 364.052C78.4252 365.594 64.5467 360.268 63.0284 369.056C61.6139 377.243 71.8175 380.342 77.5006 376.766C79.4671 375.528 79.9046 370.192 81.8287 370.003C85.4432 369.648 81.3994 371.713 81.1524 372.032C80.6685 372.656 80.4529 374.873 80.0704 375.548C76.4072 382.01 59.7888 380.366 61.9464 368.515C63.5329 359.801 77.2747 363.79 83.1812 362.97C85.6599 361.02 100.554 344.572 101.846 344.305Z" fill="#646565"/>
<path d="M116.724 345.387C119.005 345.033 116.986 348.418 116.183 348.362C114.582 348.251 115.712 345.543 116.724 345.387Z" fill="#696967"/>
<path d="M159.194 345.387L161.223 347.145L160.005 348.362C159.296 347.376 157.692 346.391 159.194 345.387Z" fill="#666765"/>
<path d="M119.159 347.28C121.268 346.751 119.685 351.977 117.671 349.309C118.153 349.048 118.838 347.361 119.159 347.28Z" fill="#656865"/>
<path d="M156.759 347.28C157.493 347.246 157.901 348.717 158.518 349.039C157.257 351.505 156.843 349.471 155.813 348.227C155.799 347.986 156.693 347.284 156.759 347.28Z" fill="#666565"/>
<path d="M86.6976 347.821C87.5903 347.632 88.2836 349.322 87.5091 349.715C85.9667 350.496 85.516 348.072 86.6976 347.821Z" fill="#626463"/>
<path d="M182.187 347.821C183.204 347.67 183.538 349.369 182.728 349.715C181.652 350.174 181.049 347.991 182.187 347.821Z" fill="#616362"/>
<path d="M188.679 347.821C190.017 347.411 190.604 349.393 189.491 349.715C188.08 350.123 187.486 348.187 188.679 347.821Z" fill="#636765"/>
<path d="M93.4604 348.092C94.7819 347.882 94.6991 349.874 93.731 349.985C92.8334 350.089 92.2653 348.281 93.4604 348.092Z" fill="#646564"/>
<path d="M172.178 348.362C172.449 348.28 172.933 348.418 173.26 348.362L191.384 367.027C193.451 367.832 199.461 366.706 200.311 367.027C201.273 367.391 201.203 369.619 199.499 369.462C199.122 369.427 198.233 368.392 198.147 368.38C196.487 368.137 192.163 368.597 190.843 368.109C189.677 367.678 175.629 352.771 173.26 350.526C173.137 350.41 169.576 349.155 172.178 348.362Z" fill="#646466"/>
<path d="M102.928 348.633C103.781 348.389 104.695 349.217 104.416 350.121C104.175 350.903 102.989 350.743 102.928 350.797C100.36 353.067 86.2776 368.03 85.0747 368.38C83.5285 368.83 79.6813 368.08 77.771 368.38C77.6146 368.404 75.842 370.678 75.2012 368.786C74.1029 365.542 83.1389 368.286 84.8042 367.027L102.928 348.633Z" fill="#646667"/>
<path d="M121.864 348.903C122.07 348.849 123.015 349.366 123.081 349.58C121.478 355.031 119.74 349.46 121.864 348.903Z" fill="#5F6161"/>
<path d="M154.324 348.903C155.14 349.277 156.224 351.95 154.595 351.879C153.765 351.843 152.319 349.017 154.324 348.903Z" fill="#636462"/>
<path d="M84.8041 349.715C86.0934 349.278 86.7575 351.273 85.6157 351.608C84.1714 352.032 83.885 350.026 84.8041 349.715Z" fill="#626363"/>
<path d="M190.302 349.715C191.861 348.973 192.297 351.313 191.114 351.609C190.094 351.864 189.365 350.161 190.302 349.715Z" fill="#626465"/>
<path d="M124.839 350.256L126.057 350.932C125.332 352.541 125.625 354.305 123.622 352.826L124.839 350.256Z" fill="#646667"/>
<path d="M151.349 350.256C151.791 350.295 153.606 353.133 151.89 353.231C150.398 353.317 149.946 350.13 151.349 350.256Z" fill="#626364"/>
<path d="M58.565 350.797C62.2193 350.202 63.4648 355.719 60.1881 356.478C55.7515 357.505 55.1718 351.35 58.565 350.797Z" fill="#FCFCFD"/>
<path d="M91.0258 350.797C91.9707 350.755 92.3256 352.451 91.2963 352.69C89.9979 352.992 89.8851 350.847 91.0258 350.797Z" fill="#686A6B"/>
<path d="M184.892 350.797C186.174 350.594 185.978 352.591 185.162 352.69C184.134 352.815 183.953 350.945 184.892 350.797Z" fill="#686767"/>
<path d="M216.541 350.797C220.645 349.891 221.503 355.74 218.435 356.478C214.087 357.524 213.325 351.507 216.541 350.797Z" fill="#FCFCFC"/>
<path d="M82.9105 351.608C84.3322 350.965 84.9117 353.157 83.722 353.502C82.2845 353.919 82.1395 351.957 82.9105 351.608Z" fill="#606264"/>
<path d="M127.545 351.609C129.376 350.727 128.933 353.703 128.086 354.584L126.868 353.908C126.793 353.696 127.355 351.7 127.545 351.609Z" fill="#646667"/>
<path d="M147.562 351.608C149.078 351.102 149.418 352.922 149.456 354.043C147.683 355.863 146.931 351.819 147.562 351.608Z" fill="#676666"/>
<path d="M192.196 351.608C193.709 350.883 194.233 353.143 193.007 353.502C191.588 353.918 191.411 351.985 192.196 351.608Z" fill="#676969"/>
<path d="M130.791 352.42C132.792 351.499 132.252 356.531 130.114 354.99C130.101 354.423 130.29 352.65 130.791 352.42Z" fill="#606362"/>
<path d="M144.586 352.42C146.012 351.759 146.482 354.741 145.939 355.125L144.451 354.99C144.567 354.345 143.661 352.849 144.586 352.42Z" fill="#666868"/>
<path d="M134.037 352.961C136.004 352.029 135.416 355.022 135.119 355.937L133.09 355.531C133.586 354.946 133.511 353.21 134.037 352.961Z" fill="#646564"/>
<path d="M141.07 352.961C142.791 352.106 142.725 354.457 142.693 355.666L140.935 355.801C141.229 355.074 140.147 353.419 141.07 352.961Z" fill="#616262"/>
<path d="M137.283 353.231C137.372 353.168 138.908 353.179 139.041 353.367C139.006 355.277 139.636 356.498 137.147 355.801C137.241 355.282 136.959 353.461 137.283 353.231Z" fill="#626365"/>
<path d="M81.0168 353.502C82.4559 352.709 83.0873 355.081 81.8284 355.396C80.6817 355.682 80.2865 353.904 81.0168 353.502Z" fill="#646666"/>
<path d="M88.321 353.502C89.4928 353.184 89.9281 354.783 89.1325 355.125C88.0096 355.607 87.0718 353.841 88.321 353.502Z" fill="#66696A"/>
<path d="M186.786 353.502C188.123 352.877 188.596 354.793 187.868 355.125C186.775 355.623 185.948 353.893 186.786 353.502Z" fill="#6C6A6B"/>
<path d="M193.819 353.502C194.833 352.941 196.051 354.474 195.171 355.125C193.742 356.182 192.89 354.016 193.819 353.502Z" fill="#666666"/>
<path d="M108.339 354.313C109.306 353.877 110.011 354.829 109.826 355.801C107.527 358.23 91.3648 372.027 90.8909 373.655C90.3988 375.345 92.2347 383.503 89.6736 382.717C87.8736 382.164 89.7948 380.298 89.8088 380.147C90.0344 377.749 89.4325 375.22 90.0793 372.843C95.8503 366.925 102.321 361.6 107.933 355.531C108.007 355.451 107.725 354.59 108.339 354.313Z" fill="#636566"/>
<path d="M166.768 354.314C167.045 354.233 167.521 354.368 167.85 354.314C168.647 354.585 168.472 355.74 168.527 355.801C170.962 358.512 185.569 371.455 186.11 372.843C186.717 374.403 186.216 378.285 186.38 380.147C186.397 380.337 188.422 383.181 185.704 382.717C183.927 382.414 185.293 380.557 185.298 380.418C185.378 378.067 185.303 375.719 185.028 373.384L166.363 355.801C166.055 355.362 166.337 354.44 166.768 354.314Z" fill="#646666"/>
<path d="M102.658 354.584C103.553 354.331 104.344 355.129 104.145 356.072L83.181 375.143C82.518 374.567 82.3757 374.471 82.7753 373.655L102.658 354.584Z" fill="#616363"/>
<path d="M172.719 354.584L193.413 374.737L192.196 375.413C186.036 369.301 180.281 362.519 173.802 356.748C173.579 356.55 171.186 356.638 172.719 354.584Z" fill="#646566"/>
<path d="M195.983 354.855C197.07 354.756 197.237 356.809 196.253 357.019C194.927 357.3 194.863 354.956 195.983 354.855Z" fill="#656564"/>
<path d="M79.394 355.125C80.8145 354.465 81.5952 356.778 80.2056 357.019C79.0145 357.225 78.8024 355.4 79.394 355.125Z" fill="#616465"/>
<path d="M162.169 355.125C164.539 358.097 181.478 372.765 182.052 374.737C183.622 380.126 178.206 393.95 187.597 395.16C196.83 396.35 198.779 382.756 192.737 378.93C191.858 378.374 187.048 377.655 188.003 375.548C188.731 373.943 189.753 376.693 190.302 377.036C193.55 379.069 195.833 377.902 196.93 383.393C200.044 398.984 182.068 399.276 180.699 389.885C180.18 386.326 181.91 378.507 180.97 375.278C180.56 373.871 164.781 360.453 162.575 357.154C162.35 356.818 162.222 356.334 161.764 356.072L162.169 355.125Z" fill="#646566"/>
<path d="M113.478 355.396C113.852 355.344 114.463 355.965 114.425 356.342C113.896 356.677 113.679 357.234 113.343 357.695C110.56 361.501 96.3201 372.542 95.2186 375.278C93.9913 378.326 95.9189 386.063 95.4891 389.615C94.2483 399.868 75.5097 398.285 79.2586 383.393C80.55 378.263 82.3427 379.062 85.8861 377.036C86.4609 376.708 87.6573 374.184 88.1854 375.548C89.0808 377.86 84.3739 378.413 83.181 379.2C77.3991 383.017 79.5656 396.368 88.5911 395.16C97.3845 393.983 93.2252 380.322 94.1365 374.466L113.478 355.396Z" fill="#646565"/>
<path d="M85.3454 356.748C86.3841 356.687 86.5719 358.42 85.6159 358.642C84.3285 358.941 84.1922 356.816 85.3454 356.748Z" fill="#676969"/>
<path d="M190.302 356.748C191.379 356.243 192.058 357.928 191.114 358.371C190.037 358.876 189.358 357.191 190.302 356.748Z" fill="#676968"/>
<path d="M76.4186 359.453C77.8085 358.809 78.3838 361.265 76.9596 361.347C76.1319 361.394 75.5562 359.853 76.4186 359.453Z" fill="#5E605F"/>
<path d="M198.959 359.453C200.55 358.738 200.935 361.342 199.5 361.347C198.631 361.35 198.111 359.834 198.959 359.453Z" fill="#606161"/>
<path d="M81.8288 359.994C82.9652 359.49 83.5481 361.233 82.6403 361.617C81.8802 361.939 80.8371 360.434 81.8288 359.994Z" fill="#666565"/>
<path d="M162.44 359.994C163.218 359.904 163.867 361.472 162.981 361.888C161.677 362.5 161.214 360.136 162.44 359.994Z" fill="#606466"/>
<path d="M193.278 359.994C194.414 359.49 194.997 361.233 194.09 361.617C193.329 361.939 192.286 360.434 193.278 359.994Z" fill="#636262"/>
<path d="M113.208 360.265C114.513 359.971 114.927 362.424 113.478 362.429C112.306 362.433 112.279 360.473 113.208 360.265Z" fill="#616565"/>
<path d="M122.134 360.265C122.463 360.101 125.944 360.273 125.786 361.482V391.779C118.022 396.237 122.875 404.235 120.917 410.444C120.455 411.908 114.654 416.992 114.425 413.69C114.275 411.528 117.239 412.591 118.347 411.932C121.422 410.1 119.625 401.983 120.105 398.812C119.883 398.311 109.643 398.438 109.15 398.677C108.501 398.991 108.64 404.399 103.469 403.546C98.5717 402.738 99.3962 393.754 105.904 395.16C107.283 395.458 108.192 397.458 108.609 397.595C109.135 397.768 119.207 397.849 119.699 397.595C120.624 397.118 120.298 395.533 120.917 394.754C121.449 394.085 124.513 391.894 124.704 391.238V362.023C124.61 361.823 119.372 361.642 122.134 360.265ZM103.469 396.513C101.227 397.079 101.122 400.984 103.199 401.923C108.116 404.147 109.138 395.081 103.469 396.513Z" fill="#646566"/>
<path d="M151.079 360.265C151.379 360.207 152.689 361.125 153.784 360.265C156.07 363.072 151.728 361.06 151.214 362.293L151.484 391.238C151.855 392.095 154.502 393.803 155.001 394.484C155.616 395.324 155.9 397.457 156.218 397.595C156.74 397.82 167.04 397.502 167.58 397.324C168.355 397.068 169.077 394.716 171.908 394.89C178.336 395.284 175.973 406.523 169.203 403.005C167.219 401.974 167.286 398.633 166.768 398.406C166.278 398.192 156.392 398.376 156.083 398.812C156.537 401.857 154.804 410.349 157.841 411.932C159.178 412.628 160.468 411.304 161.493 412.608C161.544 413.534 161.674 414.682 160.546 414.907C159.665 415.083 155.562 411.33 155.271 410.444C153.256 404.299 158.265 396.187 150.402 391.779L150.132 361.482C150.393 361.241 150.716 360.334 151.079 360.265ZM171.096 396.242C167.605 396.674 167.788 402.904 172.178 402.193C175.683 401.625 174.734 395.792 171.096 396.242Z" fill="#646566"/>
<path d="M146.48 361.347C147.199 361.247 147.376 365.993 147.427 366.892C147.765 372.929 146.355 397.682 148.238 400.976C148.784 401.931 152.388 404.691 152.566 405.304C153.197 407.468 152.181 411.3 152.566 413.69C152.596 413.874 153.591 414.555 153.648 414.772C154.335 417.372 151.124 417.278 150.943 415.584C150.864 414.835 151.747 414.256 151.755 413.961C151.782 412.939 151.86 406.494 151.755 406.116C151.503 405.206 146.781 401.97 146.345 399.894V365.269C145.83 364.477 145.482 365.439 144.992 365.81V405.034C147.544 405.766 148.427 413.538 147.021 414.096C142.538 413.785 146.187 411.71 146.345 411.255C147.226 408.719 145.169 407.154 143.91 405.304V365.269C145.325 364.116 145.92 363.026 146.48 361.347Z" fill="#696A67"/>
<path d="M129.708 361.617L132.278 365.269V405.575C130.988 407.247 129.007 408.848 129.844 411.255C129.906 411.433 132.744 413.213 130.52 414.096C127.87 415.147 128.355 409.134 128.762 407.739C128.834 407.491 131.076 405.496 131.196 405.034C131.881 402.411 132.047 369.608 131.467 366.622C131.378 366.166 130.766 364.983 130.114 364.999V399.083C129.568 402.219 124.807 404.832 124.434 406.116C124.181 406.981 124.362 412.652 124.434 413.96C124.447 414.204 126.393 417.652 123.487 417.071C121.586 416.692 123.487 412.841 123.622 411.255C123.745 409.812 123.207 406.675 123.352 405.845C123.595 404.447 128.53 401.531 129.032 398.812C130.46 388.769 127.069 372.096 129.032 362.834C129.066 362.675 129.529 361.646 129.708 361.617Z" fill="#646566"/>
<path d="M160.817 362.429C162.101 362.281 162.367 364.445 161.087 364.593C159.804 364.741 159.537 362.576 160.817 362.429Z" fill="#636465"/>
<path d="M137.824 362.699C138.212 362.58 138.827 362.697 139.041 363.105C138.211 365.718 140.451 365.733 141.746 367.704L141.476 419.1C139.43 421.565 137.319 418.255 140.394 416.936L140.664 368.245C138.71 365.613 137.521 365.726 135.524 368.245V416.936C137.927 417.769 138.236 420.114 135.389 420.047L134.442 418.83V367.704C134.705 367.086 137.36 365.191 137.418 364.998C137.595 364.418 136.629 363.067 137.824 362.699Z" fill="#656665"/>
<path d="M114.56 362.97C115.732 362.423 116.695 364.479 115.372 364.863C113.942 365.278 113.782 363.333 114.56 362.97Z" fill="#666768"/>
<path d="M166.497 363.781C167.39 363.592 168.083 365.282 167.309 365.675C165.766 366.456 165.316 364.032 166.497 363.781Z" fill="#5E6264"/>
<path d="M109.15 364.052C109.822 364.023 110.657 365.498 109.691 365.945C108.288 366.596 107.739 364.112 109.15 364.052Z" fill="#616463"/>
<path d="M169.202 366.486C170.096 366.296 170.935 368.046 169.744 368.38C168.11 368.838 168.323 366.673 169.202 366.486Z" fill="#646768"/>
<path d="M69.1148 366.757C74.8939 365.917 75.3857 374.417 70.4673 374.872C65.1018 375.369 64.4691 367.432 69.1148 366.757ZM69.1148 368.109C66.13 368.764 66.7581 374.071 70.4673 373.519C73.622 373.05 73.0964 367.236 69.1148 368.109Z" fill="#656666"/>
<path d="M106.445 366.757C107.584 366.492 108.002 368.414 106.986 368.65C105.751 368.938 105.381 367.004 106.445 366.757Z" fill="#666867"/>
<path d="M205.721 366.757C211.475 366.013 211.786 374.32 207.074 374.872C201.603 375.513 201.16 367.347 205.721 366.757ZM205.721 368.109C202.689 368.73 203.322 374.106 207.074 373.52C210.141 373.04 209.758 367.283 205.721 368.109Z" fill="#646565"/>
<path d="M164.334 367.298C165.661 367.225 165.739 370.111 163.793 369.191C163.147 368.886 163.548 367.341 164.334 367.298Z" fill="#616160"/>
<path d="M111.043 367.568C112.259 367.005 113.144 369.144 111.855 369.462C110.825 369.716 110.111 368.001 111.043 367.568Z" fill="#616363"/>
<path d="M69.1148 368.109C73.0964 367.236 73.622 373.051 70.4673 373.52C66.7581 374.071 66.13 368.764 69.1148 368.109Z" fill="#FCFCFD"/>
<path d="M205.721 368.109C209.758 367.283 210.141 373.04 207.074 373.519C203.322 374.106 202.689 368.73 205.721 368.109Z" fill="#FCFDFD"/>
<path d="M103.469 369.462C104.672 369.165 105.1 371.086 104.01 371.356C102.808 371.653 102.38 369.731 103.469 369.462Z" fill="#6E6D6E"/>
<path d="M171.637 369.462C173.039 368.758 173.665 370.785 172.449 371.085C171.384 371.348 170.95 369.807 171.637 369.462Z" fill="#606467"/>
<path d="M108.609 370.003C109.812 369.706 110.24 371.627 109.15 371.897C107.947 372.194 107.519 370.272 108.609 370.003Z" fill="#676867"/>
<path d="M166.497 370.003C167.713 369.44 168.598 371.578 167.309 371.897C166.279 372.151 165.565 370.435 166.497 370.003Z" fill="#656565"/>
<path d="M137.553 370.544C139.213 370.193 139.476 372.374 138.365 372.708C136.786 373.182 135.974 370.878 137.553 370.544Z" fill="#64666A"/>
<path d="M100.494 371.896C101.518 371.833 101.735 373.55 100.764 373.79C99.3915 374.129 99.3069 371.97 100.494 371.896Z" fill="#656867"/>
<path d="M106.986 371.897C107.894 371.823 108.518 373.743 107.256 374.061C105.693 374.455 105.963 371.98 106.986 371.897Z" fill="#5E6060"/>
<path d="M116.995 371.897C123.066 371.042 123.708 379.712 118.888 380.553C112.493 381.668 111.934 372.609 116.995 371.897ZM117.265 373.249C113.693 373.78 114.454 380.053 118.618 379.2C121.949 378.518 121.263 372.655 117.265 373.249Z" fill="#656565"/>
<path d="M168.661 371.896C170.065 371.546 170.31 374.056 168.932 374.06C167.78 374.065 167.711 372.134 168.661 371.896Z" fill="#5E5F60"/>
<path d="M175.154 371.897C176.392 371.609 176.741 373.781 175.424 373.79C174.326 373.798 174.239 372.109 175.154 371.897Z" fill="#616464"/>
<path d="M157.03 372.167C163.479 370.726 164.532 379.537 159.735 380.553C153.536 381.866 152.504 373.178 157.03 372.167ZM157.571 373.52C154.921 374.133 155.021 378.731 157.841 379.2C162.714 380.012 162.433 372.394 157.571 373.52Z" fill="#646565"/>
<path d="M117.265 373.249C121.263 372.654 121.949 378.518 118.618 379.2C114.454 380.053 113.692 373.78 117.265 373.249Z" fill="#FDFEFE"/>
<path d="M157.571 373.52C162.433 372.394 162.714 380.011 157.841 379.2C155.022 378.731 154.921 374.133 157.571 373.52Z" fill="#FDFDFE"/>
<path d="M105.363 374.061C106.224 374.059 106.756 375.549 105.904 375.954C104.211 376.76 103.916 374.063 105.363 374.061Z" fill="#636565"/>
<path d="M170.285 374.061C171.86 373.603 171.645 375.68 171.096 375.954C169.964 376.519 168.94 374.451 170.285 374.061Z" fill="#616264"/>
<path d="M96.977 375.143C98.0536 374.637 98.7331 376.322 97.7885 376.766C96.7119 377.271 96.0324 375.586 96.977 375.143Z" fill="#646768"/>
<path d="M178.129 375.143C179.441 374.541 180.109 376.429 178.941 376.766C177.626 377.145 177.31 375.518 178.129 375.143Z" fill="#6D6F6E"/>
<path d="M103.199 375.954C104.773 375.518 104.849 377.954 103.74 378.118C102.906 378.241 101.907 376.311 103.199 375.954Z" fill="#656766"/>
<path d="M171.908 375.954C173.421 375.229 173.944 377.488 172.719 377.848C171.3 378.264 171.123 376.33 171.908 375.954Z" fill="#626466"/>
<path d="M137.553 377.577C139.189 377.231 139.499 379.373 138.365 379.741C136.616 380.309 136.083 377.888 137.553 377.577Z" fill="#686A6D"/>
<path d="M174.072 377.577C175.526 377.547 175.107 380.034 173.801 379.741C172.829 379.523 172.954 377.6 174.072 377.577Z" fill="#636263"/>
<path d="M101.305 377.848C102.565 377.188 103.477 378.866 102.658 379.471C101.396 380.402 100.273 378.388 101.305 377.848Z" fill="#65686A"/>
<path d="M97.2476 380.553C98.8809 379.819 99.0725 382.373 97.7886 382.446C96.9552 382.494 96.3885 380.939 97.2476 380.553Z" fill="#646563"/>
<path d="M177.859 380.553C179.311 379.895 179.832 382.149 178.67 382.446C177.445 382.759 176.962 380.958 177.859 380.553Z" fill="#636463"/>
<path d="M76.4187 381.364C77.7812 381.152 78.0344 383.196 76.9597 383.528C75.4397 383.999 75.0453 381.579 76.4187 381.364Z" fill="#616563"/>
<path d="M199.229 381.364C200.61 380.719 201.202 383.168 199.77 383.258C198.688 383.325 198.446 381.73 199.229 381.364Z" fill="#616464"/>
<path d="M137.283 383.799C138.891 383.059 139.708 385.199 138.635 385.692C137.027 386.432 136.209 384.292 137.283 383.799Z" fill="#65686B"/>
<path d="M72.0905 384.069C73.8169 383.551 74.4688 386.213 72.902 386.504C71.4159 386.78 70.8832 384.432 72.0905 384.069Z" fill="#606263"/>
<path d="M86.1565 384.069C92.8638 382.737 92.9771 393.28 86.427 392.184C82.3889 391.509 82.3481 384.826 86.1565 384.069ZM86.9681 385.422C84.2673 385.728 83.7923 390.221 86.427 390.832C91.1009 391.916 91.0876 384.954 86.9681 385.422Z" fill="#636565"/>
<path d="M187.868 384.069C193.639 382.872 194.597 391.491 189.761 392.185C184.097 392.997 183.633 384.948 187.868 384.069ZM188.138 385.422C184.845 386.148 186.375 392.455 190.302 390.562C192.971 389.275 191.564 384.666 188.138 385.422Z" fill="#656766"/>
<path d="M203.016 384.069C204.624 383.702 205.3 386.019 204.098 386.504C202.058 387.326 201.501 384.415 203.016 384.069Z" fill="#626464"/>
<path d="M86.9681 385.422C91.0876 384.955 91.1009 391.916 86.4271 390.832C83.7923 390.221 84.2673 385.728 86.9681 385.422Z" fill="#FCFCFD"/>
<path d="M188.138 385.422C191.564 384.666 192.971 389.275 190.302 390.561C186.375 392.455 184.844 386.148 188.138 385.422Z" fill="#FCFDFD"/>
<path d="M65.598 386.774C72.3945 385.689 72.3475 396.503 65.3275 395.16C61.2658 394.383 61.265 387.466 65.598 386.774ZM66.139 388.127C62.6868 388.467 63.2192 394.659 67.2211 393.808C70.3725 393.137 69.5293 387.793 66.139 388.127Z" fill="#626363"/>
<path d="M208.426 386.774C215.761 385.196 215.762 396.675 208.426 395.16C204.594 394.369 204.591 387.6 208.426 386.774ZM208.697 388.127C205.557 388.854 206.631 394.682 210.59 393.808C213.83 393.093 213.018 387.126 208.697 388.127Z" fill="#646566"/>
<path d="M66.139 388.127C69.5293 387.793 70.3725 393.137 67.2211 393.807C63.2192 394.659 62.6868 388.467 66.139 388.127Z" fill="#FCFCFC"/>
<path d="M208.697 388.127C213.018 387.126 213.83 393.093 210.59 393.808C206.631 394.682 205.557 388.854 208.697 388.127Z" fill="#FDFDFD"/>
<path d="M137.824 389.479C139.342 389.35 139.651 391.767 138.094 391.914C136.555 392.059 136.288 389.611 137.824 389.479Z" fill="#67696A"/>
<path d="M137.283 395.431C138.543 395.032 139.743 396.418 138.635 397.324C137.313 398.406 136.042 395.823 137.283 395.431Z" fill="#67686A"/>
<path d="M171.096 396.242C174.734 395.792 175.683 401.626 172.178 402.193C167.788 402.905 167.605 396.674 171.096 396.242Z" fill="#FDFDFE"/>
<path d="M103.469 396.513C109.138 395.081 108.116 404.147 103.199 401.923C101.122 400.984 101.227 397.079 103.469 396.513Z" fill="#FDFDFD"/>
<path d="M137.824 400.841C139.082 400.687 139.516 402.66 138.365 403.005C136.617 403.527 136.319 401.024 137.824 400.841Z" fill="#64676A"/>
<path d="M136.742 420.588C143.942 419.062 144.214 430.788 136.742 429.244C132.72 428.413 132.703 421.444 136.742 420.588ZM137.553 421.941C134.871 422.279 134.136 426.536 136.742 427.621C141.522 429.612 142.479 421.319 137.553 421.941Z" fill="#656565"/>
<path d="M137.553 421.94C142.478 421.318 141.522 429.611 136.742 427.621C134.136 426.536 134.871 422.279 137.553 421.94Z" fill="#FDFDFE"/>
</g>
<defs>
<clipPath id="clip0_0_1">
<rect width="277" height="277" fill="white" transform="translate(0 182)"/>
</clipPath>
</defs>
</svg>
